<svg width="20" height="20" viewBox="0 0 20 20" fill="none" xmlns="http://www.w3.org/2000/svg">
  <path fill-rule="evenodd" clip-rule="evenodd" d="M11.6826 2H8.31739H8.31738C7.36494 1.99999 6.60439 1.99999 5.99013 2.05018C5.36012 2.10165 4.81824 2.20963 4.32054 2.46322C3.52085 2.87068 2.87068 3.52085 2.46322 4.32054C2.20963 4.81824 2.10165 5.36012 2.05018 5.99013C1.99999 6.60438 1.99999 7.36491 2 8.31733V8.31739V11.6826V11.6827C1.99999 12.6351 1.99999 13.3956 2.05018 14.0099C2.10165 14.6399 2.20963 15.1818 2.46322 15.6795C2.87068 16.4791 3.52085 17.1293 4.32054 17.5368C4.81824 17.7904 5.36012 17.8984 5.99013 17.9498C6.60439 18 7.36493 18 8.31737 18H11.6826C12.6351 18 13.3956 18 14.0099 17.9498C14.6399 17.8984 15.1818 17.7904 15.6795 17.5368C16.4791 17.1293 17.1293 16.4791 17.5368 15.6795C17.7904 15.1818 17.8983 14.6399 17.9498 14.0099C18 13.3956 18 12.6352 18 11.6828V11.6826V8.31737V8.31719C18 7.36484 18 6.60435 17.9498 5.99013C17.8983 5.36012 17.7904 4.81824 17.5368 4.32054C17.1293 3.52085 16.4791 2.87068 15.6795 2.46322C15.1818 2.20963 14.6399 2.10165 14.0099 2.05018C13.3956 1.99999 12.6351 1.99999 11.6826 2ZM4.5 8C4.5 7.53406 4.5 7.30109 4.57612 7.11732C4.67761 6.87229 4.87229 6.67761 5.11732 6.57612C5.30109 6.5 5.53406 6.5 6 6.5H8C8.46594 6.5 8.69891 6.5 8.88268 6.57612C9.12771 6.67761 9.32239 6.87229 9.42388 7.11732C9.5 7.30109 9.5 7.53406 9.5 8C9.5 8.46594 9.5 8.69891 9.42388 8.88268C9.32239 9.12771 9.12771 9.32239 8.88268 9.42388C8.69891 9.5 8.46594 9.5 8 9.5H6C5.53406 9.5 5.30109 9.5 5.11732 9.42388C4.87229 9.32239 4.67761 9.12771 4.57612 8.88268C4.5 8.69891 4.5 8.46594 4.5 8ZM4.5 12C4.5 11.5341 4.5 11.3011 4.57612 11.1173C4.67761 10.8723 4.87229 10.6776 5.11732 10.5761C5.30109 10.5 5.53406 10.5 6 10.5H8C8.46594 10.5 8.69891 10.5 8.88268 10.5761C9.12771 10.6776 9.32239 10.8723 9.42388 11.1173C9.5 11.3011 9.5 11.5341 9.5 12C9.5 12.4659 9.5 12.6989 9.42388 12.8827C9.32239 13.1277 9.12771 13.3224 8.88268 13.4239C8.69891 13.5 8.46594 13.5 8 13.5H6C5.53406 13.5 5.30109 13.5 5.11732 13.4239C4.87229 13.3224 4.67761 13.1277 4.57612 12.8827C4.5 12.6989 4.5 12.4659 4.5 12ZM10.5761 7.11732C10.5 7.30109 10.5 7.53406 10.5 8C10.5 8.46594 10.5 8.69891 10.5761 8.88268C10.6776 9.12771 10.8723 9.32239 11.1173 9.42388C11.3011 9.5 11.5341 9.5 12 9.5H14C14.4659 9.5 14.6989 9.5 14.8827 9.42388C15.1277 9.32239 15.3224 9.12771 15.4239 8.88268C15.5 8.69891 15.5 8.46594 15.5 8C15.5 7.53406 15.5 7.30109 15.4239 7.11732C15.3224 6.87229 15.1277 6.67761 14.8827 6.57612C14.6989 6.5 14.4659 6.5 14 6.5H12C11.5341 6.5 11.3011 6.5 11.1173 6.57612C10.8723 6.67761 10.6776 6.87229 10.5761 7.11732ZM10.5 12C10.5 11.5341 10.5 11.3011 10.5761 11.1173C10.6776 10.8723 10.8723 10.6776 11.1173 10.5761C11.3011 10.5 11.5341 10.5 12 10.5H14C14.4659 10.5 14.6989 10.5 14.8827 10.5761C15.1277 10.6776 15.3224 10.8723 15.4239 11.1173C15.5 11.3011 15.5 11.5341 15.5 12C15.5 12.4659 15.5 12.6989 15.4239 12.8827C15.3224 13.1277 15.1277 13.3224 14.8827 13.4239C14.6989 13.5 14.4659 13.5 14 13.5H12C11.5341 13.5 11.3011 13.5 11.1173 13.4239C10.8723 13.3224 10.6776 13.1277 10.5761 12.8827C10.5 12.6989 10.5 12.4659 10.5 12Z" fill="#BCBDC2"/>
</svg>