<svg width="20" height="20" viewBox="0 0 20 20" fill="none" xmlns="http://www.w3.org/2000/svg">
  <path fill-rule="evenodd" clip-rule="evenodd" d="M8.31739 2H11.6826C12.6351 1.99999 13.3956 1.99999 14.0099 2.05018C14.6399 2.10165 15.1818 2.20963 15.6795 2.46322C16.4791 2.87068 17.1293 3.52085 17.5368 4.32054C17.7904 4.81824 17.8983 5.36012 17.9498 5.99013C18 6.60435 18 7.36484 18 8.31719V8.31737V11.6826V11.6828C18 12.6352 18 13.3956 17.9498 14.0099C17.8983 14.6399 17.7904 15.1818 17.5368 15.6795C17.1293 16.4791 16.4791 17.1293 15.6795 17.5368C15.1818 17.7904 14.6399 17.8984 14.0099 17.9498C13.3956 18 12.6351 18 11.6826 18H8.31737C7.36493 18 6.60439 18 5.99013 17.9498C5.36012 17.8984 4.81824 17.7904 4.32054 17.5368C3.52085 17.1293 2.87068 16.4791 2.46322 15.6795C2.20963 15.1818 2.10165 14.6399 2.05018 14.0099C1.99999 13.3956 1.99999 12.6351 2 11.6827V11.6826V8.31739V8.31733C1.99999 7.36491 1.99999 6.60438 2.05018 5.99013C2.10165 5.36012 2.20963 4.81824 2.46322 4.32054C2.87068 3.52085 3.52085 2.87068 4.32054 2.46322C4.81824 2.20963 5.36012 2.10165 5.99013 2.05018C6.60439 1.99999 7.36494 1.99999 8.31738 2H8.31739ZM5.5 6.09988C5.5 5.76851 5.76863 5.49988 6.1 5.49988H13.4C13.7314 5.49988 14 5.76851 14 6.09988C14 6.43125 13.7314 6.69988 13.4 6.69988H6.1C5.76863 6.69988 5.5 6.43125 5.5 6.09988ZM6.1 8.09998C5.76863 8.09998 5.5 8.3686 5.5 8.69998C5.5 9.03135 5.76863 9.29998 6.1 9.29998H13.9C14.2314 9.29998 14.5 9.03135 14.5 8.69998C14.5 8.3686 14.2314 8.09998 13.9 8.09998H6.1ZM5.5 11.3001C5.5 10.9687 5.76863 10.7001 6.1 10.7001H11.9C12.2314 10.7001 12.5 10.9687 12.5 11.3001C12.5 11.6314 12.2314 11.9001 11.9 11.9001H6.1C5.76863 11.9001 5.5 11.6314 5.5 11.3001ZM6.1 13.3002C5.76863 13.3002 5.5 13.5688 5.5 13.9002C5.5 14.2315 5.76863 14.5002 6.1 14.5002H13.9C14.2314 14.5002 14.5 14.2315 14.5 13.9002C14.5 13.5688 14.2314 13.3002 13.9 13.3002H6.1Z" fill="#BCBDC2"/>
</svg>