<svg width="20" height="20" viewBox="0 0 20 20" fill="none" xmlns="http://www.w3.org/2000/svg">
  <path fill-rule="evenodd" clip-rule="evenodd" d="M8.31739 2H11.6826C12.6351 1.99999 13.3956 1.99999 14.0099 2.05018C14.6399 2.10165 15.1818 2.20963 15.6795 2.46322C16.4791 2.87068 17.1293 3.52085 17.5368 4.32054C17.7904 4.81824 17.8983 5.36012 17.9498 5.99013C18 6.60439 18 7.36493 18 8.31737V11.6826C18 12.6351 18 13.3956 17.9498 14.0099C17.8983 14.6399 17.7904 15.1818 17.5368 15.6795C17.1293 16.4791 16.4791 17.1293 15.6795 17.5368C15.1818 17.7904 14.6399 17.8984 14.0099 17.9498C13.3956 18 12.6351 18 11.6826 18H8.31737C7.36493 18 6.60439 18 5.99013 17.9498C5.36012 17.8984 4.81824 17.7904 4.32054 17.5368C3.52085 17.1293 2.87068 16.4791 2.46322 15.6795C2.20963 15.1818 2.10165 14.6399 2.05017 14.0099C1.99999 13.3956 1.99999 12.6351 2 11.6826V8.31739C1.99999 7.36494 1.99999 6.6044 2.05017 5.99013C2.10165 5.36012 2.20963 4.81824 2.46322 4.32054C2.87068 3.52085 3.52085 2.87068 4.32054 2.46322C4.81824 2.20963 5.36012 2.10165 5.99013 2.05018C6.60439 1.99999 7.36494 1.99999 8.31739 2Z" fill="#E9E9EC"/>
  <path opacity="0.8" d="M8.51553 9.09444L5.86903 12.9172C5.61845 13.2791 5.49315 13.4601 5.50029 13.6106C5.5065 13.7417 5.57024 13.8633 5.67448 13.9431C5.79417 14.0346 6.01429 14.0346 6.45452 14.0346H13.1066L9.6865 9.09444C9.48981 8.81033 9.39146 8.66827 9.26862 8.61834C9.16115 8.57465 9.04088 8.57465 8.93341 8.61834C8.81056 8.66827 8.71222 8.81033 8.51553 9.09444Z" fill="#151522"/>
  <path opacity="0.4" d="M13.1068 14.0345H13.5565C13.9887 14.0345 14.2049 14.0345 14.324 13.9444C14.4278 13.8659 14.492 13.7459 14.4998 13.616C14.5087 13.4669 14.3888 13.2871 14.149 12.9274L12.8092 10.9177C12.6111 10.6205 12.512 10.472 12.3872 10.4202C12.278 10.3749 12.1554 10.3749 12.0462 10.4202C11.9213 10.472 11.8223 10.6205 11.6242 10.9177L11.293 11.4145L13.1068 14.0345Z" fill="#151522"/>
  <path opacity="0.8" d="M13.1648 8.63597C13.9022 8.63597 14.5 8.03819 14.5 7.30078C14.5 6.56337 13.9022 5.96558 13.1648 5.96558C12.4274 5.96558 11.8296 6.56337 11.8296 7.30078C11.8296 8.03819 12.4274 8.63597 13.1648 8.63597Z" fill="#151522"/>
</svg>