<svg width="20" height="20" viewBox="0 0 20 20" fill="none" xmlns="http://www.w3.org/2000/svg">
<path fill-rule="evenodd" clip-rule="evenodd" d="M11.5 3.09845V4.25008C11.5 4.96252 11.5006 5.45174 11.5316 5.831C11.5618 6.2015 11.6173 6.40052 11.6907 6.54456C11.8585 6.87384 12.1262 7.14156 12.4555 7.30934C12.5996 7.38273 12.7986 7.43824 13.1691 7.46851C13.5483 7.49949 14.0376 7.50008 14.75 7.50008H15.9016C15.8977 7.49317 15.8936 7.48631 15.8895 7.47952C15.8539 7.42144 15.8014 7.36213 15.5167 7.07746L11.9226 3.48335C11.6379 3.19868 11.5786 3.14619 11.5206 3.1106C11.5138 3.10644 11.5069 3.10238 11.5 3.09845ZM16 9.00008H14.7186C14.0452 9.00009 13.4945 9.00009 13.0469 8.96352C12.5837 8.92567 12.1653 8.84494 11.7745 8.64585C11.163 8.33426 10.6658 7.83707 10.3542 7.22555C10.1551 6.83481 10.0744 6.41641 10.0366 5.95315C9.99998 5.50558 9.99999 4.95487 10 4.28149V3.00008H8.85C7.85753 3.00008 7.15829 3.00066 6.61228 3.04527C6.07503 3.08917 5.75252 3.17192 5.50153 3.29981C4.98408 3.56346 4.56338 3.98416 4.29973 4.5016C4.17184 4.7526 4.08909 5.07511 4.04519 5.61236C4.00058 6.15836 4 6.85761 4 7.85008V12.1501C4 13.1425 4.00058 13.8418 4.04519 14.3878C4.08909 14.925 4.17184 15.2476 4.29973 15.4986C4.56338 16.016 4.98408 16.4367 5.50153 16.7003C5.75252 16.8282 6.07503 16.911 6.61228 16.9549C7.15829 16.9995 7.85753 17.0001 8.85 17.0001H11.15C12.1425 17.0001 12.8417 16.9995 13.3877 16.9549C13.925 16.911 14.2475 16.8282 14.4985 16.7003C15.0159 16.4367 15.4366 16.016 15.7003 15.4986C15.8282 15.2476 15.9109 14.925 15.9548 14.3878C15.9994 13.8418 16 13.1425 16 12.1501V9.00008ZM10.8184 1.50004C11.1235 1.49975 11.3926 1.4995 11.6539 1.56224C11.8835 1.61736 12.103 1.70827 12.3043 1.83164C12.5335 1.97206 12.7235 2.1625 12.9391 2.37849L12.9833 2.42269L16.5774 6.0168L16.6216 6.06096C16.8376 6.27654 17.028 6.46662 17.1684 6.69578C17.2918 6.89709 17.3827 7.11656 17.4378 7.34614C17.5006 7.60748 17.5003 7.87654 17.5 8.18171L17.5 8.24419V12.1827C17.5 13.1351 17.5 13.8957 17.4498 14.5099C17.3984 15.14 17.2904 15.6818 17.0368 16.1795C16.6293 16.9792 15.9791 17.6294 15.1795 18.0369C14.6818 18.2904 14.1399 18.3984 13.5099 18.4499C12.8956 18.5001 12.1351 18.5001 11.1827 18.5001H11.1826H8.81737H8.8173C7.8649 18.5001 7.10438 18.5001 6.49013 18.4499C5.86012 18.3984 5.31824 18.2904 4.82054 18.0369C4.02085 17.6294 3.37068 16.9792 2.96322 16.1795C2.70963 15.6818 2.60165 15.14 2.55018 14.5099C2.49999 13.8957 2.49999 13.1351 2.5 12.1827V7.81746V7.81746C2.49999 6.86502 2.49999 6.10447 2.55018 5.49021C2.60165 4.8602 2.70963 4.31831 2.96322 3.82062C3.37068 3.02093 4.02085 2.37076 4.82054 1.9633C5.31824 1.70971 5.86012 1.60173 6.49013 1.55025C7.1044 1.50006 7.86494 1.50007 8.81739 1.50008L10.7559 1.50008L10.8184 1.50004ZM6 14.2501C6 13.8359 6.33579 13.5001 6.75 13.5001H10.25C10.6642 13.5001 11 13.8359 11 14.2501C11 14.6643 10.6642 15.0001 10.25 15.0001H6.75C6.33579 15.0001 6 14.6643 6 14.2501ZM6.75 10.5001C6.33579 10.5001 6 10.8359 6 11.2501C6 11.6643 6.33579 12.0001 6.75 12.0001H12.25C12.6642 12.0001 13 11.6643 13 11.2501C13 10.8359 12.6642 10.5001 12.25 10.5001H6.75ZM6 8.25008C6 7.83586 6.33579 7.50008 6.75 7.50008H8.25C8.66421 7.50008 9 7.83586 9 8.25008C9 8.66429 8.66421 9.00008 8.25 9.00008H6.75C6.33579 9.00008 6 8.66429 6 8.25008Z" fill="#808080"/>
</svg>
