<svg width="20" height="20" viewBox="0 0 20 20" fill="none" xmlns="http://www.w3.org/2000/svg">
<path fill-rule="evenodd" clip-rule="evenodd" d="M11.6826 2H8.31739H8.31738C7.36494 1.99999 6.60439 1.99999 5.99013 2.05018C5.36012 2.10165 4.81824 2.20963 4.32054 2.46322C3.52085 2.87068 2.87068 3.52085 2.46322 4.32054C2.20963 4.81824 2.10165 5.36012 2.05018 5.99013C1.99999 6.60438 1.99999 7.36491 2 8.31732V8.31739V11.6826V11.6827C1.99999 12.6351 1.99999 13.3956 2.05018 14.0099C2.10165 14.6399 2.20963 15.1818 2.46322 15.6795C2.87068 16.4791 3.52085 17.1293 4.32054 17.5368C4.81824 17.7904 5.36012 17.8984 5.99013 17.9498C6.60439 18 7.36493 18 8.31737 18H11.6826C12.6351 18 13.3956 18 14.0099 17.9498C14.6399 17.8984 15.1818 17.7904 15.6795 17.5368C16.4791 17.1293 17.1293 16.4791 17.5368 15.6795C17.7904 15.1818 17.8983 14.6399 17.9498 14.0099C18 13.3956 18 12.6351 18 11.6826V8.31737C18 7.36493 18 6.60439 17.9498 5.99013C17.8983 5.36012 17.7904 4.81824 17.5368 4.32054C17.1293 3.52085 16.4791 2.87068 15.6795 2.46322C15.1818 2.20963 14.6399 2.10165 14.0099 2.05018C13.3956 1.99999 12.6351 1.99999 11.6826 2ZM9.47287 7.08409C9.52224 6.92561 9.55991 6.8047 9.55991 6.64833V6.49612C9.63969 6.11508 9.63969 5.81014 9.55991 5.73404V5.65793L9.47961 5.58183C9.47961 5.58183 9.47961 5.65793 9.39983 5.65793C9.23975 6.11508 9.23975 6.64833 9.39983 7.33379C9.42497 7.23786 9.45016 7.157 9.47287 7.08409ZM6.99018 12.5947C6.8338 12.6698 6.67845 12.7444 6.59975 12.819C6.03973 13.2762 5.63979 13.8094 5.56002 14.0382C6.03973 13.9616 6.51997 13.5045 6.99968 12.5902L6.99018 12.5947ZM14.4395 11.5237C14.4395 11.5237 14.3597 11.5237 14.3597 11.4476C14.2799 11.3715 13.9597 11.1426 12.8397 11.1426H12.6796V11.2193C13.2396 11.4476 13.7997 11.5998 14.1996 11.5998H14.4395V11.5237ZM14.8945 11.7574C14.8396 11.8528 14.7735 11.9679 14.6798 12.0569C14.4542 12.1608 14.2081 12.2133 13.9597 12.2097C13.3199 12.2097 12.36 12.0569 11.5596 11.6764C10.1997 11.8286 9.15997 11.9813 8.3601 12.2858C8.2798 12.2858 8.2798 12.2858 8.20002 12.3619C7.24007 13.9616 6.44019 14.7237 5.8004 14.7237C5.63979 14.7237 5.56002 14.7237 5.48024 14.6476L5.07978 14.4188V14.3427C5 14.1904 5 14.1138 5 13.9616C5.07978 13.5811 5.55949 12.8951 6.51997 12.3619C6.58549 12.3305 6.66438 12.2865 6.75667 12.235C6.88985 12.1606 7.05095 12.0707 7.24007 11.9808C7.36926 11.7756 7.49845 11.5483 7.64019 11.2989C7.7616 11.0852 7.89222 10.8554 8.03994 10.6094C8.38264 9.95682 8.6078 9.30387 8.81646 8.69875C8.85132 8.59768 8.88571 8.49794 8.92012 8.39976C8.59996 7.48599 8.43988 6.95274 8.75951 5.88572C8.83981 5.58078 9.07967 5.27637 9.39983 5.27637H9.55991C9.71947 5.27637 9.88007 5.35247 10.0396 5.42857C10.5996 5.96182 10.3598 7.18105 10.0396 8.17145V8.24755C10.3598 9.08574 10.84 9.77172 11.3197 10.2289C11.3995 10.2795 11.4705 10.3301 11.5414 10.3807C11.6838 10.4823 11.8262 10.5839 12.0398 10.6855C12.2509 10.6855 12.4396 10.6643 12.6179 10.6443C12.7773 10.6264 12.9284 10.6094 13.0796 10.6094C14.0395 10.6094 14.6798 10.7621 14.9197 11.1426C15 11.2954 15 11.4481 15 11.6003C14.9667 11.6319 14.9334 11.6897 14.8945 11.7574ZM10.6799 10.8382C10.28 10.3811 9.79977 9.77172 9.47961 9.08627C9.3566 9.49737 9.13814 9.95339 8.89781 10.4551C8.82641 10.6041 8.75307 10.7572 8.67973 10.9143C8.59923 11.0682 8.51858 11.2027 8.43787 11.3373C8.35863 11.4694 8.27933 11.6017 8.20002 11.7525H8.3601C9.39983 11.3709 10.3598 11.1426 11.0001 11.0665C10.84 10.9904 10.7597 10.9143 10.6799 10.8382Z" fill="#FA4646"/>
</svg> 