<svg width="20" height="20" viewBox="0 0 20 20" fill="none" xmlns="http://www.w3.org/2000/svg">
  <path fill-rule="evenodd" clip-rule="evenodd" d="M8.31739 2H11.6826C12.6351 1.99999 13.3956 1.99999 14.0099 2.05018C14.6399 2.10165 15.1818 2.20963 15.6795 2.46322C16.4791 2.87068 17.1293 3.52085 17.5368 4.32054C17.7904 4.81824 17.8983 5.36012 17.9498 5.99013C18 6.60439 18 7.36493 18 8.31737V11.6826C18 12.6351 18 13.3956 17.9498 14.0099C17.8983 14.6399 17.7904 15.1818 17.5368 15.6795C17.1293 16.4791 16.4791 17.1293 15.6795 17.5368C15.1818 17.7904 14.6399 17.8984 14.0099 17.9498C13.3956 18 12.6351 18 11.6826 18H8.31737C7.36493 18 6.60439 18 5.99013 17.9498C5.36012 17.8984 4.81824 17.7904 4.32054 17.5368C3.52085 17.1293 2.87068 16.4791 2.46322 15.6795C2.20963 15.1818 2.10165 14.6399 2.05017 14.0099C1.99999 13.3956 1.99999 12.6351 2 11.6826V8.31739C1.99999 7.36494 1.99999 6.6044 2.05017 5.99013C2.10165 5.36012 2.20963 4.81824 2.46322 4.32054C2.87068 3.52085 3.52085 2.87068 4.32054 2.46322C4.81824 2.20963 5.36012 2.10165 5.99013 2.05018C6.60439 1.99999 7.36494 1.99999 8.31739 2Z" fill="#E9E9EC"/>
  <path fill-rule="evenodd" clip-rule="evenodd" d="M10 3.5H9C8.58579 3.5 8.25 3.83579 8.25 4.25C8.25 4.66421 8.58579 5 9 5H10V6.5H9C8.58579 6.5 8.25 6.83579 8.25 7.25C8.25 7.66421 8.58579 8 9 8H10V9.5H11C11.4142 9.5 11.75 9.16421 11.75 8.75C11.75 8.33579 11.4142 8 11 8H10V6.5H11C11.4142 6.5 11.75 6.16421 11.75 5.75C11.75 5.33579 11.4142 5 11 5H10V3.5ZM8.3045 10.7729C8.25 10.8799 8.25 11.0199 8.25 11.2999V13.1999C8.25 13.48 8.25 13.62 8.3045 13.7269C8.35243 13.821 8.42892 13.8975 8.523 13.9454C8.62996 13.9999 8.76997 13.9999 9.05 13.9999H10.95C11.23 13.9999 11.37 13.9999 11.477 13.9454C11.5711 13.8975 11.6476 13.821 11.6955 13.7269C11.75 13.62 11.75 13.48 11.75 13.1999V11.2999C11.75 11.0199 11.75 10.8799 11.6955 10.7729C11.6476 10.6789 11.5711 10.6024 11.477 10.5544C11.37 10.4999 11.23 10.4999 10.95 10.4999H9.05C8.76997 10.4999 8.62996 10.4999 8.523 10.5544C8.42892 10.6024 8.35243 10.6789 8.3045 10.7729ZM8.78806 11.3085C8.75 11.4004 8.75 11.5169 8.75 11.7499C8.75 11.9828 8.75 12.0993 8.78806 12.1912C8.83881 12.3137 8.93614 12.4111 9.05866 12.4618C9.15054 12.4999 9.26703 12.4999 9.5 12.4999H10.5C10.733 12.4999 10.8495 12.4999 10.9413 12.4618C11.0639 12.4111 11.1612 12.3137 11.2119 12.1912C11.25 12.0993 11.25 11.9828 11.25 11.7499C11.25 11.5169 11.25 11.4004 11.2119 11.3085C11.1612 11.186 11.0639 11.0887 10.9413 11.0379C10.8495 10.9999 10.733 10.9999 10.5 10.9999H9.5C9.26703 10.9999 9.15054 10.9999 9.05866 11.0379C8.93614 11.0887 8.83881 11.186 8.78806 11.3085Z" fill="#151522"/>
</svg>