<svg width="18" height="18" viewBox="0 0 18 18" fill="none" xmlns="http://www.w3.org/2000/svg">
<path fill-rule="evenodd" clip-rule="evenodd" d="M9.67498 4.2751C9.67498 3.90231 9.37277 3.6001 8.99998 3.6001C8.62718 3.6001 8.32498 3.90231 8.32498 4.2751V8.3251H4.27498C3.90218 8.3251 3.59998 8.62731 3.59998 9.0001C3.59998 9.37289 3.90218 9.6751 4.27498 9.6751H8.32498V13.7251C8.32498 14.0979 8.62718 14.4001 8.99998 14.4001C9.37277 14.4001 9.67498 14.0979 9.67498 13.7251V9.6751H13.725C14.0978 9.6751 14.4 9.37289 14.4 9.0001C14.4 8.62731 14.0978 8.3251 13.725 8.3251H9.67498V4.2751Z" fill="currentColor"/>
</svg>
