<svg width="18" height="18" viewBox="0 0 18 18" fill="none" xmlns="http://www.w3.org/2000/svg">
<g id="icon/outlined/add-square">
<path id="Union" fill-rule="evenodd" clip-rule="evenodd" d="M13.5635 3.46799C13.1176 3.22949 12.684 3.12972 11.7156 3.11136H6.28503C5.31662 3.12972 4.88301 3.22949 4.43706 3.46799C4.01773 3.69225 3.69255 4.01743 3.46829 4.43676C3.2298 4.8827 3.13002 5.31632 3.11166 6.28473V11.7152C3.13002 12.6837 3.2298 13.1173 3.46829 13.5632C3.69255 13.9825 4.01773 14.3077 4.43706 14.532C4.88301 14.7705 5.31662 14.8703 6.28503 14.8886H11.7156C12.684 14.8703 13.1176 14.7705 13.5635 14.532C13.9829 14.3077 14.308 13.9825 14.5323 13.5632C14.7708 13.1173 14.8706 12.6837 14.8889 11.7152V6.28473C14.8706 5.31632 14.7708 4.8827 14.5323 4.43676C14.308 4.01743 13.9829 3.69225 13.5635 3.46799ZM11.5703 1.79999C11.6196 1.80051 11.668 1.80121 11.7156 1.80211L11.7404 1.8026C12.9112 1.82648 13.5351 1.96803 14.181 2.31343C14.8285 2.65972 15.3406 3.1718 15.6868 3.8193C16.0323 4.46514 16.1738 5.08905 16.1977 6.25991L16.1982 6.28473C16.1991 6.33225 16.1998 6.38067 16.2003 6.43002V11.57C16.1998 11.6193 16.1991 11.6677 16.1982 11.7152L16.1977 11.7401C16.1738 12.9109 16.0323 13.5348 15.6868 14.1807C15.3406 14.8282 14.8285 15.3403 14.181 15.6865C13.5351 16.0319 12.9112 16.1735 11.7404 16.1974L11.7156 16.1979C11.668 16.1988 11.6196 16.1995 11.5703 16.2H6.43033C6.38097 16.1995 6.33256 16.1988 6.28503 16.1979L6.26022 16.1974C5.08936 16.1735 4.46545 16.0319 3.8196 15.6865C3.1721 15.3403 2.66003 14.8282 2.31374 14.1807C1.96834 13.5348 1.82678 12.9109 1.8029 11.7401L1.80242 11.7152C1.80152 11.6677 1.80081 11.6193 1.80029 11.57V6.43002C1.80081 6.38067 1.80152 6.33225 1.80242 6.28473L1.8029 6.25991C1.82678 5.08905 1.96834 4.46514 2.31374 3.8193C2.66003 3.1718 3.1721 2.65972 3.8196 2.31343C4.46545 1.96803 5.08936 1.82648 6.26022 1.8026L6.28503 1.80211C6.33256 1.80121 6.38097 1.80051 6.43033 1.79999H11.5703ZM9.67464 6.42854C9.67464 6.05611 9.37272 5.75419 9.00028 5.75419C8.62784 5.75419 8.32592 6.05611 8.32592 6.42854V8.32562H6.42885C6.05641 8.32562 5.75449 8.62754 5.75449 8.99997C5.75449 9.37241 6.05641 9.67433 6.42885 9.67433H8.32592V11.5714C8.32592 11.9438 8.62784 12.2458 9.00028 12.2458C9.37272 12.2458 9.67464 11.9438 9.67464 11.5714V9.67433H11.5717C11.9441 9.67433 12.2461 9.37241 12.2461 8.99997C12.2461 8.62754 11.9441 8.32562 11.5717 8.32562H9.67464V6.42854Z" fill="#707480"/>
</g>
</svg>
