<svg width="18" height="20" viewBox="0 0 18 20" fill="none" xmlns="http://www.w3.org/2000/svg">
<path fill-rule="evenodd" clip-rule="evenodd" d="M3.375 3.47498C2.75368 3.47498 2.25 3.97866 2.25 4.59998C2.25 5.2213 2.75368 5.72498 3.375 5.72498C3.99632 5.72498 4.5 5.2213 4.5 4.59998C4.5 3.97866 3.99632 3.47498 3.375 3.47498ZM6.975 3.92498C6.60221 3.92498 6.3 4.22718 6.3 4.59998C6.3 4.97277 6.60221 5.27498 6.975 5.27498H15.075C15.4478 5.27498 15.75 4.97277 15.75 4.59998C15.75 4.22718 15.4478 3.92498 15.075 3.92498H6.975ZM3.375 8.87498C2.75368 8.87498 2.25 9.37865 2.25 9.99998C2.25 10.6213 2.75368 11.125 3.375 11.125C3.99632 11.125 4.5 10.6213 4.5 9.99998C4.5 9.37865 3.99632 8.87498 3.375 8.87498ZM6.975 9.32498C6.60221 9.32498 6.3 9.62718 6.3 9.99998C6.3 10.3728 6.60221 10.675 6.975 10.675H15.075C15.4478 10.675 15.75 10.3728 15.75 9.99998C15.75 9.62718 15.4478 9.32498 15.075 9.32498H6.975ZM2.25 15.4C2.25 14.7787 2.75368 14.275 3.375 14.275C3.99632 14.275 4.5 14.7787 4.5 15.4C4.5 16.0213 3.99632 16.525 3.375 16.525C2.75368 16.525 2.25 16.0213 2.25 15.4ZM6.3 15.4C6.3 15.0272 6.60221 14.725 6.975 14.725H15.075C15.4478 14.725 15.75 15.0272 15.75 15.4C15.75 15.7728 15.4478 16.075 15.075 16.075H6.975C6.60221 16.075 6.3 15.7728 6.3 15.4Z" fill="#707480"/>
</svg>
