<svg width="54" height="48" viewBox="0 0 54 48" fill="none" xmlns="http://www.w3.org/2000/svg">
<rect width="53.3333" height="48" transform="translate(0.166504)" fill="#67CDBC"/>
<path fill-rule="evenodd" clip-rule="evenodd" d="M18.1665 22.6668C18.1665 18.6167 21.4497 15.3335 25.4998 15.3335C29.5499 15.3335 32.8332 18.6167 32.8332 22.6668C32.8332 26.7169 29.5499 30.0002 25.4998 30.0002C21.4497 30.0002 18.1665 26.7169 18.1665 22.6668ZM25.4998 13.3335C20.3452 13.3335 16.1665 17.5122 16.1665 22.6668C16.1665 27.8215 20.3452 32.0002 25.4998 32.0002C27.7169 32.0002 29.7535 31.2271 31.3546 29.9358L35.7928 34.3739C36.1833 34.7645 36.8165 34.7645 37.207 34.3739C37.5975 33.9834 37.5975 33.3502 37.207 32.9597L32.7688 28.5216C34.0601 26.9205 34.8332 24.8839 34.8332 22.6668C34.8332 17.5122 30.6545 13.3335 25.4998 13.3335Z" fill="white"/>
</svg>
