<svg width="18" height="20" viewBox="0 0 18 20" fill="none" xmlns="http://www.w3.org/2000/svg">
<path fill-rule="evenodd" clip-rule="evenodd" d="M5.4 8.2C6.39411 8.2 7.2 7.39411 7.2 6.4C7.2 5.40589 6.39411 4.6 5.4 4.6C4.40589 4.6 3.6 5.40589 3.6 6.4C3.6 7.39411 4.40589 8.2 5.4 8.2ZM8.55 6.4C8.55 8.1397 7.1397 9.55 5.4 9.55C3.6603 9.55 2.25 8.1397 2.25 6.4C2.25 4.6603 3.6603 3.25 5.4 3.25C7.1397 3.25 8.55 4.6603 8.55 6.4ZM14.4 6.4C14.4 7.39411 13.5941 8.2 12.6 8.2C11.6059 8.2 10.8 7.39411 10.8 6.4C10.8 5.40589 11.6059 4.6 12.6 4.6C13.5941 4.6 14.4 5.40589 14.4 6.4ZM12.6 9.55C14.3397 9.55 15.75 8.1397 15.75 6.4C15.75 4.6603 14.3397 3.25 12.6 3.25C10.8603 3.25 9.45 4.6603 9.45 6.4C9.45 8.1397 10.8603 9.55 12.6 9.55ZM14.4 13.6C14.4 14.5941 13.5941 15.4 12.6 15.4C11.6059 15.4 10.8 14.5941 10.8 13.6C10.8 12.6059 11.6059 11.8 12.6 11.8C13.5941 11.8 14.4 12.6059 14.4 13.6ZM12.6 16.75C14.3397 16.75 15.75 15.3397 15.75 13.6C15.75 11.8603 14.3397 10.45 12.6 10.45C10.8603 10.45 9.45 11.8603 9.45 13.6C9.45 15.3397 10.8603 16.75 12.6 16.75ZM7.2 13.6C7.2 14.5941 6.39411 15.4 5.4 15.4C4.40589 15.4 3.6 14.5941 3.6 13.6C3.6 12.6059 4.40589 11.8 5.4 11.8C6.39411 11.8 7.2 12.6059 7.2 13.6ZM5.4 16.75C7.1397 16.75 8.55 15.3397 8.55 13.6C8.55 11.8603 7.1397 10.45 5.4 10.45C3.6603 10.45 2.25 11.8603 2.25 13.6C2.25 15.3397 3.6603 16.75 5.4 16.75Z" fill="currentColor"/>
</svg>
