<svg width="16" height="16" viewBox="0 0 16 16" fill="none" xmlns="http://www.w3.org/2000/svg">
<path fill-rule="evenodd" clip-rule="evenodd" d="M11.9599 4.04015C9.77298 1.85322 6.22725 1.85322 4.04032 4.04015C2.57517 5.5053 2.09083 7.58067 2.59022 9.45067C2.67571 9.77082 2.48549 10.0997 2.16534 10.1852C1.84519 10.2707 1.51634 10.0804 1.43085 9.76028C0.825483 7.49343 1.4115 4.97192 3.19179 3.19162C5.84735 0.53606 10.1529 0.53606 12.8084 3.19163C15.464 5.84719 15.464 10.1527 12.8084 12.8083C11.0281 14.5886 8.50663 15.1746 6.23979 14.5692C5.91964 14.4837 5.72941 14.1549 5.81491 13.8347C5.9004 13.5146 6.22925 13.3244 6.5494 13.4098C8.4194 13.9092 10.4948 13.4249 11.9599 11.9597C14.1468 9.77281 14.1468 6.22709 11.9599 4.04015ZM5.54019 6.14001C5.54019 5.80864 5.80882 5.54001 6.14019 5.54001H10.4602V9.86001C10.4602 10.1914 10.1916 10.46 9.86019 10.46C9.52882 10.46 9.26019 10.1914 9.26019 9.86001V7.58852L4.08433 12.7642C3.85002 12.9986 3.47012 12.9986 3.23581 12.7642C3.00149 12.5299 3.0015 12.15 3.23582 11.9157L8.41164 6.74001H6.14019C5.80882 6.74001 5.54019 6.47139 5.54019 6.14001Z" fill="white"/>
</svg>
