<svg width="18" height="18" viewBox="0 0 18 18" fill="none" xmlns="http://www.w3.org/2000/svg">
<path fill-rule="evenodd" clip-rule="evenodd" d="M3.80958 6.74315C3.53963 7.00025 3.52921 7.42751 3.78631 7.69746C4.0434 7.96742 4.47066 7.97784 4.74062 7.72074L9.0001 3.66409L13.2596 7.72074C13.5295 7.97784 13.9568 7.96742 14.2139 7.69746C14.471 7.42751 14.4606 7.00025 14.1906 6.74315L9.0001 1.7998L3.80958 6.74315ZM3.80958 11.2564C3.53963 10.9993 3.52921 10.5721 3.78631 10.3021C4.0434 10.0322 4.47066 10.0218 4.74062 10.2789L9.0001 14.3355L13.2596 10.2789C13.5295 10.0218 13.9568 10.0322 14.2139 10.3021C14.471 10.5721 14.4606 10.9993 14.1906 11.2564L9.0001 16.1998L3.80958 11.2564Z" fill="#707480"/>
</svg>
