<svg width="18" height="20" viewBox="0 0 18 20" fill="none" xmlns="http://www.w3.org/2000/svg">
<path fill-rule="evenodd" clip-rule="evenodd" d="M3.82498 8.87498C3.82498 6.0169 6.1419 3.69998 8.99998 3.69998C11.858 3.69998 14.175 6.0169 14.175 8.87498C14.175 10.2555 13.5613 11.2246 12.8055 12.0492C12.5267 12.3534 12.246 12.6204 11.965 12.8876L11.965 12.8876C11.8521 12.9949 11.7392 13.1022 11.6264 13.212C11.3647 13.4667 11.091 13.746 10.8738 14.05H9.675V12.5744L10.5467 11.8771C10.8378 11.6442 10.885 11.2194 10.6521 10.9283C10.4192 10.6372 9.99443 10.59 9.70333 10.8229L9 11.3856L8.29667 10.8229C8.00557 10.59 7.5808 10.6372 7.34791 10.9283C7.11503 11.2194 7.16223 11.6442 7.45333 11.8771L8.325 12.5744V14.05H7.12618C6.90892 13.746 6.63521 13.4667 6.37352 13.212C6.26072 13.1022 6.14784 12.9949 6.035 12.8876L6.03498 12.8876C5.75398 12.6203 5.47322 12.3534 5.19446 12.0492C4.43869 11.2246 3.82498 10.2555 3.82498 8.87498ZM8.99415 15.4H7.57397C7.6072 15.5607 7.63438 15.682 7.66231 15.7823C7.70286 15.9279 7.7331 15.9825 7.75322 16.0113C7.82442 16.1133 7.92242 16.1937 8.0364 16.2435C8.06862 16.2576 8.12812 16.2765 8.27885 16.2877C8.43807 16.2995 8.64542 16.3 8.97075 16.3H9.0292C9.35453 16.3 9.56188 16.2995 9.7211 16.2877C9.87183 16.2765 9.93133 16.2576 9.96355 16.2435C10.0775 16.1937 10.1755 16.1133 10.2467 16.0113C10.2669 15.9825 10.2971 15.9279 10.3376 15.7823C10.3656 15.682 10.3928 15.5607 10.426 15.4H9.00585C9.0039 15.4 9.00195 15.4 9 15.4C8.99805 15.4 8.9961 15.4 8.99415 15.4ZM5.4319 14.1794C5.76631 14.5049 5.9857 14.7487 6.10792 14.9565L6.19529 15.3934C6.2533 15.6835 6.30389 15.9365 6.36179 16.1444C6.42347 16.3659 6.50489 16.5816 6.64625 16.7841C6.85984 17.0901 7.15384 17.3311 7.49578 17.4805C7.72207 17.5794 7.94951 17.617 8.17879 17.634C8.39404 17.65 8.65199 17.65 8.94782 17.65H8.94789H9.05206H9.05213C9.34796 17.65 9.60591 17.65 9.82116 17.634C10.0504 17.617 10.2779 17.5794 10.5042 17.4805C10.8461 17.3311 11.1401 17.0901 11.3537 16.7841C11.4951 16.5816 11.5765 16.3659 11.6382 16.1444C11.6961 15.9365 11.7467 15.6835 11.8047 15.3934L11.892 14.9565C12.0143 14.7487 12.2336 14.5049 12.5681 14.1794C12.6593 14.0906 12.7588 13.996 12.8637 13.8962C13.1551 13.6191 13.4883 13.3023 13.8007 12.9614C14.6762 12.0062 15.525 10.7253 15.525 8.87498C15.525 5.27132 12.6036 2.34998 8.99998 2.34998C5.39632 2.34998 2.47498 5.27132 2.47498 8.87498C2.47498 10.7253 3.32376 12.0062 4.19924 12.9614C4.51169 13.3023 4.84482 13.6191 5.13627 13.8962L5.13637 13.8963C5.24124 13.9961 5.34072 14.0907 5.4319 14.1794Z" fill="#707480"/>
</svg>
