<svg width="19" height="18" viewBox="0 0 19 18" fill="none" xmlns="http://www.w3.org/2000/svg">
<path fill-rule="evenodd" clip-rule="evenodd" d="M6.54653 1.79999H12.4531C13.0591 1.79998 13.5548 1.79997 13.9576 1.83288C14.3745 1.86695 14.7511 1.93961 15.1027 2.11879C15.6531 2.39922 16.1006 2.84669 16.381 3.39707C16.5602 3.74873 16.6328 4.12529 16.6669 4.54223C16.6998 4.94499 16.6998 5.44055 16.6998 6.0465V6.04652V6.04654V6.04657V6.04659V6.04662V6.04669V11.9533V11.9534V11.9534V11.9534V11.9534V11.9535V11.9535C16.6998 12.5594 16.6998 13.055 16.6669 13.4578C16.6328 13.8747 16.5602 14.2512 16.381 14.6029C16.1006 15.1533 15.6531 15.6008 15.1027 15.8812C14.7511 16.0604 14.3745 16.133 13.9576 16.1671C13.5548 16.2 13.0592 16.2 12.4533 16.2H12.4533H12.4532H12.4532H12.4532H12.4532H12.4531H6.54651H6.54644H6.54641H6.54639H6.54636H6.54634H6.54631C5.94037 16.2 5.4448 16.2 5.04204 16.1671C4.62511 16.133 4.24855 16.0604 3.89688 15.8812C3.34651 15.6008 2.89904 15.1533 2.61861 14.6029C2.43943 14.2512 2.36677 13.8747 2.3327 13.4578C2.29979 13.0549 2.2998 12.5593 2.2998 11.9533V6.04671C2.2998 5.44067 2.29979 4.94503 2.3327 4.54223C2.36677 4.12529 2.43943 3.74873 2.61861 3.39707C2.89904 2.84669 3.34651 2.39922 3.89688 2.11879C4.24855 1.93961 4.62511 1.86695 5.04204 1.83288C5.44485 1.79997 5.94049 1.79998 6.54653 1.79999ZM5.15198 3.1784C4.81853 3.20564 4.63941 3.2556 4.50977 3.32165C4.21341 3.47265 3.97247 3.7136 3.82147 4.00995C3.75542 4.13959 3.70546 4.31871 3.67822 4.65216C3.67074 4.74367 3.66523 4.84229 3.66117 4.94999H15.3384C15.3344 4.84229 15.3289 4.74367 15.3214 4.65216C15.2941 4.31871 15.2442 4.13959 15.1781 4.00995C15.0271 3.7136 14.7862 3.47265 14.4898 3.32165C14.3602 3.2556 14.1811 3.20564 13.8476 3.1784C13.5063 3.15051 13.066 3.14999 12.4248 3.14999H6.57481C5.93361 3.14999 5.49331 3.15051 5.15198 3.1784ZM3.64981 11.925V6.29999H15.3498V11.925C15.3498 12.5662 15.3493 13.0065 15.3214 13.3478C15.2941 13.6813 15.2442 13.8604 15.1781 13.99C15.0271 14.2864 14.7862 14.5273 14.4898 14.6783C14.3602 14.7444 14.1811 14.7943 13.8476 14.8216C13.5063 14.8495 13.066 14.85 12.4248 14.85H6.57481C5.93361 14.85 5.49331 14.8495 5.15198 14.8216C4.81853 14.7943 4.63941 14.7444 4.50977 14.6783C4.21341 14.5273 3.97247 14.2864 3.82147 13.99C3.75542 13.8604 3.70546 13.6813 3.67822 13.3478C3.65033 13.0065 3.64981 12.5662 3.64981 11.925ZM6.3498 10.125C6.97112 10.125 7.4748 9.62131 7.4748 8.99999C7.4748 8.37867 6.97112 7.87499 6.3498 7.87499C5.72848 7.87499 5.2248 8.37867 5.2248 8.99999C5.2248 9.62131 5.72848 10.125 6.3498 10.125ZM7.4748 12.15C7.4748 12.7713 6.97112 13.275 6.3498 13.275C5.72848 13.275 5.2248 12.7713 5.2248 12.15C5.2248 11.5287 5.72848 11.025 6.3498 11.025C6.97112 11.025 7.4748 11.5287 7.4748 12.15ZM9.4998 10.125C10.1211 10.125 10.6248 9.62131 10.6248 8.99999C10.6248 8.37867 10.1211 7.87499 9.4998 7.87499C8.87848 7.87499 8.3748 8.37867 8.3748 8.99999C8.3748 9.62131 8.87848 10.125 9.4998 10.125ZM10.6248 12.15C10.6248 12.7713 10.1211 13.275 9.4998 13.275C8.87848 13.275 8.3748 12.7713 8.3748 12.15C8.3748 11.5287 8.87848 11.025 9.4998 11.025C10.1211 11.025 10.6248 11.5287 10.6248 12.15ZM12.6498 10.125C13.2711 10.125 13.7748 9.62131 13.7748 8.99999C13.7748 8.37867 13.2711 7.87499 12.6498 7.87499C12.0285 7.87499 11.5248 8.37867 11.5248 8.99999C11.5248 9.62131 12.0285 10.125 12.6498 10.125Z" fill="currentColor"/>
</svg>
