<svg width="16" height="20" viewBox="0 0 16 20" fill="none" xmlns="http://www.w3.org/2000/svg">
<path fill-rule="evenodd" clip-rule="evenodd" d="M13.58 4.42015C12.4866 3.32668 10.7137 3.32668 9.62023 4.42015L2.9355 11.1049C2.856 11.1844 2.80347 11.2807 2.77792 11.3823L1.62108 15.6429C1.56472 15.8504 1.62377 16.0723 1.77585 16.2244C1.92793 16.3764 2.14977 16.4355 2.35733 16.3791L6.62826 15.2195C6.73227 15.1912 6.82475 15.1362 6.89795 15.062L13.58 8.37995C14.6735 7.28648 14.6735 5.51362 13.58 4.42015ZM5.31474 14.3327L3.66753 12.6855L3.05357 14.9466L5.31474 14.3327ZM6.47104 13.7919L12.7315 7.53142C13.3563 6.90658 13.3563 5.89352 12.7315 5.26868C12.1067 4.64384 11.0936 4.64384 10.4688 5.26868L4.20829 11.5292L6.47104 13.7919Z" fill="#808080"/>
</svg>
