<svg width="19" height="18" viewBox="0 0 19 18" fill="none" xmlns="http://www.w3.org/2000/svg">
<g id="icon/outlined/chat-more">
<path id="Union" fill-rule="evenodd" clip-rule="evenodd" d="M17.3557 14.4527L17.3931 14.563L17.4095 14.6276C17.4966 15.0589 17.2693 15.4958 16.86 15.6693C16.7297 15.7245 16.5887 15.7494 16.4474 15.7419C15.2247 15.6777 14.2438 15.3808 13.5248 14.8306C12.8623 15.0581 12.1542 15.1765 11.4282 15.1765C10.6825 15.1765 9.95508 15.0516 9.27571 14.8111C8.92462 14.6868 8.74075 14.3015 8.86502 13.9504C8.9893 13.5993 9.37465 13.4154 9.72575 13.5397C10.2604 13.729 10.8357 13.8278 11.4282 13.8278C12.1226 13.8278 12.7926 13.692 13.4003 13.4352C13.6542 13.3278 13.948 13.3858 14.142 13.5817C14.4893 13.9324 15.0108 14.1788 15.7203 14.3063L15.8477 14.327C15.4914 13.4162 15.2944 12.7225 15.2596 12.22C15.2497 12.0767 15.2858 11.934 15.3627 11.8127C15.7124 11.2605 15.8967 10.6431 15.8967 10.0021C15.8967 9.07665 15.5105 8.19883 14.8117 7.50556C14.5473 7.24325 14.5456 6.81628 14.8079 6.55189C15.0702 6.28749 15.4972 6.2858 15.7616 6.54811C16.7083 7.48737 17.2455 8.70594 17.2455 10.0021C17.2455 10.8201 17.0317 11.6103 16.6296 12.3214C16.6957 12.7059 16.8814 13.2882 17.1889 14.0499L17.3557 14.4527ZM2.36953 9.74935L2.27801 9.58027C1.93531 8.91421 1.75378 8.18394 1.75378 7.4307C1.75378 4.54895 4.37965 2.25635 7.57099 2.25635C10.7623 2.25635 13.3882 4.54895 13.3882 7.4307C13.3882 10.3125 10.7623 12.6051 7.57099 12.6051C6.84507 12.6051 6.13691 12.4867 5.47446 12.2592C4.75546 12.8094 3.77457 13.1063 2.55181 13.1705C2.41057 13.1779 2.2695 13.1531 2.13929 13.0979C1.72997 12.9243 1.50268 12.4875 1.58974 12.0562L1.59006 12.0547L1.60681 11.9892L1.6442 11.8791L1.73013 11.6744C2.06111 10.8756 2.26798 10.2575 2.35281 9.83929L2.36953 9.74935ZM3.20787 11.6099L3.1513 11.7556L3.27871 11.735C3.98823 11.6074 4.50997 11.3609 4.85726 11.0103C5.05128 10.8144 5.34502 10.7564 5.59898 10.8637C6.20659 11.1206 6.87667 11.2563 7.57099 11.2563C10.0611 11.2563 12.0395 9.51883 12.0395 7.4307C12.0395 5.34258 10.0611 3.60506 7.57099 3.60506C5.0809 3.60506 3.10249 5.34258 3.10249 7.4307C3.10249 8.07166 3.28688 8.68908 3.63656 9.24123C3.7134 9.36256 3.7495 9.50526 3.7396 9.64853C3.70673 10.1241 3.52852 10.7707 3.20787 11.6099Z" fill="#707480"/>
</g>
</svg>
