<svg width="16" height="20" viewBox="0 0 16 20" fill="none" xmlns="http://www.w3.org/2000/svg">
<path fill-rule="evenodd" clip-rule="evenodd" d="M5.4001 3.60001C3.30142 3.60001 1.6001 5.30132 1.6001 7.40001V12C1.6001 12.6627 2.13736 13.2 2.8001 13.2V7.40001C2.8001 5.96407 3.96416 4.80001 5.4001 4.80001H11.2001C11.2001 4.13726 10.6628 3.60001 10.0001 3.60001H5.4001ZM6.2001 6.00001C4.98507 6.00001 4.0001 6.98498 4.0001 8.20001V14.2C4.0001 15.415 4.98507 16.4 6.2001 16.4H12.2001C13.4151 16.4 14.4001 15.415 14.4001 14.2V8.20001C14.4001 6.98498 13.4151 6.00001 12.2001 6.00001H6.2001ZM5.2001 8.20001C5.2001 7.64772 5.64781 7.20001 6.2001 7.20001H12.2001C12.7524 7.20001 13.2001 7.64772 13.2001 8.20001V14.2C13.2001 14.7523 12.7524 15.2 12.2001 15.2H6.2001C5.64781 15.2 5.2001 14.7523 5.2001 14.2V8.20001Z" fill="#707480"/>
</svg>
