<svg width="18" height="18" viewBox="0 0 18 18" fill="none" xmlns="http://www.w3.org/2000/svg">
<g id="icon/outlined/circle-export">
<path id="Union" fill-rule="evenodd" clip-rule="evenodd" d="M5.89663 3.51698C6.84086 2.9825 7.90971 2.69961 8.99998 2.69961C9.37277 2.69961 9.67498 2.3974 9.67498 2.02461C9.67498 1.65182 9.37277 1.34961 8.99998 1.34961C7.48695 1.34961 6.0079 1.79827 4.74987 2.63887C3.49183 3.47946 2.51131 4.67423 1.9323 6.07208C1.42495 7.29693 1.24584 8.6295 1.40786 9.93894C1.43075 10.1239 1.46044 10.3084 1.49697 10.492C1.51542 10.5848 1.53556 10.6771 1.55737 10.7688C1.88456 12.1452 2.58761 13.406 3.59061 14.409C3.72435 14.5427 3.86266 14.6711 4.00522 14.794C5.00315 15.6542 6.20908 16.2443 7.50754 16.5026C8.99149 16.7978 10.5297 16.6463 11.9275 16.0673C13.3254 15.4883 14.5201 14.5078 15.3607 13.2497C16.2013 11.9917 16.65 10.5126 16.65 8.99961C16.65 8.62682 16.3478 8.32461 15.975 8.32461C15.6022 8.32461 15.3 8.62682 15.3 8.99961C15.3 10.2456 14.9305 11.4637 14.2382 12.4997C14.1517 12.6292 14.0606 12.7551 13.9652 12.8773C13.3451 13.6714 12.5427 14.3061 11.6247 14.7268C11.5541 14.7592 11.4828 14.7902 11.4109 14.82C10.2597 15.2969 8.99299 15.4216 7.77091 15.1786C6.54883 14.9355 5.42628 14.3355 4.54521 13.4544C4.4535 13.3627 4.36484 13.2684 4.27931 13.1716C3.68059 12.4941 3.23527 11.6963 2.97268 10.8331C5.33869 11.3821 7.88357 10.9322 9.95678 9.48293C10.3485 9.20913 10.74 8.86213 11.25 8.36902V8.99961C11.25 9.3724 11.5522 9.67461 11.925 9.67461C12.2978 9.67461 12.6 9.3724 12.6 8.99961V6.75075C12.6 6.74999 12.6 6.74923 12.6 6.74847V6.07461H9.67498C9.30218 6.07461 8.99998 6.37682 8.99998 6.74961C8.99998 7.1224 9.30218 7.42461 9.67498 7.42461H10.2842C9.8166 7.87618 9.49612 8.15782 9.18333 8.37646C7.26358 9.71842 4.86492 10.0472 2.71042 9.36231C2.65597 8.41796 2.8147 7.46951 3.17954 6.5887C3.20934 6.51675 3.24043 6.44546 3.27279 6.37485C3.7582 5.31568 4.52861 4.41034 5.49989 3.76135C5.62939 3.67482 5.76174 3.59333 5.89663 3.51698ZM12.6 2.02461C12.6 1.65182 12.2978 1.34961 11.925 1.34961C11.5522 1.34961 11.25 1.65182 11.25 2.02461V3.03711C11.25 3.4099 11.5522 3.71211 11.925 3.71211C12.2978 3.71211 12.6 3.4099 12.6 3.03711V2.02461ZM15.2661 3.68812C15.5297 3.42452 15.5297 2.99713 15.2661 2.73353C15.0025 2.46993 14.5751 2.46993 14.3115 2.73353L13.5955 3.44948C13.3319 3.71308 13.3319 4.14047 13.5955 4.40407C13.8591 4.66767 14.2865 4.66767 14.5501 4.40407L15.2661 3.68812ZM14.9625 5.39961C14.5897 5.39961 14.2875 5.70182 14.2875 6.07461C14.2875 6.4474 14.5897 6.74961 14.9625 6.74961H15.975C16.3478 6.74961 16.65 6.4474 16.65 6.07461C16.65 5.70182 16.3478 5.39961 15.975 5.39961H14.9625Z" fill="white"/>
</g>
</svg>
