<svg width="18" height="18" viewBox="0 0 18 18" fill="none" xmlns="http://www.w3.org/2000/svg">
<path fill-rule="evenodd" clip-rule="evenodd" d="M2.7001 9.00001C2.7001 5.52061 5.5207 2.70001 9.0001 2.70001C12.4795 2.70001 15.3001 5.52061 15.3001 9.00001C15.3001 12.4794 12.4795 15.3 9.0001 15.3C5.5207 15.3 2.7001 12.4794 2.7001 9.00001ZM9.0001 1.35001C4.77512 1.35001 1.3501 4.77503 1.3501 9.00001C1.3501 13.225 4.77512 16.65 9.0001 16.65C13.2251 16.65 16.6501 13.225 16.6501 9.00001C16.6501 4.77503 13.2251 1.35001 9.0001 1.35001ZM9.0001 5.17501C9.37289 5.17501 9.6751 5.47721 9.6751 5.85001V8.61032L12.0656 9.99045C12.3884 10.1768 12.499 10.5897 12.3126 10.9125C12.1262 11.2354 11.7134 11.346 11.3906 11.1596L8.67294 9.59057C8.65258 9.57926 8.63286 9.56693 8.61386 9.55365C8.52745 9.49352 8.45896 9.41603 8.4104 9.32871C8.3677 9.25227 8.33943 9.16667 8.32928 9.0756C8.32593 9.04603 8.32451 9.01617 8.3251 8.98624V5.85001C8.3251 5.47721 8.62731 5.17501 9.0001 5.17501Z" fill="#707480"/>
</svg>
