<svg width="24" height="24" viewBox="0 0 24 24" fill="none" xmlns="http://www.w3.org/2000/svg">
<path fill-rule="evenodd" clip-rule="evenodd" d="M10.9581 2.71764C10.0254 2.65082 9.08913 2.77644 8.20619 3.08665C8.11435 3.11892 8.02328 3.15312 7.93305 3.1892C7.15588 3.50003 6.44067 3.95121 5.82251 4.52104C5.57273 4.75129 5.34067 4.99917 5.12791 5.26246C4.75301 5.72638 4.438 6.23813 4.19144 6.78554C3.92409 7.37907 3.741 8.0061 3.64625 8.64803C3.60401 8.93413 3.57932 9.22323 3.57254 9.51367C3.55093 10.439 3.71156 11.3595 4.04512 12.2215C3.35688 12.761 2.81956 13.4719 2.48536 14.2839C2.13799 15.128 2.02256 16.0508 2.15082 16.9552L2.15377 16.9745C2.35348 18.1922 2.97798 19.2995 3.91701 20.0941C4.85455 20.8874 6.0433 21.316 7.26833 21.2997H13.4998L13.5052 21.2997L15.0052 21.2907L15.0182 21.2904C15.4205 21.2822 15.8188 21.2392 16.2092 21.1629C16.697 21.0677 17.0153 20.595 16.9201 20.1072C16.8248 19.6193 16.3521 19.301 15.8643 19.3963C15.5768 19.4524 15.2836 19.4843 14.9875 19.4907L13.4998 19.4998L7.2621 19.4997L7.24896 19.4998C6.4588 19.5114 5.68908 19.2356 5.0797 18.72C4.4725 18.2062 4.06433 17.4877 3.93163 16.6928C3.85051 16.1085 3.92602 15.513 4.1499 14.969C4.37498 14.4221 4.74122 13.9486 5.20845 13.5975C5.21597 13.5919 5.2234 13.5861 5.23073 13.5803C5.52191 13.3469 5.72674 13.0242 5.81584 12.6637C5.90361 12.3086 5.87483 11.9344 5.73359 11.597C5.47882 10.9485 5.35574 10.2541 5.37205 9.55568C5.3771 9.33931 5.39549 9.12397 5.42695 8.91089C5.49753 8.43274 5.63385 7.96609 5.83263 7.52478C6.01596 7.11778 6.24993 6.73782 6.52792 6.39381C6.68568 6.19859 6.85761 6.01496 7.0425 5.84452C7.50005 5.42275 8.02847 5.08966 8.60148 4.86049C8.66802 4.83388 8.73515 4.80867 8.80286 4.78488C9.45356 4.55626 10.1429 4.46386 10.8294 4.51304C11.516 4.56221 12.1859 4.752 12.7988 5.07135C13.4118 5.39071 13.9552 5.83317 14.3959 6.37256C14.8365 6.91198 15.165 7.53705 15.3611 8.21011L15.3645 8.22142C15.4479 8.49439 15.5963 8.74367 15.7979 8.94704C15.9992 9.15012 16.2473 9.30124 16.5213 9.38617C17.627 9.73224 18.5849 10.4524 19.2336 11.4296C19.8812 12.4051 20.1808 13.5771 20.0812 14.7506C20.0329 15.2017 19.9283 15.6408 19.7725 16.0586C19.5628 16.6206 19.2603 17.1436 18.8771 17.6046L12.8963 11.6237H13.7236C14.2206 11.6237 14.6236 11.2208 14.6236 10.7237C14.6236 10.2267 14.2206 9.82373 13.7236 9.82373H9.82358V10.7196C9.82357 10.7224 9.82357 10.7252 9.82358 10.728V13.7237C9.82358 14.2208 10.2265 14.6237 10.7236 14.6237C11.2206 14.6237 11.6236 14.2208 11.6236 13.7237V12.8966L18.2466 19.5196C18.5814 19.8545 19.1185 19.8726 19.4751 19.561C19.5294 19.5136 19.583 19.4653 19.636 19.4161C20.4528 18.6571 21.0736 17.7204 21.4589 16.6879C21.6684 16.1265 21.8083 15.5365 21.8722 14.9312L21.8738 14.9142C22.0105 13.3338 21.6086 11.7527 20.7333 10.4341C19.8623 9.12204 18.5742 8.14792 17.08 7.67497C16.8156 6.78288 16.3772 5.95271 15.7899 5.23379C15.1956 4.5063 14.4611 3.90777 13.6306 3.47503C12.8 3.04226 11.8908 2.78445 10.9581 2.71764ZM16.5213 9.38617C16.5218 9.38631 16.5222 9.38646 16.5227 9.3866L16.7885 8.52674L16.5199 9.38574C16.5204 9.38588 16.5208 9.38603 16.5213 9.38617Z" fill="#707480"/>
</svg>
