<svg width="16" height="16" viewBox="0 0 16 16" fill="none" xmlns="http://www.w3.org/2000/svg">
<path fill-rule="evenodd" clip-rule="evenodd" d="M8.58113 2.34564C8.6615 2.02416 8.46604 1.6984 8.14456 1.61803C7.82309 1.53766 7.49732 1.73312 7.41695 2.0546L7.07577 3.41933C6.9954 3.74081 7.19086 4.06657 7.51234 4.14694C7.83381 4.22731 8.15957 4.03185 8.23994 3.71038L8.58113 2.34564ZM3.56357 1.60012C3.89495 1.60012 4.16357 1.86875 4.16357 2.20012V2.28254H4.24599C4.57736 2.28254 4.84599 2.55117 4.84599 2.88254C4.84599 3.21391 4.57736 3.48254 4.24599 3.48254H4.16357V3.56486C4.16357 3.89623 3.89495 4.16486 3.56357 4.16486C3.2322 4.16486 2.96357 3.89623 2.96357 3.56486V3.48254H2.88125C2.54988 3.48254 2.28125 3.21391 2.28125 2.88254C2.28125 2.55117 2.54988 2.28254 2.88125 2.28254H2.96357V2.20012C2.96357 1.86875 3.2322 1.60012 3.56357 1.60012ZM11.8344 2.88254C11.8344 2.55117 12.103 2.28254 12.4344 2.28254H12.5168V2.20012C12.5168 1.86875 12.7854 1.60012 13.1168 1.60012C13.4482 1.60012 13.7168 1.86875 13.7168 2.20012V2.28254H13.7991C14.1305 2.28254 14.3991 2.55117 14.3991 2.88254C14.3991 3.21391 14.1305 3.48254 13.7991 3.48254H13.7168V3.56486C13.7168 3.89623 13.4482 4.16486 13.1168 4.16486C12.7854 4.16486 12.5168 3.89623 12.5168 3.56486V3.48254H12.4344C12.103 3.48254 11.8344 3.21391 11.8344 2.88254ZM10.8115 5.18772C11.0458 5.42204 11.0458 5.80194 10.8115 6.03625L10.1291 6.71862C9.89483 6.95293 9.51493 6.95293 9.28062 6.71862C9.0463 6.4843 9.0463 6.10441 9.28062 5.87009L9.96299 5.18772C10.1973 4.95341 10.5772 4.95341 10.8115 5.18772ZM13.9447 8.58235C14.2662 8.50198 14.4616 8.17622 14.3812 7.85474C14.3009 7.53327 13.9751 7.33781 13.6536 7.41818L12.2889 7.75936C11.9674 7.83973 11.772 8.16549 11.8523 8.48697C11.9327 8.80845 12.2585 9.0039 12.5799 8.92353L13.9447 8.58235ZM11.8344 12.4356C11.8344 12.1042 12.103 11.8356 12.4344 11.8356H12.5168V11.7533C12.5168 11.4219 12.7854 11.1533 13.1168 11.1533C13.4482 11.1533 13.7168 11.4219 13.7168 11.7533V11.8356H13.7991C14.1305 11.8356 14.3991 12.1042 14.3991 12.4356C14.3991 12.767 14.1305 13.0356 13.7991 13.0356H13.7168V13.118C13.7168 13.4494 13.4482 13.718 13.1168 13.718C12.7854 13.718 12.5168 13.4494 12.5168 13.118V13.0356H12.4344C12.103 13.0356 11.8344 12.767 11.8344 12.4356Z" fill="currentColor"/>
<path fill-rule="evenodd" clip-rule="evenodd" d="M5.15187 5.70369C5.34523 5.66893 5.54336 5.73104 5.68228 5.86996L10.13 10.3176C10.2425 10.4302 10.3057 10.5828 10.3057 10.7419C10.3057 10.9765 10.169 11.1903 9.95567 11.288L3.41852 14.284C3.18033 14.3927 2.9146 14.4261 2.65692 14.3796C2.39924 14.3331 2.16193 14.209 1.97678 14.0238C1.79164 13.8387 1.6675 13.6014 1.621 13.3437C1.5745 13.086 1.60787 12.8203 1.71663 12.5821L4.71256 6.04427C4.79441 5.86567 4.95851 5.73844 5.15187 5.70369ZM5.44397 7.3287L2.80821 13.0805C2.80819 13.0806 2.80823 13.0805 2.80821 13.0805C2.80112 13.0962 2.79888 13.1137 2.80193 13.1306C2.80498 13.1475 2.81314 13.1631 2.82531 13.1753C2.83748 13.1875 2.85308 13.1956 2.87001 13.1987C2.88687 13.2017 2.90426 13.1996 2.91986 13.1925C2.91979 13.1925 2.91993 13.1925 2.91986 13.1925L8.67171 10.5564L5.44397 7.3287Z" fill="currentColor"/>
</svg>
