<svg width="16" height="16" viewBox="0 0 16 16" fill="none" xmlns="http://www.w3.org/2000/svg">
<path fill-rule="evenodd" clip-rule="evenodd" d="M5.39961 1.6001C3.30093 1.6001 1.59961 3.30142 1.59961 5.4001V10.0001C1.59961 10.6628 2.13687 11.2001 2.79961 11.2001V5.4001C2.79961 3.96416 3.96367 2.8001 5.39961 2.8001H11.1996C11.1996 2.13736 10.6624 1.6001 9.99961 1.6001H5.39961ZM6.19961 4.0001C4.98458 4.0001 3.99961 4.98507 3.99961 6.2001V12.2001C3.99961 13.4151 4.98458 14.4001 6.19961 14.4001H12.1996C13.4146 14.4001 14.3996 13.4151 14.3996 12.2001V6.2001C14.3996 4.98507 13.4146 4.0001 12.1996 4.0001H6.19961ZM5.19961 6.2001C5.19961 5.64781 5.64732 5.2001 6.19961 5.2001H12.1996C12.7519 5.2001 13.1996 5.64781 13.1996 6.2001V12.2001C13.1996 12.7524 12.7519 13.2001 12.1996 13.2001H6.19961C5.64732 13.2001 5.19961 12.7524 5.19961 12.2001V6.2001Z" fill="currentColor"/>
</svg>
