<svg width="18" height="18" viewBox="0 0 18 18" fill="none" xmlns="http://www.w3.org/2000/svg">
<g id="icon/outlined/diamond">
<path id="Union" fill-rule="evenodd" clip-rule="evenodd" d="M7.3767 2.24994H6.37684C6.35104 2.24994 6.32557 2.24992 6.3004 2.2499C5.86231 2.24961 5.51768 2.24938 5.19062 2.34023C4.90266 2.42022 4.63158 2.55169 4.39049 2.72829C4.11665 2.92888 3.90346 3.19966 3.63245 3.54386C3.61688 3.56364 3.60112 3.58365 3.58515 3.60391L1.94891 5.67925C1.8302 5.82978 1.7195 5.97017 1.63453 6.09609C1.54176 6.23356 1.45291 6.39143 1.40228 6.58413C1.32877 6.86395 1.33374 7.15861 1.41667 7.43579C1.47378 7.62667 1.56791 7.78145 1.66527 7.9157C1.75445 8.03868 1.86983 8.17525 1.99356 8.32169L7.40115 14.7232C7.57588 14.9301 7.73395 15.1172 7.87775 15.2603C8.0306 15.4124 8.21686 15.5667 8.4633 15.656C8.81008 15.7817 9.18998 15.7817 9.53676 15.656C9.7832 15.5667 9.96946 15.4124 10.1223 15.2603C10.2661 15.1172 10.4242 14.9301 10.5989 14.7232L16.0065 8.3217C16.1302 8.17526 16.2456 8.03869 16.3348 7.9157C16.4321 7.78145 16.5263 7.62667 16.5834 7.43579C16.6663 7.15862 16.6713 6.86395 16.5978 6.58413C16.5472 6.39143 16.4583 6.23356 16.3655 6.09609C16.2806 5.97017 16.1699 5.82979 16.0512 5.67925L14.4149 3.60391C14.3989 3.58365 14.3832 3.56364 14.3676 3.54386C14.0966 3.19966 13.8834 2.92888 13.6096 2.72829C13.3685 2.55169 13.0974 2.42022 12.8094 2.34023C12.4824 2.24938 12.1378 2.24961 11.6997 2.2499C11.6745 2.24992 11.649 2.24994 11.6232 2.24994H10.6234C10.6131 2.2497 10.6027 2.2497 10.5923 2.24994H7.40781C7.39742 2.2497 7.38705 2.2497 7.3767 2.24994ZM10.1486 3.59994H7.85154L6.77571 6.32899H11.2244L10.1486 3.59994ZM11.5997 3.59994L12.6755 6.32899H14.8443L13.3548 4.43974C13.0138 4.00732 12.9181 3.89523 12.8118 3.81737C12.7022 3.7371 12.579 3.67734 12.4481 3.64098C12.3212 3.60571 12.1739 3.59994 11.6232 3.59994H11.5997ZM14.7822 7.67899H12.6667L10.6243 12.6012L14.7822 7.67899ZM9.00007 12.993L11.2051 7.67899H6.79499L9.00007 12.993ZM5.33337 7.67899L7.37595 12.6013L3.21785 7.67899H5.33337ZM5.3246 6.32899L6.40043 3.59994H6.37684C5.82617 3.59994 5.67889 3.60571 5.55193 3.64098C5.42105 3.67734 5.29783 3.7371 5.18824 3.81737C5.08194 3.89523 4.98622 4.00731 4.64528 4.43974L3.15576 6.32899H5.3246Z" fill="#707480"/>
</g>
</svg>
