<svg width="16" height="16" viewBox="0 0 16 16" fill="none" xmlns="http://www.w3.org/2000/svg">
<path fill-rule="evenodd" clip-rule="evenodd" d="M8.0002 13.6002C11.093 13.6002 13.6002 11.093 13.6002 8.0002C13.6002 4.9074 11.093 2.4002 8.0002 2.4002C4.9074 2.4002 2.4002 4.9074 2.4002 8.0002C2.4002 11.093 4.9074 13.6002 8.0002 13.6002ZM8.0002 14.8002C11.7557 14.8002 14.8002 11.7557 14.8002 8.0002C14.8002 4.24466 11.7557 1.2002 8.0002 1.2002C4.24466 1.2002 1.2002 4.24466 1.2002 8.0002C1.2002 11.7557 4.24466 14.8002 8.0002 14.8002Z" fill="#34D393"/>
<path fill-rule="evenodd" clip-rule="evenodd" d="M10.6245 6.07593C10.8588 6.31025 10.8588 6.69015 10.6245 6.92446L7.62446 9.92446C7.39015 10.1588 7.01025 10.1588 6.77593 9.92446L5.37593 8.52446C5.14162 8.29015 5.14162 7.91025 5.37593 7.67593C5.61025 7.44162 5.99014 7.44162 6.22446 7.67593L7.2002 8.65167L9.77593 6.07593C10.0102 5.84162 10.3901 5.84162 10.6245 6.07593Z" fill="#34D393"/>
</svg>
