<svg xmlns="http://www.w3.org/2000/svg" width="17" height="16" viewBox="0 0 17 16" fill="none">
  <path fill-rule="evenodd" clip-rule="evenodd" d="M8.5002 14.8002C12.2557 14.8002 15.3002 11.7557 15.3002 8.0002C15.3002 4.24466 12.2557 1.2002 8.5002 1.2002C4.74466 1.2002 1.7002 4.24466 1.7002 8.0002C1.7002 11.7557 4.74466 14.8002 8.5002 14.8002ZM11.6893 6.68205C11.9705 6.40087 11.9705 5.94499 11.6893 5.66381C11.4081 5.38264 10.9523 5.38264 10.6711 5.66381L7.52565 8.80924L6.32931 7.6129C6.04813 7.33173 5.59226 7.33173 5.31108 7.6129C5.0299 7.89408 5.0299 8.34996 5.31108 8.63114L7.01653 10.3366C7.29771 10.6178 7.75359 10.6178 8.03477 10.3366L11.6893 6.68205Z" fill="#10B97B"/>
</svg>