<svg width="20" height="20" viewBox="0 0 20 20" fill="none" xmlns="http://www.w3.org/2000/svg">
<g id="icon/outlined/download">
<path id="Union" fill-rule="evenodd" clip-rule="evenodd" d="M10 2C10.4142 2 10.75 2.33579 10.75 2.75V10.4393L12.6517 8.5377C12.9445 8.2448 13.4194 8.2448 13.7123 8.5377C14.0052 8.83059 14.0052 9.30547 13.7123 9.59836L10 13.3107L6.28769 9.59836C5.9948 9.30547 5.9948 8.83059 6.28769 8.5377C6.58058 8.2448 7.05546 8.2448 7.34835 8.5377L9.25 10.4393L9.25 2.75C9.25 2.33579 9.58579 2 10 2ZM3.5 13.25C3.5 12.8358 3.16421 12.5 2.75 12.5C2.33579 12.5 2 12.8358 2 13.25V13.2814V13.2814C1.99999 13.9548 1.99998 14.5055 2.03655 14.9531C2.0744 15.4163 2.15514 15.8347 2.35423 16.2255C2.66582 16.837 3.16301 17.3342 3.77453 17.6458C4.16527 17.8449 4.58367 17.9256 5.04693 17.9634C5.4945 18 6.04521 18 6.71859 18H13.2814C13.9548 18 14.5055 18 14.9531 17.9634C15.4163 17.9256 15.8347 17.8449 16.2255 17.6458C16.837 17.3342 17.3342 16.837 17.6458 16.2255C17.8449 15.8347 17.9256 15.4163 17.9634 14.9531C18 14.5055 18 13.9548 18 13.2814V13.25C18 12.8358 17.6642 12.5 17.25 12.5C16.8358 12.5 16.5 12.8358 16.5 13.25C16.5 13.9624 16.4994 14.4517 16.4684 14.8309C16.4382 15.2014 16.3827 15.4004 16.3093 15.5445C16.1415 15.8738 15.8738 16.1415 15.5445 16.3093C15.4004 16.3827 15.2014 16.4382 14.8309 16.4684C14.4517 16.4994 13.9624 16.5 13.25 16.5H6.75C6.03756 16.5 5.54833 16.4994 5.16908 16.4684C4.79858 16.4382 4.59956 16.3827 4.45552 16.3093C4.12623 16.1415 3.85852 15.8738 3.69074 15.5445C3.61735 15.4004 3.56184 15.2014 3.53157 14.8309C3.50058 14.4517 3.5 13.9624 3.5 13.25Z" fill="#707480"/>
</g>
</svg>
