<svg width="20" height="20" viewBox="0 0 20 20" fill="none" xmlns="http://www.w3.org/2000/svg">
<g id="icon/outlined/edit-square">
<path id="Union" fill-rule="evenodd" clip-rule="evenodd" d="M7.49998 5.5C6.9477 5.5 6.49998 5.05228 6.49998 4.5C6.49998 3.94772 6.9477 3.5 7.49998 3.5C8.05227 3.5 8.49998 3.94772 8.49998 4.5C8.49998 5.05228 8.05227 5.5 7.49998 5.5ZM7.49998 7C6.38057 7 5.433 6.26428 5.11443 5.25H2.74998C2.33577 5.25 1.99998 4.91421 1.99998 4.5C1.99998 4.08579 2.33577 3.75 2.74998 3.75H5.11443C5.433 2.73572 6.38057 2 7.49998 2C8.61939 2 9.56696 2.73572 9.88553 3.75H17.25C17.6642 3.75 18 4.08579 18 4.5C18 4.91421 17.6642 5.25 17.25 5.25H9.88553C9.56696 6.26428 8.61939 7 7.49998 7ZM13.5 10C13.5 10.5523 13.0523 11 12.5 11C11.9477 11 11.5 10.5523 11.5 10C11.5 9.44772 11.9477 9 12.5 9C13.0523 9 13.5 9.44772 13.5 10ZM14.8855 10.75C14.567 11.7643 13.6194 12.5 12.5 12.5C11.3806 12.5 10.433 11.7643 10.1144 10.75H2.74998C2.33577 10.75 1.99998 10.4142 1.99998 10C1.99998 9.58579 2.33577 9.25 2.74998 9.25H10.1144C10.433 8.23572 11.3806 7.5 12.5 7.5C13.6194 7.5 14.567 8.23572 14.8855 9.25H17.25C17.6642 9.25 18 9.58579 18 10C18 10.4142 17.6642 10.75 17.25 10.75H14.8855ZM6.49998 15.5C6.49998 16.0523 6.9477 16.5 7.49998 16.5C8.05227 16.5 8.49998 16.0523 8.49998 15.5C8.49998 14.9477 8.05227 14.5 7.49998 14.5C6.9477 14.5 6.49998 14.9477 6.49998 15.5ZM5.11443 16.25C5.433 17.2643 6.38057 18 7.49998 18C8.61939 18 9.56696 17.2643 9.88553 16.25H17.25C17.6642 16.25 18 15.9142 18 15.5C18 15.0858 17.6642 14.75 17.25 14.75H9.88553C9.56696 13.7357 8.61939 13 7.49998 13C6.38057 13 5.433 13.7357 5.11443 14.75H2.74998C2.33577 14.75 1.99998 15.0858 1.99998 15.5C1.99998 15.9142 2.33577 16.25 2.74998 16.25H5.11443Z" fill="#808080"/>
</g>
</svg>
