<svg width="17" height="16" viewBox="0 0 17 16" fill="none" xmlns="http://www.w3.org/2000/svg">
<path fill-rule="evenodd" clip-rule="evenodd" d="M12.4598 4.0404C10.2729 1.85346 6.72713 1.85346 4.5402 4.0404C3.07504 5.50555 2.59071 7.58091 3.09009 9.45091C3.17559 9.77106 2.98537 10.0999 2.66521 10.1854C2.34506 10.2709 2.01622 10.0807 1.93072 9.76052C1.32536 7.49368 1.91137 4.97216 3.69167 3.19187C6.34723 0.536304 10.6528 0.536304 13.3083 3.19187C15.9639 5.84743 15.9639 10.153 13.3083 12.8085C11.528 14.5888 9.00651 15.1748 6.73966 14.5695C6.41951 14.484 6.22929 14.1551 6.31478 13.835C6.40028 13.5148 6.72912 13.3246 7.04928 13.4101C8.91928 13.9095 10.9946 13.4251 12.4598 11.96C14.6467 9.77306 14.6467 6.22733 12.4598 4.0404ZM6.04007 6.14026C6.04007 5.80889 6.3087 5.54026 6.64007 5.54026H10.9601V9.86026C10.9601 10.1916 10.6914 10.4603 10.3601 10.4603C10.0287 10.4603 9.76007 10.1916 9.76007 9.86026V7.58876L4.58421 12.7645C4.3499 12.9988 3.97 12.9988 3.73568 12.7645C3.50137 12.5302 3.50138 12.1503 3.73569 11.916L8.91152 6.74026H6.64007C6.3087 6.74026 6.04007 6.47163 6.04007 6.14026Z" fill="white"/>
</svg>
