<svg xmlns="http://www.w3.org/2000/svg" width="17" height="16" viewBox="0 0 17 16" fill="none">
  <path d="M8.5002 14.7998C12.2538 14.7998 15.3002 11.7534 15.3002 7.9998C15.3002 4.2462 12.2538 1.1998 8.5002 1.1998C4.7466 1.1998 1.7002 4.2462 1.7002 7.9998C1.7002 11.7534 4.7466 14.7998 8.5002 14.7998ZM8.5002 8.7998C8.10255 8.7998 7.7802 8.47745 7.7802 8.0798V5.1198C7.7802 4.72216 8.10255 4.3998 8.5002 4.3998C8.89784 4.3998 9.2202 4.72216 9.2202 5.1198V8.0798C9.2202 8.47745 8.89784 8.7998 8.5002 8.7998ZM8.5002 11.5998C8.05837 11.5998 7.7002 11.2416 7.7002 10.7998C7.7002 10.358 8.05837 9.9998 8.5002 9.9998C8.94202 9.9998 9.3002 10.358 9.3002 10.7998C9.3002 11.2416 8.94202 11.5998 8.5002 11.5998Z" fill="#EC4899"/>
</svg>