<svg width="20" height="20" viewBox="0 0 20 20" fill="none" xmlns="http://www.w3.org/2000/svg">
<path fill-rule="evenodd" clip-rule="evenodd" d="M17 10C17 6.13401 13.866 3 10 3C6.13405 3 3.00005 6.13401 3.00005 10C3.00005 13.866 6.13405 17 10 17C13.866 17 17 13.866 17 10ZM10 1.5C14.6945 1.5 18.5 5.30558 18.5 10C18.5 14.6944 14.6945 18.5 10 18.5C5.30562 18.5 1.50005 14.6944 1.50005 10C1.50005 5.30558 5.30562 1.5 10 1.5ZM9.10014 13C9.10014 13.4971 9.50131 13.9 9.99617 13.9H10.0041C10.499 13.9 10.9001 13.4971 10.9001 13C10.9001 12.503 10.499 12.1 10.0041 12.1H9.99617C9.50131 12.1 9.10014 12.503 9.10014 13ZM10.0003 11.1C10.4145 11.1 10.7503 10.7419 10.7503 10.3003V6.89969C10.7503 6.45802 10.4145 6.09998 10.0003 6.09998C9.58608 6.09998 9.25029 6.45802 9.25029 6.89969V10.3003C9.25029 10.7419 9.58608 11.1 10.0003 11.1Z" fill="#808080"/>
</svg>
