<svg xmlns="http://www.w3.org/2000/svg" width="20" height="20" viewBox="0 0 20 20" fill="none">
  <path fill-rule="evenodd" clip-rule="evenodd" d="M10.0001 5.625C5.81278 5.625 2.3722 8.82258 2.00309 12.9075C1.96581 13.32 2.27002 13.6847 2.68255 13.722C3.09509 13.7592 3.45973 13.455 3.497 13.0425C3.79661 9.72684 6.5926 7.125 10.0001 7.125C13.4075 7.125 16.2035 9.72684 16.5031 13.0425C16.5404 13.455 16.905 13.7592 17.3175 13.722C17.7301 13.6847 18.0343 13.32 17.997 12.9075C17.6279 8.82258 14.1874 5.625 10.0001 5.625ZM10 10.375C8.89543 10.375 8 11.2704 8 12.375C8 13.4796 8.89543 14.375 10 14.375C11.1046 14.375 12 13.4796 12 12.375C12 11.2704 11.1046 10.375 10 10.375Z" fill="#808080"/>
</svg>