<svg width="20" height="20" viewBox="0 0 20 20" fill="none" xmlns="http://www.w3.org/2000/svg">
<g id="icon/outlined/eye-show">
<path id="Union" fill-rule="evenodd" clip-rule="evenodd" d="M10.0057 4.50064C12.6448 4.50475 15.2866 6.34935 16.9243 9.99999C15.2865 13.6531 12.6411 15.498 10.0003 15.5H9.99824C7.3577 15.498 4.71375 13.6535 3.0751 9.99992C4.71283 6.3493 7.35548 4.50464 9.99384 4.50064L10.0057 4.50064ZM9.99713 17H10.0014C13.5169 16.9974 16.6755 14.4774 18.4477 10.2572C18.5174 10.0929 18.5174 9.90687 18.4477 9.74258C16.6746 5.52321 13.5178 3.00324 10.0022 3.00063L10.0014 3L9.99968 3.00063L9.99888 3L9.99713 3.00063C6.48242 3.00324 3.32471 5.52321 1.55164 9.74258C1.48279 9.90687 1.48279 10.0929 1.55164 10.2572C3.32471 14.4774 6.48157 16.9974 9.99713 17ZM8 10.0006C8 8.89501 8.89519 8.00012 9.99957 8.00012C11.1042 8.00012 12 8.89531 12 10.0006C12 11.1048 11.1044 12.0001 9.99957 12.0001C8.89504 12.0001 8 11.1051 8 10.0006ZM9.99957 6.50012C8.06646 6.50012 6.5 8.06689 6.5 10.0006C6.5 11.9335 8.06661 13.5001 9.99957 13.5001C11.9322 13.5001 13.5 11.9338 13.5 10.0006C13.5 8.06658 11.9324 6.50012 9.99957 6.50012Z" fill="#707480"/>
</g>
</svg>
