<svg width="14" height="14" viewBox="0 0 14 14" fill="none" xmlns="http://www.w3.org/2000/svg">
<path d="M7.00081 0.906006C7.1213 0.905928 7.23941 0.939579 7.34176 1.00315C7.44411 1.06672 7.52662 1.15767 7.57996 1.26571L9.19949 4.54867L12.8224 5.07531C12.9415 5.09262 13.0534 5.14291 13.1455 5.2205C13.2376 5.29809 13.3061 5.39989 13.3434 5.51439C13.3806 5.62889 13.3851 5.75152 13.3563 5.86843C13.3274 5.98534 13.2665 6.09186 13.1803 6.17594L10.5591 8.73174L11.1779 12.3391C11.1979 12.4577 11.1845 12.5796 11.139 12.691C11.0936 12.8024 11.018 12.8989 10.9207 12.9696C10.8234 13.0404 10.7083 13.0825 10.5883 13.0914C10.4683 13.1003 10.3482 13.0755 10.2416 13.0198L7.00081 11.3159L3.76003 13.0198C3.65348 13.0757 3.53342 13.1008 3.41339 13.0921C3.29337 13.0834 3.17816 13.0413 3.08079 12.9706C2.98341 12.8999 2.90774 12.8034 2.86233 12.692C2.81691 12.5805 2.80355 12.4586 2.82376 12.34L3.44335 8.73088L0.820428 6.17594C0.734001 6.09189 0.672845 5.98531 0.64389 5.86828C0.614935 5.75124 0.619339 5.62844 0.656603 5.51378C0.693866 5.39913 0.7625 5.2972 0.854726 5.21955C0.946952 5.1419 1.05908 5.09164 1.17841 5.07445L4.80128 4.54867L6.42167 1.26571C6.47501 1.15767 6.55752 1.06672 6.65987 1.00315C6.76222 0.939579 6.88033 0.905928 7.00081 0.906006Z" stroke="currentColor" stroke-width="1" fill="currentColor"/>
</svg>
