<svg width="17" height="16" viewBox="0 0 17 16" fill="none" xmlns="http://www.w3.org/2000/svg">
<path d="M8.50007 1.2002C12.2556 1.2002 15.3001 4.24466 15.3001 8.0002C15.3001 11.7557 12.2556 14.8002 8.50007 14.8002C4.74454 14.8002 1.70007 11.7557 1.70007 8.0002C1.70007 4.24466 4.74454 1.2002 8.50007 1.2002ZM6.10614 10.8005L3.64944 10.8005C4.42428 12.1398 5.73784 13.1284 7.29379 13.4699C6.76787 12.5942 6.37194 11.7043 6.10614 10.8005ZM13.3507 10.8005L10.894 10.8005C10.6282 11.7043 10.2323 12.5942 9.7072 13.4693C11.2623 13.1284 12.5759 12.1398 13.3507 10.8005ZM9.63607 10.8004H7.36407C7.62879 11.588 8.00714 12.3674 8.50007 13.1397C8.99301 12.3674 9.37136 11.588 9.63607 10.8004ZM5.83103 6.40057L3.13199 6.40016C2.9811 6.90714 2.90007 7.4442 2.90007 8.0002C2.90007 8.55648 2.98118 9.09382 3.13222 9.60103L5.83117 9.60063C5.74383 9.0716 5.70007 8.53806 5.70007 8.0002C5.70007 7.4626 5.74379 6.92933 5.83103 6.40057ZM9.95043 6.40019H7.04972C6.94986 6.92966 6.90007 7.46292 6.90007 8.0002C6.90007 8.53775 6.94991 9.07126 7.04987 9.601H9.95027C10.0502 9.07126 10.1001 8.53775 10.1001 8.0002C10.1001 7.46292 10.0503 6.92966 9.95043 6.40019ZM13.8682 6.40016L11.1691 6.40057C11.2564 6.92933 11.3001 7.4626 11.3001 8.0002C11.3001 8.53806 11.2563 9.0716 11.169 9.60063L13.8679 9.60103C14.019 9.09382 14.1001 8.55648 14.1001 8.0002C14.1001 7.4442 14.019 6.90714 13.8682 6.40016ZM7.29294 2.53114L7.1903 2.5542C5.67935 2.91627 4.40653 3.89081 3.64898 5.20066L6.10591 5.20073C6.3717 4.29666 6.76771 3.4065 7.29294 2.53114ZM8.50007 2.86071C8.00697 3.6332 7.62853 4.41296 7.3638 5.20082H9.63634C9.37161 4.41296 8.99317 3.6332 8.50007 2.86071ZM9.70636 2.53044L9.74786 2.59936C10.2529 3.45274 10.6353 4.32014 10.8942 5.20073L13.3512 5.20066C12.5764 3.86101 11.2626 2.8721 9.70636 2.53044Z" fill="#707480"/>
</svg>
