<svg xmlns="http://www.w3.org/2000/svg" width="20" height="21" viewBox="0 0 20 21" fill="none">
    <path d="M6.82845 16.7452C7.03326 16.5136 7.35919 16.4314 7.64932 16.5382C8.46246 16.8375 9.34083 16.9937 10.25 16.9937C14.0222 16.9937 17 14.2999 17 10.9937C17 7.68737 14.0222 4.99365 10.25 4.99365C6.47776 4.99365 3.5 7.68737 3.5 10.9937C3.5 12.2044 3.89926 13.3606 4.63941 14.3427C4.74548 14.4834 4.7986 14.657 4.78944 14.833C4.75014 15.5888 4.38697 16.618 3.70517 17.9675C5.18838 17.852 6.21926 17.434 6.82845 16.7452ZM3.24205 19.494C3.03326 19.5003 2.82641 19.4522 2.6418 19.3545C2.05391 19.0432 1.82968 18.3143 2.14095 17.7264C2.78485 16.5103 3.15699 15.5865 3.26217 14.9971C2.44334 13.8124 2 12.4336 2 10.9937C2 6.82354 5.681 3.49365 10.25 3.49365C14.819 3.49365 18.5 6.82354 18.5 10.9937C18.5 15.1638 14.819 18.4937 10.25 18.4937C9.33199 18.4937 8.43685 18.3597 7.59029 18.1005C6.59352 18.982 5.13438 19.4364 3.24205 19.494Z" fill="#707480"/>
</svg>