<svg width="18" height="19" viewBox="0 0 18 19" fill="none" xmlns="http://www.w3.org/2000/svg">
    <path d="M8.1 9.99375C8.1 9.62096 7.79779 9.31875 7.425 9.31875C7.05221 9.31875 6.75 9.62096 6.75 9.99375V13.1438C6.75 13.5165 7.05221 13.8188 7.425 13.8188C7.79779 13.8188 8.1 13.5165 8.1 13.1438V9.99375Z" fill="#707480"/>
    <path d="M11.25 9.99375C11.25 9.62096 10.9478 9.31875 10.575 9.31875C10.2022 9.31875 9.9 9.62096 9.9 9.99375V13.1438C9.9 13.5165 10.2022 13.8188 10.575 13.8188C10.9478 13.8188 11.25 13.5165 11.25 13.1438V9.99375Z" fill="#707480"/>
    <path fill-rule="evenodd" clip-rule="evenodd" d="M8.92351 2.34375H9.07649C9.36847 2.34374 9.62327 2.34373 9.83604 2.35943C10.0628 2.37615 10.2877 2.413 10.5119 2.5099C10.851 2.65644 11.1436 2.89294 11.3579 3.1938C11.4996 3.39274 11.5828 3.60494 11.6467 3.82316C11.7066 4.02793 11.76 4.27706 11.8211 4.56257L12.0207 5.49375L15.1364 5.49375L15.1362 5.49649C15.4803 5.52739 15.75 5.81658 15.75 6.16875C15.75 6.54154 15.4478 6.84375 15.075 6.84375H15.019L14.4171 13.7658C14.3686 14.3233 14.3289 14.7806 14.267 15.1518C14.2027 15.5372 14.1071 15.8828 13.919 16.2024C13.6233 16.7049 13.1841 17.1075 12.6579 17.3586C12.3232 17.5183 11.9706 17.5836 11.5811 17.6143C11.2059 17.6438 10.7469 17.6438 10.1874 17.6438H7.81296C7.25348 17.6438 6.7944 17.6438 6.41919 17.6143C6.0297 17.5836 5.67714 17.5183 5.34246 17.3586C4.81623 17.1075 4.37706 16.7049 4.08131 16.2024C3.89322 15.8828 3.79761 15.5372 3.73336 15.1518C3.67145 14.7806 3.63169 14.3233 3.58323 13.7659L2.98131 6.84375H2.925C2.55221 6.84375 2.25 6.54154 2.25 6.16875C2.25 5.81647 2.51987 5.52722 2.86415 5.49646L2.86392 5.49375L5.97932 5.49375L6.17885 4.56258C6.24003 4.27707 6.2934 4.02793 6.35333 3.82316C6.4172 3.60494 6.50035 3.39275 6.64209 3.1938C6.85642 2.89294 7.14897 2.65644 7.48806 2.5099C7.71229 2.413 7.9372 2.37615 8.16396 2.35943C8.37673 2.34373 8.63153 2.34374 8.92351 2.34375ZM4.3364 6.84375L4.92583 13.6221C4.9772 14.2129 5.01283 14.6171 5.06497 14.9298C5.11574 15.2343 5.17452 15.3983 5.24477 15.5176C5.40401 15.7882 5.64049 16.005 5.92385 16.1402C6.04883 16.1999 6.21728 16.2442 6.52503 16.2684C6.84107 16.2933 7.24686 16.2938 7.83983 16.2938H10.1605C10.7535 16.2938 11.1592 16.2933 11.4753 16.2684C11.783 16.2442 11.9515 16.1999 12.0765 16.1402C12.3598 16.005 12.5963 15.7882 12.7556 15.5176C12.8258 15.3983 12.8846 15.2343 12.9353 14.9298C12.9875 14.6171 13.0231 14.2129 13.0745 13.6221L13.6639 6.84375L11.7561 6.84376C11.7486 6.84376 11.7405 6.84377 11.7319 6.84375H6.26812C6.25951 6.84377 6.25139 6.84376 6.2439 6.84376L4.3364 6.84375ZM10.64 5.49375H7.35997L7.49414 4.8676C7.56144 4.55353 7.60472 4.35361 7.64898 4.20236C7.69086 4.05929 7.72132 4.00557 7.7416 3.9771C7.81305 3.87681 7.91056 3.79798 8.02359 3.74913C8.05568 3.73527 8.11459 3.71673 8.26326 3.70577C8.42042 3.69418 8.62497 3.69375 8.94618 3.69375H9.05382C9.37503 3.69375 9.57958 3.69418 9.73674 3.70577C9.88541 3.71673 9.94432 3.73527 9.97641 3.74913C10.0894 3.79798 10.187 3.87681 10.2584 3.9771C10.2787 4.00557 10.3091 4.05929 10.351 4.20236C10.3953 4.35361 10.4386 4.55353 10.5059 4.8676L10.64 5.49375Z" fill="#707480"/>
</svg>
