<svg width="16" height="16" viewBox="0 0 16 16" fill="none" xmlns="http://www.w3.org/2000/svg">
<path fill-rule="evenodd" clip-rule="evenodd" d="M13.6 8.0002C13.6 11.093 11.0927 13.6002 7.99995 13.6002C4.90716 13.6002 2.39995 11.093 2.39995 8.0002C2.39995 4.9074 4.90716 2.4002 7.99995 2.4002C11.0927 2.4002 13.6 4.9074 13.6 8.0002ZM14.8 8.0002C14.8 11.7557 11.7555 14.8002 7.99995 14.8002C4.24442 14.8002 1.19995 11.7557 1.19995 8.0002C1.19995 4.24466 4.24442 1.2002 7.99995 1.2002C11.7555 1.2002 14.8 4.24466 14.8 8.0002ZM8.73517 11.7825C8.73517 11.3778 8.40706 11.0497 8.00232 11.0497C7.59758 11.0497 7.26947 11.3778 7.26947 11.7825V11.8006C7.26947 12.2054 7.59758 12.5335 8.00232 12.5335C8.40706 12.5335 8.73517 12.2054 8.73517 11.8006V11.7825ZM10.3341 6.29481C10.3341 4.95333 9.27174 3.8668 7.96011 3.8668C7.00695 3.8668 6.23939 4.3861 5.83173 5.22562C5.79209 5.30724 5.75072 5.40143 5.70761 5.50818C5.70394 5.5173 5.7005 5.52651 5.69729 5.5358C5.59429 5.83433 5.75281 6.15984 6.05134 6.26284C6.35311 6.36696 6.68442 6.22322 6.81454 5.93171C6.87505 5.79616 6.92553 5.69676 6.96597 5.63352C7.17836 5.30138 7.54527 5.0808 7.96011 5.0808C8.61296 5.0808 9.14711 5.62711 9.14711 6.29481C9.14711 6.62866 9.00754 6.93617 8.79695 7.15069L8.06101 7.91551C7.73461 8.25397 7.5017 8.68805 7.40989 9.17176C7.39995 9.22417 7.39477 9.33499 7.39435 9.50424L7.39433 9.50571C7.39433 9.83694 7.66285 10.1055 7.99409 10.1055C8.3107 10.1055 8.5712 9.8562 8.58513 9.5399C8.58917 9.44815 8.59565 9.37928 8.60456 9.33329C8.70122 8.83423 8.93033 8.54843 9.24801 8.21901L9.78216 7.66057C10.1205 7.31458 10.3341 6.82898 10.3341 6.29481Z" fill="#707480"/>
</svg>
