<svg width="16" height="16" viewBox="0 0 16 16" fill="none" xmlns="http://www.w3.org/2000/svg">
<g id="icon/outlined/help">
<path id="Union" fill-rule="evenodd" clip-rule="evenodd" d="M13.6002 8.0002C13.6002 11.093 11.093 13.6002 8.0002 13.6002C4.9074 13.6002 2.4002 11.093 2.4002 8.0002C2.4002 4.9074 4.9074 2.4002 8.0002 2.4002C11.093 2.4002 13.6002 4.9074 13.6002 8.0002ZM14.8002 8.0002C14.8002 11.7557 11.7557 14.8002 8.0002 14.8002C4.24466 14.8002 1.2002 11.7557 1.2002 8.0002C1.2002 4.24466 4.24466 1.2002 8.0002 1.2002C11.7557 1.2002 14.8002 4.24466 14.8002 8.0002ZM8.73541 11.7825C8.73541 11.3778 8.4073 11.0497 8.00256 11.0497C7.59782 11.0497 7.26971 11.3778 7.26971 11.7825V11.8006C7.26971 12.2054 7.59782 12.5335 8.00256 12.5335C8.4073 12.5335 8.73541 12.2054 8.73541 11.8006V11.7825ZM10.3344 6.29481C10.3344 4.95333 9.27199 3.8668 7.96035 3.8668C7.00719 3.8668 6.23963 4.3861 5.83197 5.22562C5.79234 5.30724 5.75096 5.40143 5.70786 5.50818C5.70419 5.5173 5.70074 5.52651 5.69754 5.5358C5.59454 5.83433 5.75305 6.15984 6.05159 6.26284C6.35336 6.36696 6.68466 6.22322 6.81479 5.93171C6.8753 5.79616 6.92577 5.69676 6.96621 5.63352C7.17861 5.30138 7.54552 5.0808 7.96035 5.0808C8.6132 5.0808 9.14736 5.62711 9.14736 6.29481C9.14736 6.62866 9.00779 6.93617 8.79719 7.15069L8.06125 7.91551C7.73485 8.25397 7.50195 8.68805 7.41014 9.17176C7.40019 9.22416 7.39501 9.33499 7.3946 9.50424L7.39458 9.50571C7.39458 9.83694 7.6631 10.1055 7.99434 10.1055C8.31095 10.1055 8.57144 9.8562 8.58537 9.5399C8.58942 9.44815 8.59589 9.37928 8.6048 9.33329C8.70146 8.83423 8.93058 8.54843 9.24825 8.21901L9.7824 7.66057C10.1207 7.31458 10.3344 6.82898 10.3344 6.29481Z" fill="#707480"/>
</g>
</svg>
