<svg width="18" height="18" viewBox="0 0 18 18" fill="none" xmlns="http://www.w3.org/2000/svg">
<g id="icon/outlined/home-t">
<path id="Union" fill-rule="evenodd" clip-rule="evenodd" d="M7.25016 2.4005C7.75046 2.01134 8.3662 1.80005 9.00004 1.80005C9.6339 1.80005 10.2496 2.01136 10.7499 2.4005L15.0999 5.78479C15.0999 5.78477 15.0999 5.78481 15.0999 5.78479C15.4422 6.05106 15.7193 6.39198 15.9099 6.78151C16.1005 7.17095 16.1998 7.59883 16.2 8.03259V13.3501C16.2 14.106 15.8998 14.8309 15.3653 15.3653C14.8308 15.8999 14.1058 16.2 13.35 16.2H4.65005C3.89427 16.2 3.16934 15.8999 2.63481 15.3654C2.1003 14.8309 1.80005 14.1059 1.80005 13.3501V8.03295C1.80019 7.59913 1.89935 7.17086 2.08999 6.78118C2.28063 6.39149 2.55772 6.05046 2.90016 5.78409L7.25016 2.4005C7.25017 2.4005 7.25016 2.40051 7.25016 2.4005ZM9.00004 3.15005C8.66644 3.15005 8.34236 3.26126 8.07904 3.46609L3.72904 6.84967C3.72904 6.84967 3.72904 6.84966 3.72904 6.84967C3.54884 6.98984 3.40299 7.16934 3.30265 7.37443C3.20235 7.57947 3.15015 7.80469 3.15005 8.03295V13.3501C3.15005 13.7479 3.30809 14.1295 3.58936 14.4107C3.87061 14.692 4.25216 14.85 4.65005 14.85H13.35C13.7479 14.85 14.1294 14.6921 14.4107 14.4107C14.692 14.1295 14.85 13.7479 14.85 13.3501V8.0333C14.8499 7.80517 14.7977 7.57997 14.6973 7.3749C14.597 7.16993 14.4512 6.99054 14.2711 6.85041L9.92107 3.46611C9.92105 3.46609 9.92109 3.46612 9.92107 3.46611C9.6577 3.26128 9.33359 3.15005 9.00004 3.15005ZM6.51255 9.00009C6.51255 8.6273 6.81475 8.32509 7.18755 8.32509H10.8125C11.1853 8.32509 11.4875 8.6273 11.4875 9.00009C11.4875 9.37288 11.1853 9.67509 10.8125 9.67509H7.18755C6.81475 9.67509 6.51255 9.37288 6.51255 9.00009ZM6.51255 11.9001C6.51255 11.5273 6.81475 11.2251 7.18755 11.2251H10.8125C11.1853 11.2251 11.4875 11.5273 11.4875 11.9001C11.4875 12.2729 11.1853 12.5751 10.8125 12.5751H7.18755C6.81475 12.5751 6.51255 12.2729 6.51255 11.9001Z" fill="#707480"/>
</g>
</svg>
