<svg width="20" height="20" viewBox="0 0 20 20" fill="none" xmlns="http://www.w3.org/2000/svg">
<path fill-rule="evenodd" clip-rule="evenodd" d="M7.5179 2H10C10.4142 2 10.75 2.33579 10.75 2.75C10.75 3.16421 10.4142 3.5 10 3.5L7.55 3.5C6.69755 3.5 6.10331 3.50058 5.64068 3.53838C5.18681 3.57547 4.92604 3.6446 4.72852 3.74524C4.30516 3.96095 3.96095 4.30516 3.74524 4.72852C3.6446 4.92604 3.57547 5.18681 3.53838 5.64068C3.50058 6.10331 3.5 6.69755 3.5 7.55L3.5 12.45C3.5 13.003 3.50025 13.4474 3.51074 13.8177L6.0415 11.2869C7.11544 10.213 8.85665 10.213 9.93059 11.2869L11.611 12.9674L12.0832 12.4952C13.1571 11.4213 14.8983 11.4213 15.9723 12.4952L16.4994 13.0224C16.5 12.8454 16.5 12.6552 16.5 12.45V10C16.5 9.58579 16.8358 9.25 17.25 9.25C17.6642 9.25 18 9.58579 18 10V12.4821C18 13.295 18 13.9506 17.9566 14.4815C17.912 15.0281 17.8176 15.5082 17.5913 15.9525C17.2317 16.6581 16.6581 17.2317 15.9525 17.5913C15.5082 17.8176 15.0281 17.912 14.4815 17.9566C13.9506 18 13.295 18 12.4821 18H7.51788C6.70505 18 6.04944 18 5.51853 17.9566C4.9719 17.912 4.49175 17.8176 4.04754 17.5913C3.34193 17.2317 2.76825 16.6581 2.40873 15.9525C2.18239 15.5082 2.08803 15.0281 2.04336 14.4815C1.99999 13.9506 1.99999 13.295 2 12.4821V12.4821L2 7.5179V7.51788C1.99999 6.70505 1.99999 6.04944 2.04336 5.51853C2.08803 4.9719 2.18239 4.49175 2.40873 4.04754C2.76825 3.34193 3.34193 2.76825 4.04754 2.40873C4.49175 2.18239 4.9719 2.08803 5.51853 2.04336C6.04944 1.99999 6.70505 1.99999 7.51788 2H7.5179ZM4.72852 16.2548C4.39939 16.0871 4.11811 15.8417 3.90784 15.5419L7.10216 12.3476C7.59032 11.8594 8.38177 11.8594 8.86993 12.3476L13.0218 16.4994C12.8449 16.5 12.6549 16.5 12.45 16.5H7.55C6.69755 16.5 6.10331 16.4994 5.64068 16.4616C5.18681 16.4245 4.92604 16.3554 4.72852 16.2548ZM15.2715 16.2548C15.1935 16.2945 15.1056 16.3293 14.9999 16.3592C14.9875 16.3448 14.9745 16.3308 14.9608 16.3171L12.6717 14.028L13.1438 13.5559C13.632 13.0677 14.4234 13.0677 14.9116 13.5559L16.3168 14.9611C16.3305 14.9748 16.3446 14.9879 16.3591 15.0003C16.3292 15.1059 16.2945 15.1936 16.2548 15.2715C16.0391 15.6948 15.6948 16.0391 15.2715 16.2548ZM15.3636 4.08568C15.5157 3.93368 15.7621 3.93368 15.9141 4.08568C16.0661 4.23769 16.0661 4.48413 15.9141 4.63613L14.4619 6.08837C13.9374 6.61284 13.7366 6.80991 13.5148 6.96491C13.3039 7.11233 13.0762 7.23418 12.8366 7.3279C12.7605 7.35764 12.6824 7.38366 12.5903 7.4095C12.6161 7.31742 12.6421 7.23925 12.6719 7.16321C12.7656 6.92356 12.8875 6.69587 13.0349 6.48496C13.1899 6.26321 13.3869 6.06239 13.9114 5.53792L15.3636 4.08568ZM16.9748 3.02502C16.237 2.28723 15.0408 2.28723 14.303 3.02502L12.8508 4.47726L12.8028 4.52519C12.3422 4.98573 12.0451 5.28269 11.8054 5.62562C11.59 5.93389 11.4119 6.26665 11.2749 6.61692C11.1225 7.00659 11.0402 7.41846 10.9125 8.05721L10.8992 8.12369L10.8757 8.2416C10.8265 8.48749 10.9034 8.7417 11.0808 8.91901C11.2581 9.09633 11.5123 9.1733 11.7582 9.12412L11.8761 9.10054L11.9426 9.08725C12.5813 8.95958 12.9932 8.87726 13.3829 8.72489C13.7331 8.58791 14.0659 8.40982 14.3742 8.19436C14.7171 7.95466 15.014 7.65764 15.4746 7.19699L15.4746 7.19697L15.5225 7.14903L16.9748 5.69679C17.7126 4.959 17.7125 3.76281 16.9748 3.02502Z" fill="#808080"/>
</svg>
