<svg width="18" height="18" viewBox="0 0 18 18" fill="none" xmlns="http://www.w3.org/2000/svg">
<g id="icon/outlined/info-01">
<path id="Union" fill-rule="evenodd" clip-rule="evenodd" d="M5.49995 3.76184C6.53577 3.06973 7.75352 2.70025 8.99928 2.7001C10.6697 2.70209 12.2712 3.36655 13.4524 4.54775C14.6336 5.72892 15.298 7.33036 15.3 9.00077C15.2999 10.2466 14.9304 11.4643 14.2383 12.5002C13.546 13.5362 12.5621 14.3437 11.4109 14.8205C10.2598 15.2974 8.99305 15.4221 7.77097 15.179C6.54889 14.936 5.42634 14.3359 4.54527 13.4549C3.6642 12.5738 3.06418 11.4512 2.82109 10.2292C2.57801 9.00709 2.70277 7.74037 3.1796 6.58919C3.65643 5.43802 4.46392 4.45409 5.49995 3.76184ZM4.74993 2.63936C6.00796 1.79876 7.48701 1.3501 9.00004 1.3501C11.0283 1.35229 12.9728 2.15898 14.407 3.59315C15.8412 5.02733 16.6478 6.97186 16.65 9.0001C16.65 10.5131 16.2014 11.9922 15.3608 13.2502C14.5202 14.5082 13.3254 15.4888 11.9276 16.0678C10.5297 16.6468 8.99155 16.7983 7.5076 16.5031C6.02364 16.2079 4.66054 15.4793 3.59067 14.4095C2.5208 13.3396 1.79221 11.9765 1.49703 10.4925C1.20186 9.00858 1.35335 7.47042 1.93236 6.07257C2.51137 4.67471 3.49189 3.47995 4.74993 2.63936ZM9.00004 6.3001C9.49709 6.3001 9.90004 5.89715 9.90004 5.4001C9.90004 4.90304 9.49709 4.5001 9.00004 4.5001C8.50298 4.5001 8.10004 4.90304 8.10004 5.4001C8.10004 5.89715 8.50298 6.3001 9.00004 6.3001ZM7.65004 8.3251C7.65004 7.95231 7.95224 7.6501 8.32504 7.6501H8.77504C9.64489 7.6501 10.35 8.35525 10.35 9.2251V12.8251C10.35 13.1979 10.0478 13.5001 9.67504 13.5001C9.30224 13.5001 9.00004 13.1979 9.00004 12.8251V9.2251C9.00004 9.10083 8.8993 9.0001 8.77504 9.0001H8.32504C7.95224 9.0001 7.65004 8.69789 7.65004 8.3251Z" fill="#BCBDC2"/>
</g>
</svg>
