<svg width="20" height="20" viewBox="0 0 20 20" fill="none" xmlns="http://www.w3.org/2000/svg">
<g id="icon/outlined/keyboard-bots">
<path id="Union" fill-rule="evenodd" clip-rule="evenodd" d="M10.0331 2H9.96688C8.71814 2 7.73548 1.99999 6.9465 2.06375C6.14258 2.12871 5.47221 2.26362 4.86655 2.57222C3.8787 3.07555 3.07555 3.8787 2.57222 4.86655C2.26362 5.47221 2.12871 6.14258 2.06375 6.9465C1.99999 7.73548 2 8.71814 2 9.96688V10.0331C2 11.2819 1.99999 12.2645 2.06375 13.0535C2.12871 13.8574 2.26362 14.5278 2.57222 15.1335C3.07555 16.1213 3.8787 16.9244 4.86655 17.4278C5.47221 17.7364 6.14258 17.8713 6.9465 17.9363C7.73548 18 8.71812 18 9.96685 18H9.96689H10.0331H10.0332C11.2819 18 12.2645 18 13.0535 17.9363C13.8574 17.8713 14.5278 17.7364 15.1335 17.4278C16.1213 16.9244 16.9244 16.1213 17.4278 15.1335C17.7364 14.5278 17.8713 13.8574 17.9363 13.0535C18 12.2645 18 11.2819 18 10.0332V10.0331V9.96689V9.96685C18 8.71812 18 7.73548 17.9363 6.9465C17.8713 6.14258 17.7364 5.47221 17.4278 4.86655C16.9244 3.8787 16.1213 3.07555 15.1335 2.57222C14.5278 2.26362 13.8574 2.12871 13.0535 2.06375C12.2645 1.99999 11.2819 2 10.0331 2ZM5.54754 3.90873C5.90448 3.72685 6.3538 3.61653 7.06732 3.55887C7.78881 3.50057 8.71093 3.5 10 3.5C11.2891 3.5 12.2112 3.50057 12.9327 3.55887C13.6462 3.61653 14.0955 3.72685 14.4525 3.90873C15.1581 4.26825 15.7317 4.84193 16.0913 5.54754C16.2731 5.90448 16.3835 6.3538 16.4411 7.06732C16.4994 7.78881 16.5 8.71093 16.5 10C16.5 11.2891 16.4994 12.2112 16.4411 12.9327C16.3835 13.6462 16.2731 14.0955 16.0913 14.4525C15.7317 15.1581 15.1581 15.7317 14.4525 16.0913C14.0955 16.2731 13.6462 16.3835 12.9327 16.4411C12.2112 16.4994 11.2891 16.5 10 16.5C8.71093 16.5 7.78881 16.4994 7.06732 16.4411C6.3538 16.3835 5.90448 16.2731 5.54754 16.0913C4.84193 15.7317 4.26825 15.1581 3.90873 14.4525C3.72685 14.0955 3.61653 13.6462 3.55887 12.9327C3.50057 12.2112 3.5 11.2891 3.5 10C3.5 8.71093 3.50057 7.78881 3.55887 7.06732C3.61653 6.3538 3.72685 5.90448 3.90873 5.54754C4.26825 4.84193 4.84193 4.26825 5.54754 3.90873ZM9.3 12.1C9.3 11.3268 8.6732 10.7 7.9 10.7C7.1268 10.7 6.5 11.3268 6.5 12.1C6.5 12.8732 7.1268 13.5 7.9 13.5C8.6732 13.5 9.3 12.8732 9.3 12.1ZM13.5 12.1C13.5 11.3268 12.8732 10.7 12.1 10.7C11.3268 10.7 10.7 11.3268 10.7 12.1C10.7 12.8732 11.3268 13.5 12.1 13.5C12.8732 13.5 13.5 12.8732 13.5 12.1ZM9.3 7.9C9.3 7.1268 8.6732 6.5 7.9 6.5C7.1268 6.5 6.5 7.1268 6.5 7.9C6.5 8.6732 7.1268 9.3 7.9 9.3C8.6732 9.3 9.3 8.6732 9.3 7.9ZM13.5 7.9C13.5 7.1268 12.8732 6.5 12.1 6.5C11.3268 6.5 10.7 7.1268 10.7 7.9C10.7 8.6732 11.3268 9.3 12.1 9.3C12.8732 9.3 13.5 8.6732 13.5 7.9Z" fill="#808080"/>
</g>
</svg>
