<svg width="18" height="18" viewBox="0 0 18 18" fill="none" xmlns="http://www.w3.org/2000/svg">
<g id="icon/outlined/library">
<path id="Union" fill-rule="evenodd" clip-rule="evenodd" d="M7.36876 1.7998H5.32762H5.32761C4.84688 1.7998 4.44562 1.79979 4.11781 1.82657C3.77592 1.8545 3.45493 1.9149 3.15139 2.06956C2.68569 2.30685 2.30706 2.68548 2.06978 3.15118C1.91512 3.45472 1.85472 3.77571 1.82678 4.1176C1.8 4.44541 1.80001 4.84667 1.80002 5.3274V5.32741V10.8722V10.8722C1.80001 11.3529 1.8 11.7542 1.82678 12.082C1.85472 12.4239 1.91512 12.7449 2.06978 13.0484C2.30706 13.5141 2.68569 13.8928 3.15139 14.13C3.45493 14.2847 3.77592 14.3451 4.11781 14.373C4.44561 14.3998 4.84686 14.3998 5.32757 14.3998H5.32761H6.09205C6.59672 14.3998 6.73159 14.4047 6.84954 14.4349C6.9711 14.466 7.08661 14.5172 7.19127 14.5864C7.29283 14.6535 7.38703 14.7502 7.72593 15.1241L8.49709 15.975C8.53215 16.0142 8.57189 16.0494 8.61569 16.0798C8.63309 16.0918 8.65098 16.103 8.6693 16.1133C8.77036 16.1701 8.8844 16.1998 9.00001 16.1998C9.0717 16.1999 9.144 16.1884 9.21418 16.1649C9.2564 16.1508 9.29731 16.1325 9.33624 16.1101C9.36441 16.094 9.39117 16.0759 9.4164 16.0561C9.4477 16.0316 9.47663 16.0044 9.50292 15.975L10.2741 15.1241C10.613 14.7502 10.7072 14.6535 10.8087 14.5864C10.9134 14.5172 11.0289 14.466 11.1505 14.4349C11.2684 14.4047 11.4033 14.3998 11.908 14.3998H12.6724H12.6724C13.1532 14.3998 13.5544 14.3998 13.8822 14.373C14.2241 14.3451 14.5451 14.2847 14.8486 14.13C15.3143 13.8928 15.6929 13.5141 15.9302 13.0484C16.0849 12.7449 16.1453 12.4239 16.1732 12.082C16.2 11.7542 16.2 11.3529 16.2 10.8722V5.32741C16.2 4.84668 16.2 4.44541 16.1732 4.1176C16.1453 3.77571 16.0849 3.45472 15.9302 3.15118C15.6929 2.68548 15.3143 2.30685 14.8486 2.06956C14.5451 1.9149 14.2241 1.8545 13.8822 1.82657C13.5544 1.79979 13.1531 1.7998 12.6724 1.7998H12.6724H10.6313C9.99415 1.7998 9.41739 2.05814 9.00001 2.47577C8.58262 2.05814 8.00586 1.7998 7.36876 1.7998ZM9.67501 4.10424L9.67501 4.10606L9.675 13.7864C9.80152 13.6602 9.92601 13.5516 10.0642 13.4602C10.2945 13.308 10.5486 13.1954 10.816 13.127C11.1196 13.0493 11.436 13.0495 11.8381 13.0498H11.8381L11.908 13.0498H12.645C13.1602 13.0498 13.506 13.0493 13.7723 13.0275C14.0307 13.0064 14.1542 12.9687 14.2357 12.9272C14.4474 12.8193 14.6195 12.6472 14.7274 12.4355C14.7689 12.354 14.8066 12.2305 14.8277 11.9721C14.8495 11.7058 14.85 11.36 14.85 10.8448V5.35481C14.85 4.83962 14.8495 4.49383 14.8277 4.22754C14.8066 3.96912 14.7689 3.84557 14.7274 3.76407C14.6195 3.55238 14.4474 3.38028 14.2357 3.27242C14.1542 3.23089 14.0307 3.1932 13.7723 3.17209C13.506 3.15033 13.1602 3.14981 12.645 3.14981H10.6313C10.1037 3.14981 9.67598 3.57695 9.67501 4.10424ZM8.32501 4.10424C8.32403 3.57695 7.89628 3.14981 7.36876 3.14981H5.35501C4.83983 3.14981 4.49404 3.15033 4.22775 3.17209C3.96933 3.1932 3.84578 3.23089 3.76428 3.27242C3.55259 3.38028 3.38049 3.55238 3.27263 3.76407C3.23111 3.84557 3.19341 3.96912 3.1723 4.22754C3.15054 4.49383 3.15002 4.83962 3.15002 5.35481V10.8448C3.15002 11.36 3.15054 11.7058 3.1723 11.9721C3.19341 12.2305 3.23111 12.354 3.27263 12.4355C3.38049 12.6472 3.55259 12.8193 3.76428 12.9272C3.84578 12.9687 3.96933 13.0064 4.22775 13.0275C4.49404 13.0493 4.83983 13.0498 5.35501 13.0498H6.09205L6.16188 13.0498H6.1619C6.56399 13.0495 6.88043 13.0493 7.18401 13.127C7.45144 13.1954 7.70555 13.308 7.93581 13.4602C8.074 13.5516 8.19849 13.6602 8.32501 13.7864V4.10606L8.32501 4.10424ZM10.9125 5.0578C10.9125 4.68501 11.2147 4.3828 11.5875 4.3828H12.9375C13.3103 4.3828 13.6125 4.68501 13.6125 5.0578C13.6125 5.43059 13.3103 5.7328 12.9375 5.7328H11.5875C11.2147 5.7328 10.9125 5.43059 10.9125 5.0578ZM11.5875 6.4078C11.2147 6.4078 10.9125 6.71001 10.9125 7.0828C10.9125 7.45559 11.2147 7.7578 11.5875 7.7578H12.9375C13.3103 7.7578 13.6125 7.45559 13.6125 7.0828C13.6125 6.71001 13.3103 6.4078 12.9375 6.4078H11.5875Z" fill="#707480"/>
</g>
</svg>
