<svg width="16" height="16" viewBox="0 0 16 16" fill="none" xmlns="http://www.w3.org/2000/svg">
<path fill-rule="evenodd" clip-rule="evenodd" d="M3.4002 7.00001C3.4002 4.4595 5.45969 2.40001 8.0002 2.40001C10.5407 2.40001 12.6002 4.4595 12.6002 7.00001C12.6002 8.22717 12.0547 9.08859 11.3829 9.82156C11.1351 10.0919 10.8855 10.3292 10.6357 10.5668L10.6357 10.5668C10.5354 10.6622 10.4351 10.7576 10.3348 10.8552C10.1022 11.0816 9.85892 11.3298 9.66579 11.6H8.60022V10.2884L9.37503 9.66856C9.63379 9.46155 9.67574 9.08397 9.46874 8.82522C9.26173 8.56646 8.88416 8.52451 8.6254 8.73151L8.00022 9.23166L7.37503 8.73151C7.11628 8.52451 6.7387 8.56646 6.5317 8.82522C6.32469 9.08397 6.36664 9.46155 6.6254 9.66856L7.40022 10.2884V11.6H6.3346C6.14148 11.3298 5.89818 11.0816 5.66557 10.8552C5.5653 10.7576 5.46496 10.6622 5.36466 10.5668L5.36462 10.5667C5.11484 10.3292 4.86529 10.0919 4.61751 9.82156C3.94572 9.08859 3.4002 8.22717 3.4002 7.00001ZM7.99503 12.8H6.73264C6.76217 12.9429 6.78634 13.0507 6.81116 13.1398C6.8472 13.2693 6.87408 13.3178 6.89197 13.3434C6.95526 13.4341 7.04237 13.5055 7.14368 13.5498C7.17232 13.5623 7.22521 13.5792 7.3592 13.5891C7.50073 13.5996 7.68504 13.6 7.97422 13.6H8.02617C8.31536 13.6 8.49967 13.5996 8.64119 13.5891C8.77518 13.5792 8.82807 13.5623 8.85671 13.5498C8.95802 13.5055 9.04513 13.4341 9.10842 13.3434C9.12631 13.3178 9.15319 13.2693 9.18923 13.1398C9.21405 13.0507 9.23822 12.9429 9.26775 12.8H8.0054C8.00368 12.8 8.00195 12.8 8.00022 12.8C7.99849 12.8 7.99676 12.8 7.99503 12.8ZM4.82857 11.7151C5.12582 12.0044 5.32084 12.2211 5.42948 12.4058L5.50715 12.7942C5.55871 13.052 5.60367 13.2769 5.65514 13.4617C5.70997 13.6586 5.78234 13.8503 5.90799 14.0303C6.09786 14.3023 6.35918 14.5165 6.66313 14.6494C6.86428 14.7373 7.06645 14.7707 7.27025 14.7858C7.4616 14.8 7.69091 14.8 7.95388 14.8H7.9539H8.04649H8.04651C8.30948 14.8 8.53879 14.8 8.73014 14.7858C8.93394 14.7707 9.13611 14.7373 9.33726 14.6494C9.64121 14.5165 9.90254 14.3023 10.0924 14.0303C10.218 13.8503 10.2904 13.6586 10.3452 13.4617C10.3967 13.2769 10.4417 13.052 10.4933 12.7941L10.5709 12.4058C10.6796 12.2211 10.8746 12.0044 11.1718 11.7151C11.2529 11.6362 11.3413 11.552 11.4346 11.4634L11.4347 11.4633C11.6937 11.217 11.9898 10.9354 12.2675 10.6324C13.0457 9.78331 13.8002 8.64474 13.8002 7.00001C13.8002 3.79676 11.2034 1.20001 8.0002 1.20001C4.79694 1.20001 2.2002 3.79676 2.2002 7.00001C2.2002 8.64474 2.95467 9.78331 3.73288 10.6324C4.0106 10.9354 4.30671 11.217 4.56577 11.4633L4.56579 11.4634C4.65905 11.552 4.7475 11.6362 4.82857 11.7151Z" fill="white"/>
</svg>
