<svg width="20" height="21" viewBox="0 0 20 21" fill="none" xmlns="http://www.w3.org/2000/svg">
    <path fill-rule="evenodd" clip-rule="evenodd" d="M6.78033 4.21332C7.07322 4.50621 7.07322 4.98109 6.78033 5.27398L4.53198 7.52235C4.38709 7.66723 4.19768 7.74045 4.00779 7.74199C3.8134 7.74389 3.61842 7.67068 3.4701 7.52236L2.21967 6.27193C1.92678 5.97904 1.92678 5.50416 2.21967 5.21127C2.51256 4.91838 2.98744 4.91838 3.28033 5.21127L4.00103 5.93197L5.71967 4.21332C6.01256 3.92043 6.48743 3.92043 6.78033 4.21332ZM8.75 5.11786C8.33579 5.11786 8 5.45365 8 5.86786C8 6.28207 8.33579 6.61786 8.75 6.61786H17.25C17.6642 6.61786 18 6.28207 18 5.86786C18 5.45365 17.6642 5.11786 17.25 5.11786H8.75ZM6.78033 9.33911C7.07322 9.63201 7.07322 10.1069 6.78033 10.3998L4.53198 12.6481C4.38709 12.793 4.19768 12.8662 4.00779 12.8678C3.8134 12.8697 3.61842 12.7965 3.4701 12.6482L2.21967 11.3977C1.92678 11.1048 1.92678 10.63 2.21967 10.3371C2.51256 10.0442 2.98744 10.0442 3.28033 10.3371L4.00103 11.0578L5.71967 9.33912C6.01256 9.04622 6.48743 9.04622 6.78033 9.33911ZM8 10.9937C8 10.5794 8.33579 10.2437 8.75 10.2437H17.25C17.6642 10.2437 18 10.5794 18 10.9937C18 11.4079 17.6642 11.7437 17.25 11.7437H8.75C8.33579 11.7437 8 11.4079 8 10.9937ZM6.78033 15.5256C7.07322 15.2327 7.07322 14.7578 6.78033 14.4649C6.48743 14.172 6.01256 14.172 5.71967 14.4649L4.00103 16.1836L3.28033 15.4629C2.98744 15.17 2.51256 15.17 2.21967 15.4629C1.92678 15.7557 1.92678 16.2306 2.21967 16.5235L3.4701 17.7739C3.61842 17.9223 3.8134 17.9955 4.00779 17.9936C4.19768 17.992 4.38709 17.9188 4.53198 17.7739L6.78033 15.5256ZM8.75 15.3694C8.33579 15.3694 8 15.7052 8 16.1194C8 16.5337 8.33579 16.8694 8.75 16.8694H17.25C17.6642 16.8694 18 16.5337 18 16.1194C18 15.7052 17.6642 15.3694 17.25 15.3694H8.75Z" fill="white"/>
</svg>