<svg xmlns="http://www.w3.org/2000/svg" width="17" height="16" viewBox="0 0 17 16" fill="none">
  <path fill-rule="evenodd" clip-rule="evenodd" d="M7.9002 1.8002C7.9002 1.46882 8.16882 1.2002 8.5002 1.2002C8.83157 1.2002 9.1002 1.46882 9.1002 1.8002V3.4002C9.1002 3.73157 8.83157 4.0002 8.5002 4.0002C8.16882 4.0002 7.9002 3.73157 7.9002 3.4002V1.8002ZM1.7002 8.0002C1.7002 8.33157 1.96882 8.6002 2.3002 8.6002H3.9002C4.23157 8.6002 4.5002 8.33157 4.5002 8.0002C4.5002 7.66882 4.23157 7.4002 3.9002 7.4002H2.3002C1.96882 7.4002 1.7002 7.66882 1.7002 8.0002ZM12.5002 8.0002C12.5002 8.33157 12.7688 8.6002 13.1002 8.6002H14.7002C15.0316 8.6002 15.3002 8.33157 15.3002 8.0002C15.3002 7.66882 15.0316 7.4002 14.7002 7.4002H13.1002C12.7688 7.4002 12.5002 7.66882 12.5002 8.0002ZM3.69185 4.04028C3.45753 3.80596 3.45753 3.42607 3.69185 3.19175C3.92616 2.95744 4.30606 2.95744 4.54038 3.19175L5.67175 4.32312C5.90606 4.55744 5.90606 4.93734 5.67175 5.17165C5.43743 5.40597 5.05753 5.40597 4.82322 5.17165L3.69185 4.04028ZM11.3286 11.677C11.0943 11.4427 11.0943 11.0628 11.3286 10.8285C11.5629 10.5942 11.9428 10.5942 12.1771 10.8285L13.3085 11.9599C13.5428 12.1942 13.5428 12.5741 13.3085 12.8084C13.0742 13.0427 12.6943 13.0427 12.46 12.8084L11.3286 11.677ZM11.3286 5.17165C11.5629 5.40597 11.9428 5.40596 12.1771 5.17165L13.3085 4.04028C13.5428 3.80597 13.5428 3.42607 13.3085 3.19175C13.0742 2.95744 12.6943 2.95744 12.46 3.19175L11.3286 4.32312C11.0943 4.55744 11.0943 4.93734 11.3286 5.17165ZM3.69185 12.8084C3.92616 13.0427 4.30606 13.0427 4.54038 12.8084L5.67175 11.677C5.90606 11.4427 5.90606 11.0628 5.67175 10.8285C5.43743 10.5942 5.05753 10.5942 4.82322 10.8285L3.69185 11.9599C3.45753 12.1942 3.45753 12.5741 3.69185 12.8084ZM8.5002 12.0002C8.16882 12.0002 7.9002 12.2688 7.9002 12.6002V14.2002C7.9002 14.5316 8.16882 14.8002 8.5002 14.8002C8.83157 14.8002 9.1002 14.5316 9.1002 14.2002V12.6002C9.1002 12.2688 8.83157 12.0002 8.5002 12.0002Z" fill="#0EA5E9"/>
</svg>