<svg width="16" height="16" viewBox="0 0 16 16" fill="none" xmlns="http://www.w3.org/2000/svg">
<path d="M3.61941 5.19209C3.49082 5.26006 3.3517 5.12095 3.41967 4.99235L4.15264 3.60573L3.41967 2.2191C3.3517 2.09051 3.49082 1.95139 3.61941 2.01936L5.00604 2.75233L6.39266 2.01936C6.52125 1.95139 6.66037 2.09051 6.5924 2.2191L5.85944 3.60573L6.5924 4.99235C6.66037 5.12095 6.52125 5.26006 6.39266 5.19209L5.00604 4.45913L3.61941 5.19209Z" fill="currentColor"/>
<path d="M12.396 4.08963L11.0094 4.82259C10.8808 4.89057 10.7416 4.75145 10.8096 4.62286L11.5426 3.23623L10.8096 1.8496C10.7416 1.72101 10.8808 1.58189 11.0094 1.64987L12.396 2.38283L13.7826 1.64987C13.9112 1.58189 14.0503 1.72101 13.9823 1.8496L13.2494 3.23623L13.9823 4.62286C14.0503 4.75145 13.9112 4.89057 13.7826 4.82259L12.396 4.08963Z" fill="currentColor"/>
<path d="M11.0094 11.843C10.8808 11.911 10.7416 11.7719 10.8096 11.6433L11.5426 10.2567L10.8096 8.87005C10.7416 8.74146 10.8808 8.60234 11.0094 8.67032L12.396 9.40328L13.7826 8.67032C13.9112 8.60234 14.0503 8.74146 13.9823 8.87005L13.2494 10.2567L13.9823 11.6433C14.0503 11.7719 13.9112 11.911 13.7826 11.843L12.396 11.1101L11.0094 11.843Z" fill="currentColor"/>
<path fill-rule="evenodd" clip-rule="evenodd" d="M9.35603 6.64567C9.61577 6.9054 9.61577 7.32652 9.35603 7.58625L2.33558 14.6067C2.07585 14.8664 1.65473 14.8664 1.395 14.6067C1.13526 14.347 1.13526 13.9259 1.395 13.6661L8.41545 6.64567C8.67518 6.38593 9.0963 6.38593 9.35603 6.64567Z" fill="currentColor"/>
</svg>
