<svg width="19" height="18" viewBox="0 0 19 18" fill="none" xmlns="http://www.w3.org/2000/svg">
<path fill-rule="evenodd" clip-rule="evenodd" d="M3.65005 7.87505C3.65005 5.2655 5.7655 3.15005 8.37505 3.15005C10.9846 3.15005 13.1 5.2655 13.1 7.87505C13.1 10.4846 10.9846 12.6 8.37505 12.6C5.7655 12.6 3.65005 10.4846 3.65005 7.87505ZM8.37505 1.80005C5.01992 1.80005 2.30005 4.51992 2.30005 7.87505C2.30005 11.2302 5.01992 13.95 8.37505 13.95C9.80943 13.95 11.1277 13.4529 12.167 12.6216L15.5478 16.0023C15.8114 16.266 16.2388 16.2659 16.5024 16.0023C16.766 15.7387 16.766 15.3114 16.5024 15.0478L13.1216 11.667C13.9529 10.6277 14.45 9.30943 14.45 7.87505C14.45 4.51992 11.7302 1.80005 8.37505 1.80005Z" fill="currentColor"/>
</svg>
