<svg width="16" height="16" viewBox="0 0 16 16" fill="none" xmlns="http://www.w3.org/2000/svg">
<path d="M11.9998 6.80005C12.6625 6.80005 13.1998 7.33731 13.1998 8.00005C13.1998 8.66279 12.6625 9.20005 11.9998 9.20005C11.3371 9.20005 10.7998 8.66279 10.7998 8.00005C10.7998 7.33731 11.3371 6.80005 11.9998 6.80005ZM7.9998 6.80005C8.66255 6.80005 9.1998 7.33731 9.1998 8.00005C9.1998 8.66279 8.66255 9.20005 7.9998 9.20005C7.33706 9.20005 6.7998 8.66279 6.7998 8.00005C6.7998 7.33731 7.33706 6.80005 7.9998 6.80005ZM3.9998 6.80005C4.66255 6.80005 5.1998 7.33731 5.1998 8.00005C5.1998 8.66279 4.66255 9.20005 3.9998 9.20005C3.33706 9.20005 2.7998 8.66279 2.7998 8.00005C2.7998 7.33731 3.33706 6.80005 3.9998 6.80005Z" fill="currentColor"/>
</svg>
