<svg width="28" height="28" viewBox="4 4 20 20" fill="none" xmlns="http://www.w3.org/2000/svg">
<g id="&#228;&#187;&#187;&#229;&#138;&#161;&#230;&#181;&#129;_28">
<path id="Union" fill-rule="evenodd" clip-rule="evenodd" d="M7.25 6C7.66421 6 8 6.33579 8 6.75V10.75L16.5945 10.75C16.9275 9.45608 18.1021 8.5 19.5 8.5C21.1569 8.5 22.5 9.84315 22.5 11.5C22.5 13.1569 21.1569 14.5 19.5 14.5C18.1021 14.5 16.9275 13.5439 16.5945 12.25L8 12.25V15C8 15.7124 8.00058 16.2017 8.03157 16.5809C8.06184 16.9514 8.11735 17.1504 8.19074 17.2945C8.35852 17.6238 8.62623 17.8915 8.95552 18.0593C9.09956 18.1327 9.29858 18.1882 9.66908 18.2184C10.0483 18.2494 10.5376 18.25 11.25 18.25H16.5945C16.9275 16.9561 18.1021 16 19.5 16C21.1569 16 22.5 17.3431 22.5 19C22.5 20.6569 21.1569 22 19.5 22C18.1021 22 16.9275 21.0439 16.5945 19.75H11.2186C10.5452 19.75 9.99449 19.75 9.54693 19.7134C9.08367 19.6756 8.66527 19.5949 8.27453 19.3958C7.663 19.0842 7.16582 18.587 6.85423 17.9755C6.65514 17.5847 6.5744 17.1663 6.53655 16.7031C6.49998 16.2555 6.49999 15.7048 6.5 15.0314L6.5 6.75C6.5 6.33579 6.83579 6 7.25 6ZM19.5 10C18.6716 10 18 10.6716 18 11.5C18 12.3284 18.6716 13 19.5 13C20.3284 13 21 12.3284 21 11.5C21 10.6716 20.3284 10 19.5 10ZM19.5 17.5C18.6716 17.5 18 18.1716 18 19C18 19.8284 18.6716 20.5 19.5 20.5C20.3284 20.5 21 19.8284 21 19C21 18.1716 20.3284 17.5 19.5 17.5Z" fill="white"/>
</g>
</svg>
