<svg width="20" height="20" viewBox="0 0 20 20" fill="none" xmlns="http://www.w3.org/2000/svg">
<g id="icon/outlined/bell-03">
<path id="Union" fill-rule="evenodd" clip-rule="evenodd" d="M10.0001 1.5C8.41149 1.5 6.90415 2.19449 5.80463 3.4034C4.70728 4.60994 4.10148 6.23235 4.10148 7.91087V9.90338L4.10146 9.91363L4.09744 9.92306L2.66747 13.2641C2.59676 13.4292 2.52515 13.5964 2.47815 13.7413C2.42849 13.8945 2.37045 14.1234 2.42003 14.3838C2.48242 14.7115 2.67318 15.0006 2.94986 15.1869C3.16978 15.335 3.40306 15.3717 3.56336 15.3863C3.71509 15.4001 3.897 15.4 4.07663 15.4H15.9236C16.1032 15.4 16.2851 15.4001 16.4368 15.3863C16.5971 15.3717 16.8304 15.335 17.0503 15.1869C17.327 15.0006 17.5178 14.7115 17.5802 14.3838C17.6298 14.1234 17.5717 13.8945 17.522 13.7413C17.475 13.5964 17.4034 13.4292 17.3327 13.2641L17.3327 13.2641L15.9028 9.92306L15.8987 9.91363L15.8987 9.90338V7.91087C15.8987 6.23235 15.2929 4.60994 14.1956 3.4034C13.096 2.19449 11.5887 1.5 10.0001 1.5ZM6.91431 4.41266C7.74591 3.49833 8.8577 3 10.0001 3C11.1425 3 12.2543 3.49833 13.0859 4.41266C13.9196 5.32936 14.3987 6.58668 14.3987 7.91087V9.90338L14.3987 9.91623C14.3986 9.96235 14.3984 10.0382 14.4079 10.1162C14.4161 10.1831 14.4296 10.2493 14.4485 10.314C14.4704 10.3894 14.5004 10.4591 14.5187 10.5015L14.5238 10.5133L15.9435 13.8303L15.9732 13.9L15.8975 13.9H4.1027L4.02695 13.9L4.05673 13.8303L5.47644 10.5133L5.48152 10.5015C5.49977 10.4591 5.52979 10.3894 5.55172 10.314C5.57056 10.2493 5.58413 10.1831 5.59229 10.1162C5.60179 10.0382 5.60161 9.96235 5.6015 9.91623L5.60148 9.90338V7.91087C5.60148 6.58668 6.08056 5.32936 6.91431 4.41266ZM9.25661 16.5916C9.0438 16.2362 8.58321 16.1207 8.22784 16.3335C7.87247 16.5463 7.75689 17.0069 7.9697 17.3622C8.1792 17.7121 8.47828 17.9995 8.83447 18.198C9.19052 18.3965 9.59242 18.5 10.0001 18.5C10.4078 18.5 10.8098 18.3965 11.1658 18.198C11.522 17.9995 11.8211 17.7121 12.0306 17.3622C12.2434 17.0069 12.1278 16.5463 11.7724 16.3335C11.4171 16.1207 10.9565 16.2362 10.7437 16.5916C10.6716 16.712 10.5662 16.815 10.4355 16.8878C10.3046 16.9607 10.1544 17 10.0001 17C9.84584 17 9.69562 16.9607 9.56479 16.8878C9.43411 16.815 9.32868 16.712 9.25661 16.5916Z" fill="#707480"/>
</g>
</svg>
