<svg width="33" height="32" viewBox="0 0 33 32" fill="none" xmlns="http://www.w3.org/2000/svg">
<path fill-rule="evenodd" clip-rule="evenodd" d="M16.5001 7.5C14.9115 7.5 13.4041 8.19449 12.3046 9.4034C11.2073 10.6099 10.6015 12.2323 10.6015 13.9109V15.9034L10.6015 15.9136L10.5974 15.9231L9.16747 19.2641C9.09676 19.4292 9.02515 19.5964 8.97815 19.7413C8.92849 19.8945 8.87045 20.1234 8.92003 20.3838C8.98242 20.7115 9.17318 21.0006 9.44986 21.1869C9.66978 21.335 9.90306 21.3717 10.0634 21.3863C10.2151 21.4001 10.397 21.4 10.5766 21.4H22.4236C22.6032 21.4 22.7851 21.4001 22.9368 21.3863C23.0971 21.3717 23.3304 21.335 23.5503 21.1869C23.827 21.0006 24.0178 20.7115 24.0802 20.3838C24.1298 20.1234 24.0717 19.8945 24.022 19.7413C23.975 19.5964 23.9034 19.4292 23.8327 19.2641L23.8327 19.2641L22.4028 15.9231L22.3987 15.9136L22.3987 15.9034V13.9109C22.3987 12.2323 21.7929 10.6099 20.6956 9.4034C19.596 8.19449 18.0887 7.5 16.5001 7.5ZM13.4143 10.4127C14.2459 9.49833 15.3577 9 16.5001 9C17.6425 9 18.7543 9.49833 19.5859 10.4127C20.4196 11.3294 20.8987 12.5867 20.8987 13.9109V15.9034L20.8987 15.9162C20.8986 15.9623 20.8984 16.0382 20.9079 16.1162C20.9161 16.1831 20.9296 16.2493 20.9485 16.314C20.9704 16.3894 21.0004 16.4591 21.0187 16.5015L21.0238 16.5133L22.4435 19.8303L22.4732 19.9L22.3975 19.9H10.6027L10.5269 19.9L10.5567 19.8303L11.9764 16.5133L11.9815 16.5015C11.9998 16.4591 12.0298 16.3894 12.0517 16.314C12.0706 16.2493 12.0841 16.1831 12.0923 16.1162C12.1018 16.0382 12.1016 15.9623 12.1015 15.9162L12.1015 15.9034V13.9109C12.1015 12.5867 12.5806 11.3294 13.4143 10.4127ZM15.7566 22.5916C15.5438 22.2362 15.0832 22.1207 14.7278 22.3335C14.3725 22.5463 14.2569 23.0069 14.4697 23.3622C14.6792 23.7121 14.9783 23.9995 15.3345 24.198C15.6905 24.3965 16.0924 24.5 16.5001 24.5C16.9078 24.5 17.3098 24.3965 17.6658 24.198C18.022 23.9995 18.3211 23.7121 18.5306 23.3622C18.7434 23.0069 18.6278 22.5463 18.2724 22.3335C17.9171 22.1207 17.4565 22.2362 17.2437 22.5916C17.1716 22.712 17.0662 22.815 16.9355 22.8878C16.8046 22.9607 16.6544 23 16.5001 23C16.3458 23 16.1956 22.9607 16.0648 22.8878C15.9341 22.815 15.8287 22.712 15.7566 22.5916Z" fill="#707480"/>
</svg>
