<svg width="16" height="16" viewBox="0 0 16 16" fill="none" xmlns="http://www.w3.org/2000/svg">
<g id="icon/outlined/paper-plane">
<path id="Union" fill-rule="evenodd" clip-rule="evenodd" d="M12.2408 2.91116L4.65371 10.4982L4.65371 9.25754C4.65371 9.14673 4.6432 9.03486 4.62149 8.9237L4.62071 8.91977C4.59863 8.80874 4.56575 8.70005 4.52235 8.595L4.52137 8.59265C4.43444 8.38351 4.30725 8.19273 4.14599 8.03147L3.2296 7.11547C3.03705 6.92303 2.90184 6.68018 2.83957 6.41487C2.77726 6.14911 2.79035 5.87173 2.87718 5.61371C2.96414 5.35528 3.12133 5.12638 3.33133 4.95246C3.54141 4.77866 3.79565 4.66705 4.06576 4.63001L4.10818 4.62419L12.2408 2.91116ZM13.0878 3.76115L5.50608 11.3429H6.74239C7.19999 11.3429 7.64151 11.5239 7.96787 11.8502L8.88871 12.7709C9.02262 12.9064 9.18245 13.0142 9.35852 13.0878C9.53418 13.1613 9.7228 13.1995 9.91356 13.1999C9.97817 13.1999 10.0438 13.1954 10.1095 13.1865C10.2025 13.1739 10.2948 13.1524 10.3852 13.1219L10.3941 13.119C10.6474 13.0358 10.8726 12.8834 11.0441 12.679C11.2153 12.4748 11.3262 12.2267 11.3642 11.9627L11.3697 11.9242L13.0878 3.76115ZM2.56641 4.02785C2.18418 4.34426 1.89805 4.76086 1.73985 5.23098C1.58164 5.70109 1.55801 6.20598 1.67129 6.68898C1.78457 7.1718 2.03047 7.61359 2.38125 7.96418L3.29746 8.88C3.34707 8.92961 3.38633 8.9884 3.41328 9.05324C3.42676 9.08586 3.43692 9.11945 3.44375 9.15383C3.45039 9.18781 3.45371 9.22258 3.45371 9.25754L3.45371 10.9472C3.45463 11.133 3.48829 11.3168 3.55274 11.4903C3.57064 11.5385 3.59093 11.5859 3.61355 11.6323L3.60957 11.6362L3.62344 11.6501L3.62506 11.6534C3.65601 11.7153 3.69081 11.7748 3.72916 11.8317L3.74169 11.8501C3.86373 12.0259 4.01997 12.1756 4.20121 12.2902L4.21831 12.3008C4.25923 12.326 4.30139 12.3493 4.34469 12.3708L4.34981 12.3734L4.36368 12.3872L4.36739 12.3829C4.41282 12.4051 4.45959 12.4252 4.50674 12.4428C4.68099 12.5079 4.86578 12.542 5.05274 12.5429H6.74239C6.8836 12.5429 7.01934 12.5987 7.11934 12.6987L8.03516 13.6144C8.28067 13.8628 8.57305 14.0601 8.89532 14.1948C9.21739 14.3296 9.56309 14.3993 9.9125 14.3999C10.0322 14.3999 10.1518 14.3917 10.2701 14.3757C10.4393 14.3529 10.6061 14.3138 10.7684 14.2591C11.2342 14.1062 11.6481 13.8261 11.9633 13.4505C12.2783 13.0749 12.4822 12.6187 12.552 12.1333L14.352 3.58137C14.4186 3.31437 14.4145 3.03488 14.3404 2.77004C14.2664 2.50519 14.1248 2.26398 13.9295 2.07043C13.7383 1.87687 13.5004 1.73586 13.2389 1.66125C13.0488 1.60695 12.851 1.58879 12.6555 1.60715C12.5818 1.61418 12.5086 1.62629 12.4361 1.64367L3.90274 3.44113C3.41133 3.50851 2.94864 3.71164 2.56641 4.02785Z" fill="#FBFBFC"/>
</g>
</svg>
