<svg width="18" height="18" viewBox="0 0 18 18" fill="none" xmlns="http://www.w3.org/2000/svg">
    <path fill-rule="evenodd" clip-rule="evenodd" d="M15.2775 2.72267C14.0473 1.49252 12.0528 1.49252 10.8227 2.72267L3.30238 10.243C3.21293 10.3324 3.15384 10.4407 3.1251 10.5551L1.82365 15.3482C1.76025 15.5817 1.82668 15.8313 1.99777 16.0024C2.16886 16.1735 2.41844 16.2399 2.65194 16.1765L7.45673 14.8719C7.57372 14.8401 7.67773 14.7782 7.76008 14.6948L15.2775 7.17744C16.5076 5.94729 16.5076 3.95282 15.2775 2.72267ZM5.97903 13.8743L4.12591 12.0211L3.4352 14.565L5.97903 13.8743ZM7.27985 13.2659L14.3229 6.22285C15.0258 5.51991 15.0258 4.38021 14.3229 3.67726C13.6199 2.97432 12.4802 2.97432 11.7773 3.67726L4.73427 10.7203L7.27985 13.2659Z" fill="#707480"/>
</svg>
