<svg width="30" height="30" viewBox="0 0 30 30" fill="none" xmlns="http://www.w3.org/2000/svg">
<path fill-rule="evenodd" clip-rule="evenodd" d="M15.3075 4.84835C16.7719 3.38388 19.1463 3.38388 20.6108 4.84835C22.0752 6.31282 22.0752 8.68718 20.6108 10.1517L10.2693 20.4931C10.1596 20.6028 10.0283 20.6887 9.88378 20.7452L3.78498 23.1317C3.36875 23.2946 2.89559 23.1956 2.57954 22.8796C2.26349 22.5635 2.16451 22.0904 2.32738 21.6741L4.71387 15.5753C4.77043 15.4308 4.85628 15.2995 4.96602 15.1898L15.3075 4.84835ZM19.0198 6.43934C18.434 5.85355 17.4843 5.85355 16.8985 6.43934L7.35251 15.9853L9.47383 18.1066L19.0198 8.56066C19.6056 7.97487 19.6056 7.02513 19.0198 6.43934ZM7.46201 19.2768L6.18235 17.9971L5.35971 20.0994L7.46201 19.2768ZM15.9679 19.5005C16.4103 19.4878 16.8189 19.7357 17.0121 20.1338C17.3997 20.9323 17.9971 21.9599 18.8189 23.2272L18.8191 23.2274C19.0816 23.6325 19.2667 23.7759 19.349 23.8195C19.3512 23.8207 19.3532 23.8218 19.3551 23.8228C19.3822 23.8375 19.3936 23.8436 19.4633 23.8197C19.5884 23.7769 19.8182 23.6451 20.1644 23.3064C20.5016 22.9765 20.8896 22.5099 21.341 21.8908C21.4911 21.6848 21.6517 21.4929 21.8122 21.3138C22.0199 21.082 22.3144 20.9467 22.6256 20.9399C22.9368 20.9332 23.2368 21.0557 23.4544 21.2782C24.3694 22.2142 25.615 23.1796 27.2159 24.1677C27.7446 24.494 27.9087 25.1871 27.5824 25.7159C27.256 26.2446 26.5629 26.4087 26.0342 26.0823C24.7831 25.3102 23.6938 24.5258 22.7759 23.7266C22.4239 24.1804 22.0788 24.5811 21.738 24.9146C21.2834 25.3594 20.7711 25.7499 20.193 25.9481C19.5646 26.1636 18.9083 26.1323 18.2956 25.8077C17.7334 25.5098 17.2934 25.0104 16.931 24.4512C16.6048 23.9481 16.3073 23.4732 16.0393 23.0271C14.7923 25.0333 13.1392 26.25 11 26.25H7.87503C7.25371 26.25 6.75003 25.7463 6.75003 25.125C6.75003 24.5037 7.25371 24 7.87503 24H11C12.3977 24 13.7753 23.0391 14.9616 20.1923C15.1318 19.7838 15.5256 19.5131 15.9679 19.5005Z" fill="#808080"/>
<path d="M3.78498 23.1317C3.36875 23.2946 2.89559 23.1956 2.57954 22.8796C2.26349 22.5635 2.16451 22.0903 2.32738 21.6741L4.44576 16.2605L9.1986 21.0133L3.78498 23.1317Z" fill="#B3B3B3"/>
</svg>
