<svg width="20" height="20" viewBox="0 0 20 20" fill="none" xmlns="http://www.w3.org/2000/svg">
<path fill-rule="evenodd" clip-rule="evenodd" d="M16.9749 3.02519C15.608 1.65835 13.3919 1.65835 12.0251 3.02519L3.6692 11.3811C3.56982 11.4805 3.50416 11.6008 3.47222 11.7279L2.02617 17.0536C1.95572 17.313 2.02953 17.5903 2.21963 17.7804C2.40973 17.9705 2.68704 18.0444 2.94649 17.9739L8.28514 16.5243C8.41512 16.489 8.53068 16.4202 8.62218 16.3276L16.9749 7.97494C18.3417 6.6081 18.3417 4.39202 16.9749 3.02519ZM6.64325 15.4158L4.58423 13.3568L3.81678 16.1833L6.64325 15.4158ZM8.08861 14.7399L15.9142 6.91427C16.6952 6.13323 16.6952 4.8669 15.9142 4.08585C15.1331 3.3048 13.8668 3.3048 13.0858 4.08585L5.26019 11.9114L8.08861 14.7399Z" fill="#808080"/>
</svg>
