<svg width="16" height="16" viewBox="0 0 16 16" fill="none" xmlns="http://www.w3.org/2000/svg">
<path fill-rule="evenodd" clip-rule="evenodd" d="M13.58 2.42015C12.4866 1.32668 10.7137 1.32668 9.62023 2.42015L2.9355 9.10489C2.856 9.18439 2.80347 9.28066 2.77792 9.38231L1.62108 13.6429C1.56472 13.8504 1.62377 14.0723 1.77585 14.2244C1.92793 14.3764 2.14977 14.4355 2.35733 14.3791L6.62826 13.2195C6.73227 13.1912 6.82475 13.1362 6.89795 13.062L13.58 6.37995C14.6735 5.28648 14.6735 3.51362 13.58 2.42015ZM5.31474 12.3327L3.66753 10.6855L3.05357 12.9466L5.31474 12.3327ZM6.47104 11.7919L12.7315 5.53142C13.3563 4.90658 13.3563 3.89352 12.7315 3.26868C12.1067 2.64384 11.0936 2.64384 10.4688 3.26868L4.20829 9.52915L6.47104 11.7919Z" fill="currentColor"/>
</svg>
