<svg width="14" height="14" viewBox="0 0 14 14" xmlns="http://www.w3.org/2000/svg">
<g id="icon/solid/pin-filled">
<path 
  id="Union" 
  fill-rule="evenodd" 
  clip-rule="evenodd" 
  d="M8.12595 1.51254C7.98299 1.36959 7.77621 1.31084 7.57944 1.35729C7.38268 1.40374 7.224 1.54876 7.16007 1.74055L5.81326 5.78093L2.51061 6.44146C2.29965 6.48366 2.12904 6.63853 2.0667 6.84443C2.00436 7.05033 2.06041 7.27383 2.21253 7.42595L3.98082 9.19423L1.51253 11.6625C1.28472 11.8903 1.28472 12.2597 1.51253 12.4875C1.74034 12.7153 2.10969 12.7153 2.33749 12.4875L4.80578 10.0192L6.5741 11.7875C6.72622 11.9396 6.94972 11.9957 7.15562 11.9333C7.36152 11.871 7.51639 11.7004 7.55858 11.4894L8.21909 8.18674L12.2595 6.83994C12.4513 6.77601 12.5963 6.61733 12.6427 6.42057C12.6892 6.2238 12.6304 6.01702 12.4875 5.87406L8.12595 1.51254Z"
  />
</g>
</svg>
