<svg width="14" height="14" viewBox="0 0 14 14" fill="none" xmlns="http://www.w3.org/2000/svg">
<g id="icon/solid/pin-filled">
<path id="Union" fill-rule="evenodd" clip-rule="evenodd" d="M8.12595 1.51242C7.98299 1.36946 7.77621 1.31072 7.57944 1.35717C7.38268 1.40362 7.224 1.54864 7.16007 1.74043L5.81326 5.78081L2.51061 6.44134C2.29965 6.48353 2.12904 6.63841 2.0667 6.84431C2.00436 7.05021 2.06041 7.27371 2.21253 7.42583L3.98082 9.19411L1.51253 11.6624C1.28472 11.8902 1.28472 12.2596 1.51253 12.4874C1.74034 12.7152 2.10969 12.7152 2.33749 12.4874L4.80578 10.0191L6.5741 11.7874C6.72622 11.9395 6.94972 11.9955 7.15562 11.9332C7.36152 11.8709 7.51639 11.7002 7.55858 11.4893L8.21909 8.18661L12.2595 6.83982C12.4513 6.77589 12.5963 6.61721 12.6427 6.42045C12.6892 6.22368 12.6304 6.0169 12.4875 5.87394L8.12595 1.51242Z" fill="#67CDBC"/>
</g>
</svg>
