<svg width="28" height="28" viewBox="0 0 28 28" fill="none" xmlns="http://www.w3.org/2000/svg">
<path d="M1.77411 4.75655C1.77669 4.65057 1.80875 4.54741 1.86669 4.45864C1.92463 4.36986 2.00616 4.29899 2.10213 4.25396C2.19811 4.20894 2.30473 4.19155 2.41003 4.20374C2.51534 4.21592 2.61517 4.25721 2.69832 4.32297L12.3969 12.3671C12.851 12.7427 13.422 12.9483 14.0114 12.9483C14.6008 12.9483 15.1717 12.7427 15.6259 12.3671L25.3016 4.32297C25.3848 4.26044 25.4836 4.22186 25.5871 4.21142C25.6907 4.20097 25.7951 4.21906 25.8891 4.26372C25.9832 4.30838 26.0632 4.37791 26.1205 4.46478C26.1778 4.55165 26.2103 4.65255 26.2144 4.75655V21.2669C26.2145 21.9348 25.9507 22.5756 25.4806 23.05C25.0105 23.5244 24.3721 23.7939 23.7042 23.7999H4.30714C3.97354 23.8014 3.64292 23.737 3.33428 23.6104C3.02564 23.4838 2.74506 23.2974 2.50863 23.0621C2.27221 22.8267 2.08461 22.5469 1.9566 22.2389C1.82859 21.9308 1.76269 21.6005 1.7627 21.2669V4.75655H1.77411Z" fill="url(#paint0_linear_780_12588)"/>
<path fill-rule="evenodd" clip-rule="evenodd" d="M17.3139 10.975L12.4304 15.2766C12.0281 15.634 11.5108 15.8352 10.9727 15.8435C10.4346 15.8519 9.91134 15.667 9.49804 15.3223L1.77344 8.8984V4.75655C1.77602 4.65057 1.80808 4.54741 1.86602 4.45864C1.92396 4.36986 2.00549 4.29899 2.10147 4.25396C2.19744 4.20894 2.30406 4.19155 2.40937 4.20374C2.51467 4.21592 2.6145 4.25721 2.69765 4.32297L12.3962 12.3671C12.8504 12.7427 13.4213 12.9483 14.0107 12.9483C14.6001 12.9483 15.1711 12.7427 15.6252 12.3671L17.3025 10.975H17.3139Z" fill="url(#paint1_linear_780_12588)"/>
<path fill-rule="evenodd" clip-rule="evenodd" d="M21.0342 7.88299V23.8H23.7041C24.3759 23.8 25.0202 23.5331 25.4953 23.0581C25.9703 22.5831 26.2372 21.9388 26.2372 21.267V4.75663C26.2331 4.65263 26.2006 4.55173 26.1432 4.46486C26.0859 4.37799 26.0059 4.30846 25.9119 4.2638C25.8179 4.21914 25.7134 4.20105 25.6099 4.2115C25.5063 4.22194 25.4076 4.26052 25.3244 4.32305L21.0342 7.88299Z" fill="url(#paint2_linear_780_12588)"/>
<defs>
<linearGradient id="paint0_linear_780_12588" x1="13.9909" y1="23.113" x2="13.9909" y2="12.28" gradientUnits="userSpaceOnUse">
<stop stop-color="#FFAD00"/>
<stop offset="1" stop-color="#FF7600"/>
</linearGradient>
<linearGradient id="paint1_linear_780_12588" x1="9.54251" y1="15.8438" x2="9.54251" y2="4.77409" gradientUnits="userSpaceOnUse">
<stop stop-color="#FFD148"/>
<stop offset="0.21" stop-color="#FFD044"/>
<stop offset="0.33" stop-color="#FFCD38"/>
<stop offset="0.45" stop-color="#FFC824"/>
<stop offset="0.57" stop-color="#FFC209"/>
<stop offset="1" stop-color="#FFBF00"/>
</linearGradient>
<linearGradient id="paint2_linear_780_12588" x1="23.6353" y1="23.8" x2="23.6353" y2="5.17464" gradientUnits="userSpaceOnUse">
<stop stop-color="#FFD148"/>
<stop offset="0.21" stop-color="#FFD044"/>
<stop offset="0.33" stop-color="#FFCD38"/>
<stop offset="0.45" stop-color="#FFC824"/>
<stop offset="0.57" stop-color="#FFC209"/>
<stop offset="1" stop-color="#FFBF00"/>
</linearGradient>
</defs>
</svg>
