<svg width="30" height="24" viewBox="0 0 30 24" fill="none" xmlns="http://www.w3.org/2000/svg">
<path d="M8.625 7.5C9.04688 7.5 9.46875 7.78125 9.60938 8.20312L12.6094 14.9531C12.8906 15.5156 12.6094 16.1719 12.0469 16.4062C11.4844 16.6875 10.8281 16.4062 10.5938 15.8438L10.3594 15.375H6.84375L6.60938 15.8438C6.375 16.4062 5.71875 16.6875 5.15625 16.4062C4.59375 16.1719 4.3125 15.5156 4.59375 14.9531L7.59375 8.20312C7.73438 7.78125 8.15625 7.5 8.625 7.5ZM7.82812 13.125H9.375L8.625 11.4375L7.82812 13.125ZM14.25 8.625C14.25 8.01562 14.7188 7.5 15.375 7.5H17.8125C19.3594 7.5 20.625 8.76562 20.625 10.3125C20.625 10.7812 20.4844 11.1562 20.3438 11.5312C20.9531 12.0469 21.375 12.8438 21.375 13.6875C21.375 15.2812 20.1094 16.5 18.5625 16.5H15.375C14.7188 16.5 14.25 16.0312 14.25 15.375V8.625ZM16.5 9.75V10.875H17.8125C18.0938 10.875 18.375 10.6406 18.375 10.3125C18.375 10.0312 18.0938 9.75 17.8125 9.75H16.5ZM16.5 14.25H18.5625C18.8438 14.25 19.125 14.0156 19.125 13.6875C19.125 13.4062 18.8438 13.125 18.5625 13.125H16.5V14.25ZM0 6C0 4.35938 1.3125 3 3 3H27C28.6406 3 30 4.35938 30 6V18C30 19.6875 28.6406 21 27 21H3C1.3125 21 0 19.6875 0 18V6ZM2.25 6V18C2.25 18.4219 2.57812 18.75 3 18.75H27C27.375 18.75 27.75 18.4219 27.75 18V6C27.75 5.625 27.375 5.25 27 5.25H3C2.57812 5.25 2.25 5.625 2.25 6Z" fill="#67CDBC"/>
</svg>
