<?xml version="1.0" encoding="UTF-8"?>
<svg xmlns="http://www.w3.org/2000/svg" xmlns:xlink="http://www.w3.org/1999/xlink" width="20px" height="21px" viewBox="0 0 20 20" version="1.1">
<g id="surface1">
<path style=" stroke:none;fill-rule:nonzero;fill:rgb(93.72549%,26.666667%,26.666667%);fill-opacity:1;" d="M 9.003906 10.429688 C 9.003906 10.03125 8.667969 9.710938 8.253906 9.710938 C 7.839844 9.710938 7.503906 10.03125 7.503906 10.429688 L 7.503906 13.777344 C 7.503906 14.171875 7.839844 14.496094 8.253906 14.496094 C 8.667969 14.496094 9.003906 14.171875 9.003906 13.777344 Z M 9.003906 10.429688 "/>
<path style=" stroke:none;fill-rule:nonzero;fill:rgb(93.72549%,26.666667%,26.666667%);fill-opacity:1;" d="M 12.503906 10.429688 C 12.503906 10.03125 12.167969 9.710938 11.753906 9.710938 C 11.339844 9.710938 11.003906 10.03125 11.003906 10.429688 L 11.003906 13.777344 C 11.003906 14.171875 11.339844 14.496094 11.753906 14.496094 C 12.167969 14.496094 12.503906 14.171875 12.503906 13.777344 Z M 12.503906 10.429688 "/>
<path style=" stroke:none;fill-rule:evenodd;fill:rgb(93.72549%,26.666667%,26.666667%);fill-opacity:1;" d="M 9.917969 2.296875 L 10.085938 2.296875 C 10.410156 2.296875 10.695312 2.296875 10.929688 2.316406 C 11.183594 2.332031 11.433594 2.371094 11.683594 2.476562 C 12.058594 2.632812 12.382812 2.882812 12.621094 3.203125 C 12.78125 3.414062 12.871094 3.640625 12.945312 3.871094 C 13.011719 4.089844 13.070312 4.351562 13.136719 4.65625 L 13.359375 5.648438 L 16.820312 5.648438 C 17.203125 5.683594 17.503906 5.988281 17.503906 6.363281 C 17.503906 6.761719 17.167969 7.082031 16.753906 7.082031 L 16.691406 7.082031 L 16.023438 14.4375 C 15.96875 15.03125 15.921875 15.515625 15.855469 15.910156 C 15.785156 16.320312 15.675781 16.6875 15.46875 17.027344 C 15.140625 17.5625 14.652344 17.988281 14.066406 18.257812 C 13.695312 18.425781 13.304688 18.496094 12.871094 18.527344 C 12.453125 18.558594 11.945312 18.558594 11.320312 18.558594 L 8.683594 18.558594 C 8.0625 18.558594 7.550781 18.558594 7.136719 18.527344 C 6.703125 18.496094 6.3125 18.425781 5.9375 18.257812 C 5.355469 17.988281 4.867188 17.5625 4.539062 17.027344 C 4.328125 16.6875 4.222656 16.320312 4.152344 15.910156 C 4.082031 15.515625 4.039062 15.03125 3.984375 14.4375 L 3.316406 7.082031 L 3.253906 7.082031 C 2.839844 7.082031 2.503906 6.761719 2.503906 6.363281 C 2.503906 5.988281 2.800781 5.683594 3.183594 5.648438 L 6.644531 5.648438 L 6.867188 4.65625 C 6.9375 4.351562 6.996094 4.089844 7.0625 3.871094 C 7.132812 3.640625 7.226562 3.414062 7.382812 3.203125 C 7.621094 2.882812 7.945312 2.632812 8.324219 2.476562 C 8.570312 2.371094 8.820312 2.332031 9.074219 2.316406 C 9.308594 2.296875 9.59375 2.296875 9.917969 2.296875 Z M 4.820312 7.082031 L 5.476562 14.285156 C 5.53125 14.914062 5.574219 15.34375 5.628906 15.675781 C 5.6875 16 5.753906 16.171875 5.832031 16.300781 C 6.007812 16.585938 6.269531 16.816406 6.585938 16.960938 C 6.722656 17.023438 6.910156 17.070312 7.253906 17.097656 C 7.605469 17.125 8.054688 17.125 8.714844 17.125 L 11.292969 17.125 C 11.949219 17.125 12.402344 17.125 12.753906 17.097656 C 13.09375 17.070312 13.28125 17.023438 13.421875 16.960938 C 13.734375 16.816406 14 16.585938 14.175781 16.300781 C 14.253906 16.171875 14.320312 16 14.375 15.675781 C 14.433594 15.34375 14.472656 14.914062 14.53125 14.285156 L 15.183594 7.082031 L 13.066406 7.082031 C 13.054688 7.082031 13.046875 7.082031 13.039062 7.082031 L 6.96875 7.082031 C 6.957031 7.082031 6.949219 7.082031 6.941406 7.082031 Z M 11.824219 5.648438 L 8.179688 5.648438 L 8.328125 4.980469 C 8.402344 4.648438 8.453125 4.433594 8.5 4.273438 C 8.546875 4.121094 8.582031 4.066406 8.605469 4.035156 C 8.683594 3.929688 8.792969 3.84375 8.917969 3.792969 C 8.953125 3.777344 9.019531 3.757812 9.183594 3.746094 C 9.359375 3.734375 9.585938 3.734375 9.941406 3.734375 L 10.0625 3.734375 C 10.417969 3.734375 10.648438 3.734375 10.820312 3.746094 C 10.988281 3.757812 11.050781 3.777344 11.085938 3.792969 C 11.214844 3.84375 11.320312 3.929688 11.402344 4.035156 C 11.421875 4.066406 11.457031 4.121094 11.503906 4.273438 C 11.554688 4.433594 11.601562 4.648438 11.675781 4.980469 Z M 11.824219 5.648438 "/>
</g>
</svg>
