<svg width="16" height="16" viewBox="0 0 16 16" fill="none" xmlns="http://www.w3.org/2000/svg">
<path fill-rule="evenodd" clip-rule="evenodd" d="M7.57574 2.22422C7.34142 1.9899 7.34142 1.61 7.57574 1.37569C7.81005 1.14137 8.18995 1.14137 8.42426 1.37569L10.4485 3.39995L8.42426 5.42422C8.18995 5.65853 7.81005 5.65853 7.57574 5.42422C7.34142 5.1899 7.34142 4.81 7.57574 4.57569L8.14914 4.00228C7.52528 3.98289 6.89999 4.08526 6.3092 4.30762C5.37056 4.6609 4.56615 5.29932 4.00895 6.13323C3.45175 6.96713 3.16976 7.95462 3.20257 8.95702C3.23539 9.95941 3.58136 10.9263 4.19191 11.722C4.80245 12.5177 5.64689 13.1021 6.60664 13.3933C7.56638 13.6844 8.59321 13.6676 9.54291 13.3452C10.4926 13.0228 11.3175 12.4111 11.9017 11.5959C12.4858 10.7806 12.8 9.80289 12.8 8.79996C12.8 8.46859 13.0686 8.19996 13.4 8.19996C13.7314 8.19996 14 8.46859 14 8.79996C14 10.0536 13.6073 11.2758 12.8771 12.2948C12.1469 13.3139 11.1158 14.0786 9.92864 14.4815C8.74151 14.8845 7.45797 14.9055 6.25829 14.5416C5.05862 14.1777 4.00306 13.4471 3.23988 12.4525C2.4767 11.4579 2.04423 10.2493 2.00321 8.99628C1.9622 7.74329 2.31469 6.50892 3.01119 5.46654C3.70768 4.42416 4.71319 3.62613 5.8865 3.18453C6.61458 2.9105 7.38457 2.78226 8.15345 2.80192L7.57574 2.22422Z" fill="white"/>
</svg>
