<svg width="16" height="16" viewBox="0 0 16 16" fill="none" xmlns="http://www.w3.org/2000/svg">
<path fill-rule="evenodd" clip-rule="evenodd" d="M8.42426 2.22446C8.65857 1.99014 8.65857 1.61025 8.42426 1.37593C8.18994 1.14162 7.81004 1.14162 7.57573 1.37593L5.55146 3.4002L7.57573 5.42446C7.81004 5.65877 8.18994 5.65877 8.42426 5.42446C8.65857 5.19014 8.65857 4.81025 8.42426 4.57593L7.85085 4.00252C8.47472 3.98313 9.10001 4.0855 9.6908 4.30786C10.6294 4.66114 11.4339 5.29957 11.9911 6.13347C12.5483 6.96738 12.8302 7.95487 12.7974 8.95726C12.7646 9.95965 12.4186 10.9266 11.8081 11.7223C11.1976 12.5179 10.3531 13.1024 9.39337 13.3935C8.43362 13.6847 7.40679 13.6679 6.45709 13.3455C5.50739 13.0231 4.68252 12.4113 4.09834 11.5961C3.51415 10.7809 3.2 9.80314 3.2 8.80021C3.2 8.46884 2.93137 8.20021 2.6 8.20021C2.26863 8.20021 2 8.46884 2 8.80021C2 10.0539 2.39269 11.276 3.12292 12.2951C3.85315 13.3141 4.88423 14.0788 6.07136 14.4818C7.25849 14.8848 8.54203 14.9058 9.74171 14.5419C10.9414 14.1779 11.9969 13.4474 12.7601 12.4528C13.5233 11.4582 13.9558 10.2495 13.9968 8.99652C14.0378 7.74353 13.6853 6.50917 12.9888 5.46679C12.2923 4.42441 11.2868 3.62638 10.1135 3.18477C9.38542 2.91074 8.61543 2.7825 7.84655 2.80217L8.42426 2.22446Z" fill="#707480"/>
</svg>
