<svg width="18" height="18" viewBox="0 0 18 18" fill="none" xmlns="http://www.w3.org/2000/svg">
<path fill-rule="evenodd" clip-rule="evenodd" d="M3.1498 8.09999C3.1498 5.36618 5.366 3.14999 8.0998 3.14999C10.8336 3.14999 13.0498 5.36618 13.0498 8.09999C13.0498 10.8338 10.8336 13.05 8.0998 13.05C5.366 13.05 3.1498 10.8338 3.1498 8.09999ZM8.0998 1.79999C4.62041 1.79999 1.7998 4.62059 1.7998 8.09999C1.7998 11.5794 4.62041 14.4 8.0998 14.4C9.59635 14.4 10.971 13.8782 12.0518 13.0066L15.0475 16.0023C15.3111 16.2659 15.7385 16.2659 16.0021 16.0023C16.2657 15.7387 16.2657 15.3113 16.0021 15.0477L13.0064 12.052C13.878 10.9712 14.3998 9.59653 14.3998 8.09999C14.3998 4.62059 11.5792 1.79999 8.0998 1.79999Z" fill="currentColor"/>
</svg>
