<svg width="18" height="18" viewBox="0 0 18 18" fill="none" xmlns="http://www.w3.org/2000/svg">
<g id="icon/outlined/search">
<path id="Union" fill-rule="evenodd" clip-rule="evenodd" d="M3.1498 7.87505C3.1498 5.2655 5.26526 3.15005 7.8748 3.15005C10.4844 3.15005 12.5998 5.2655 12.5998 7.87505C12.5998 10.4846 10.4844 12.6 7.8748 12.6C5.26526 12.6 3.1498 10.4846 3.1498 7.87505ZM7.8748 1.80005C4.51967 1.80005 1.7998 4.51992 1.7998 7.87505C1.7998 11.2302 4.51967 13.95 7.8748 13.95C9.30919 13.95 10.6275 13.4529 11.6667 12.6216L15.0475 16.0023C15.3111 16.266 15.7385 16.2659 16.0021 16.0023C16.2657 15.7387 16.2657 15.3114 16.0021 15.0478L12.6213 11.667C13.4527 10.6277 13.9498 9.30943 13.9498 7.87505C13.9498 4.51992 11.2299 1.80005 7.8748 1.80005Z" fill="currentColor"/>
</g>
</svg>
