<svg width="27" height="28" viewBox="0 0 27 28" fill="none" xmlns="http://www.w3.org/2000/svg">
<path fill-rule="evenodd" clip-rule="evenodd" d="M4.66699 12.6667C4.66699 8.61662 7.95024 5.33337 12.0003 5.33337C16.0504 5.33337 19.3337 8.61662 19.3337 12.6667C19.3337 16.7168 16.0504 20 12.0003 20C7.95024 20 4.66699 16.7168 4.66699 12.6667ZM12.0003 3.33337C6.84567 3.33337 2.66699 7.51205 2.66699 12.6667C2.66699 17.8214 6.84567 22 12.0003 22C14.2174 22 16.254 21.227 17.8551 19.9357L22.2933 24.3738C22.6838 24.7643 23.317 24.7643 23.7075 24.3738C24.098 23.9833 24.098 23.3501 23.7075 22.9596L19.2693 18.5215C20.5606 16.9204 21.3337 14.8838 21.3337 12.6667C21.3337 7.51205 17.155 3.33337 12.0003 3.33337Z" fill="currentColor"/>
</svg>
