<svg width="20" height="20" viewBox="0 0 20 20" fill="none" xmlns="http://www.w3.org/2000/svg">
<g id="icon/outlined/sidebar-left-dark">
<path id="Union" fill-rule="evenodd" clip-rule="evenodd" d="M12.1826 2.5H7.81739C6.86494 2.49999 6.1044 2.49999 5.49013 2.55018C4.86012 2.60165 4.31824 2.70963 3.82054 2.96322C3.02085 3.37068 2.37068 4.02085 1.96322 4.82054C1.70963 5.31824 1.60165 5.86012 1.55018 6.49013C1.49999 7.10439 1.49999 7.86494 1.5 8.81738V8.81739V11.1826V11.1826C1.49999 12.1351 1.49999 12.8956 1.55018 13.5099C1.60165 14.1399 1.70963 14.6818 1.96322 15.1795C2.37068 15.9791 3.02085 16.6293 3.82054 17.0368C4.31824 17.2904 4.86012 17.3984 5.49013 17.4498C6.10439 17.5 6.86493 17.5 7.81737 17.5H12.1826C13.1351 17.5 13.8956 17.5 14.5099 17.4498C15.1399 17.3984 15.6818 17.2904 16.1795 17.0368C16.9791 16.6293 17.6293 15.9791 18.0368 15.1795C18.2904 14.6818 18.3983 14.1399 18.4498 13.5099C18.5 12.8956 18.5 12.1351 18.5 11.1827V11.1826V8.81737V8.8173C18.5 7.8649 18.5 7.10438 18.4498 6.49013C18.3983 5.86012 18.2904 5.31824 18.0368 4.82054C17.6293 4.02085 16.9791 3.37068 16.1795 2.96322C15.6818 2.70963 15.1399 2.60165 14.5099 2.55018C13.8956 2.49999 13.1351 2.49999 12.1826 2.5ZM4.50153 4.29973C4.75252 4.17184 5.07503 4.08909 5.61228 4.04519C6.15829 4.00058 6.85753 4 7.85 4H12.15C13.1425 4 13.8417 4.00058 14.3877 4.04519C14.925 4.08909 15.2475 4.17184 15.4985 4.29973C16.0159 4.56338 16.4366 4.98408 16.7003 5.50153C16.8282 5.75252 16.9109 6.07503 16.9548 6.61228C16.9994 7.15829 17 7.85753 17 8.85V11.15C17 12.1425 16.9994 12.8417 16.9548 13.3877C16.9109 13.925 16.8282 14.2475 16.7003 14.4985C16.4366 15.0159 16.0159 15.4366 15.4985 15.7003C15.2475 15.8282 14.925 15.9109 14.3877 15.9548C13.8417 15.9994 13.1425 16 12.15 16H7.85C6.85753 16 6.15829 15.9994 5.61228 15.9548C5.07503 15.9109 4.75252 15.8282 4.50153 15.7003C3.98408 15.4366 3.56338 15.0159 3.29973 14.4985C3.17184 14.2475 3.08909 13.925 3.04519 13.3877C3.00058 12.8417 3 12.1425 3 11.15V8.85C3 7.85753 3.00058 7.15829 3.04519 6.61228C3.08909 6.07503 3.17184 5.75252 3.29973 5.50153C3.56338 4.98408 3.98408 4.56338 4.50153 4.29973ZM4.02473 6.45686C4 6.60239 4 6.77659 4 7.125V12.875C4 13.2234 4 13.3976 4.02473 13.5431C4.1493 14.2763 4.72367 14.8507 5.45686 14.9753C5.60239 15 5.77659 15 6.125 15C6.47341 15 6.64761 15 6.79314 14.9753C7.52633 14.8507 8.1007 14.2763 8.22527 13.5431C8.25 13.3976 8.25 13.2234 8.25 12.875V7.125C8.25 6.77659 8.25 6.60239 8.22527 6.45686C8.1007 5.72367 7.52633 5.1493 6.79314 5.02473C6.64761 5 6.47341 5 6.125 5C5.77659 5 5.60239 5 5.45686 5.02473C4.72367 5.1493 4.1493 5.72367 4.02473 6.45686Z" fill="#808080"/>
</g>
</svg>
