<svg width="18" height="18" viewBox="0 0 18 18" fill="none" xmlns="http://www.w3.org/2000/svg">
<path fill-rule="evenodd" clip-rule="evenodd" d="M5.4 7.2C6.39411 7.2 7.2 6.39411 7.2 5.4C7.2 4.40589 6.39411 3.6 5.4 3.6C4.40589 3.6 3.6 4.40589 3.6 5.4C3.6 6.39411 4.40589 7.2 5.4 7.2ZM8.55 5.4C8.55 7.1397 7.1397 8.55 5.4 8.55C3.6603 8.55 2.25 7.1397 2.25 5.4C2.25 3.6603 3.6603 2.25 5.4 2.25C7.1397 2.25 8.55 3.6603 8.55 5.4ZM14.4 5.4C14.4 6.39411 13.5941 7.2 12.6 7.2C11.6059 7.2 10.8 6.39411 10.8 5.4C10.8 4.40589 11.6059 3.6 12.6 3.6C13.5941 3.6 14.4 4.40589 14.4 5.4ZM12.6 8.55C14.3397 8.55 15.75 7.1397 15.75 5.4C15.75 3.6603 14.3397 2.25 12.6 2.25C10.8603 2.25 9.45 3.6603 9.45 5.4C9.45 7.1397 10.8603 8.55 12.6 8.55ZM14.4 12.6C14.4 13.5941 13.5941 14.4 12.6 14.4C11.6059 14.4 10.8 13.5941 10.8 12.6C10.8 11.6059 11.6059 10.8 12.6 10.8C13.5941 10.8 14.4 11.6059 14.4 12.6ZM12.6 15.75C14.3397 15.75 15.75 14.3397 15.75 12.6C15.75 10.8603 14.3397 9.45 12.6 9.45C10.8603 9.45 9.45 10.8603 9.45 12.6C9.45 14.3397 10.8603 15.75 12.6 15.75ZM7.2 12.6C7.2 13.5941 6.39411 14.4 5.4 14.4C4.40589 14.4 3.6 13.5941 3.6 12.6C3.6 11.6059 4.40589 10.8 5.4 10.8C6.39411 10.8 7.2 11.6059 7.2 12.6ZM5.4 15.75C7.1397 15.75 8.55 14.3397 8.55 12.6C8.55 10.8603 7.1397 9.45 5.4 9.45C3.6603 9.45 2.25 10.8603 2.25 12.6C2.25 14.3397 3.6603 15.75 5.4 15.75Z" fill="currentColor"/>
</svg>
