<svg width="19" height="18" viewBox="0 0 19 18" fill="none" xmlns="http://www.w3.org/2000/svg">
<path fill-rule="evenodd" clip-rule="evenodd" d="M10.8503 7.74355C10.5817 8.29417 10.2379 8.85753 9.7979 9.29757C9.35787 9.73761 8.7945 10.0814 8.24388 10.35C8.7945 10.6186 9.35787 10.9623 9.7979 11.4024C10.2379 11.8424 10.5817 12.4058 10.8503 12.9564C11.1189 12.4058 11.4627 11.8424 11.9027 11.4024C12.3428 10.9623 12.9061 10.6186 13.4567 10.35C12.9061 10.0814 12.3428 9.73761 11.9027 9.29757C11.4627 8.85753 11.1189 8.29417 10.8503 7.74355ZM10.1402 5.91065C9.81893 6.84984 9.3874 7.79889 8.84331 8.34298C8.29922 8.88707 7.35018 9.31859 6.41098 9.63991C6.35185 9.66014 6.29276 9.67993 6.23382 9.69929C6.05114 9.75927 5.86984 9.81506 5.69298 9.86669C5.60908 9.89118 5.52617 9.91473 5.4446 9.93734C5.10319 10.032 5.10319 10.668 5.4446 10.7626C5.52617 10.7852 5.60908 10.8088 5.69298 10.8333C5.86983 10.8849 6.05114 10.9407 6.23382 11.0007C6.29276 11.02 6.35185 11.0398 6.41098 11.06C7.35018 11.3814 8.29922 11.8129 8.84331 12.357C9.3874 12.9011 9.81893 13.8501 10.1402 14.7893C10.1605 14.8484 10.1803 14.9075 10.1996 14.9665C10.2596 15.1491 10.3154 15.3305 10.367 15.5073C10.3915 15.5912 10.4151 15.6741 10.4377 15.7557C10.5323 16.0971 11.1683 16.0971 11.2629 15.7557C11.2856 15.6741 11.3091 15.5912 11.3336 15.5073C11.3852 15.3305 11.441 15.1491 11.501 14.9665C11.5204 14.9075 11.5402 14.8484 11.5604 14.7893C11.8817 13.8501 12.3132 12.9011 12.8573 12.357C13.4014 11.8129 14.3504 11.3814 15.2896 11.06C15.3488 11.0398 15.4079 11.02 15.4668 11.0007C15.6495 10.9407 15.8308 10.8849 16.0076 10.8333C16.0915 10.8088 16.1744 10.7852 16.256 10.7626C16.5974 10.668 16.5974 10.032 16.256 9.93734C16.1744 9.91473 16.0915 9.89118 16.0076 9.86669C15.8308 9.81506 15.6495 9.75927 15.4668 9.69929C15.4079 9.67993 15.3488 9.66014 15.2896 9.63991C14.3504 9.31859 13.4014 8.88707 12.8573 8.34298C12.3132 7.79889 11.8817 6.84984 11.5604 5.91065C11.5402 5.85152 11.5204 5.79243 11.501 5.73348C11.441 5.55081 11.3852 5.3695 11.3336 5.19265C11.3091 5.10874 11.2856 5.02584 11.2629 4.94427C11.1683 4.60286 10.5323 4.60286 10.4377 4.94427C10.4151 5.02584 10.3915 5.10874 10.367 5.19265C10.3154 5.3695 10.2596 5.55081 10.1996 5.73348C10.1803 5.79243 10.1605 5.85152 10.1402 5.91065Z" fill="currentColor"/>
<path d="M5.34182 1.92456C5.23241 1.59635 4.76817 1.59635 4.65877 1.92456L4.3849 2.74617C4.20573 3.28366 3.78396 3.70543 3.24648 3.88459L2.42487 4.15846C2.09666 4.26786 2.09666 4.73211 2.42487 4.84151L3.24648 5.11538C3.78396 5.29454 4.20573 5.71631 4.3849 6.2538L4.65877 7.07541C4.76817 7.40362 5.23241 7.40362 5.34182 7.07541L5.61569 6.2538C5.79485 5.71631 6.21662 5.29454 6.75411 5.11538L7.57571 4.84151C7.90392 4.73211 7.90392 4.26786 7.57571 4.15846L6.75411 3.88459C6.21662 3.70543 5.79485 3.28366 5.61569 2.74617L5.34182 1.92456Z" fill="currentColor"/>
</svg>
