<svg width="20" height="20" viewBox="0 0 20 20" fill="none" xmlns="http://www.w3.org/2000/svg">
  <path
    d="M10.0011 1.87476C10.1617 1.87465 10.3192 1.91952 10.4557 2.00428C10.5921 2.08904 10.7022 2.21031 10.7733 2.35436L12.9327 6.73163L17.7631 7.43383C17.922 7.45691 18.0713 7.52396 18.194 7.62742C18.3168 7.73087 18.4081 7.8666 18.4578 8.01927C18.5075 8.17194 18.5134 8.33545 18.475 8.49132C18.4366 8.6472 18.3554 8.78922 18.2405 8.90134L14.7455 12.3091L15.5705 17.1189C15.5972 17.2771 15.5793 17.4395 15.5187 17.5881C15.4581 17.7366 15.3573 17.8652 15.2276 17.9596C15.0978 18.0539 14.9444 18.1101 14.7844 18.122C14.6244 18.1338 14.4643 18.1007 14.3221 18.0265L10.0011 15.7547L5.68004 18.0265C5.53798 18.1011 5.37789 18.1345 5.21786 18.1229C5.05783 18.1113 4.90422 18.0552 4.77438 17.9609C4.64455 17.8667 4.54366 17.738 4.4831 17.5894C4.42254 17.4408 4.40473 17.2782 4.43168 17.1201L5.2578 12.3079L1.76057 8.90134C1.64534 8.78927 1.56379 8.64716 1.52519 8.49111C1.48658 8.33507 1.49245 8.17134 1.54214 8.01846C1.59182 7.86558 1.68333 7.72968 1.8063 7.62615C1.92927 7.52262 2.07878 7.4556 2.23788 7.43269L7.06837 6.73163L9.2289 2.35436C9.30001 2.21031 9.41003 2.08904 9.5465 2.00428C9.68297 1.91952 9.84044 1.87465 10.0011 1.87476Z"
    fill="currentColor" />
</svg>