<svg width="20" height="20" viewBox="0 0 20 20" fill="none" xmlns="http://www.w3.org/2000/svg">
  <path fill-rule="evenodd" clip-rule="evenodd"
    d="M12.9327 6.73188L10.7733 2.3546C10.7022 2.21055 10.5921 2.08928 10.4557 2.00452C10.3192 1.91976 10.1617 1.8749 10.0011 1.875C9.84044 1.8749 9.68297 1.91976 9.5465 2.00452C9.41003 2.08928 9.30001 2.21055 9.2289 2.3546L7.06837 6.73188L2.23788 7.43293C2.07878 7.45584 1.92927 7.52286 1.8063 7.62639C1.68333 7.72992 1.59182 7.86582 1.54214 8.0187C1.49245 8.17158 1.48658 8.33531 1.52519 8.49136C1.56379 8.6474 1.64534 8.78951 1.76057 8.90158L5.2578 12.3082L4.43168 17.1203C4.40473 17.2785 4.42254 17.441 4.4831 17.5896C4.54366 17.7382 4.64455 17.8669 4.77438 17.9612C4.90422 18.0555 5.05783 18.1116 5.21786 18.1231C5.37789 18.1347 5.53798 18.1013 5.68004 18.0268L10.0011 15.7549L14.3221 18.0268C14.4643 18.101 14.6244 18.134 14.7844 18.1222C14.9443 18.1104 15.0978 18.0542 15.2276 17.9598C15.3573 17.8655 15.4581 17.7368 15.5187 17.5883C15.5793 17.4398 15.5972 17.2773 15.5705 17.1192L14.7455 12.3093L18.2405 8.90158C18.3554 8.78946 18.4366 8.64744 18.475 8.49156C18.5134 8.33569 18.5075 8.17218 18.4578 8.01951C18.4081 7.86685 18.3168 7.73111 18.194 7.62766C18.0713 7.5242 17.922 7.45715 17.7631 7.43408L12.9327 6.73188ZM10.0009 4.17949L8.41345 7.39578C8.35962 7.50484 8.29351 7.60586 8.21511 7.69883C8.13671 7.7918 8.04831 7.87403 7.94992 7.9455C7.85152 8.01697 7.74599 8.07561 7.63333 8.12142C7.52067 8.16723 7.40416 8.19886 7.28381 8.21633L3.73548 8.7313L6.30445 11.2337C6.3916 11.3186 6.4673 11.4127 6.53155 11.516C6.5958 11.6193 6.64673 11.7288 6.68434 11.8445C6.72195 11.9602 6.74513 12.0788 6.7539 12.2001C6.76267 12.3214 6.75676 12.4421 6.73617 12.562L6.12951 16.0958L9.30303 14.4272C9.41067 14.3706 9.52352 14.3277 9.64159 14.2986C9.75965 14.2695 9.87948 14.2549 10.0011 14.2549C10.1227 14.2549 10.2425 14.2695 10.3606 14.2986C10.4787 14.3277 10.5915 14.3706 10.6992 14.4272L13.8731 16.096L13.2671 12.5629C13.2466 12.443 13.2407 12.3225 13.2494 12.2012C13.2581 12.0799 13.2813 11.9615 13.3189 11.8459C13.3564 11.7302 13.4073 11.6208 13.4715 11.5175C13.5357 11.4142 13.6113 11.3202 13.6983 11.2353L16.2656 8.73216L12.7169 8.21628C12.5966 8.19879 12.4801 8.16712 12.3674 8.12129C12.2548 8.07546 12.1493 8.0168 12.0509 7.94531C11.9525 7.87382 11.8641 7.79158 11.7858 7.69859C11.7074 7.6056 11.6413 7.50457 11.5875 7.39551L10.0009 4.17949Z"
    fill="currentColor" />
</svg>