<svg width="18" height="20" viewBox="0 0 18 20" fill="none" xmlns="http://www.w3.org/2000/svg">
<path fill-rule="evenodd" clip-rule="evenodd" d="M11.6394 7.05851L9.69593 3.11896C9.63192 2.98931 9.53291 2.88017 9.41009 2.80389C9.28726 2.7276 9.14554 2.68722 9.00096 2.68732C8.85637 2.68722 8.71465 2.7276 8.59183 2.80389C8.469 2.88017 8.36998 2.98931 8.30599 3.11896L6.36151 7.05851L2.01407 7.68945C1.87088 7.71007 1.73632 7.77039 1.62565 7.86357C1.51498 7.95675 1.43262 8.07906 1.3879 8.21665C1.34318 8.35424 1.3379 8.5016 1.37264 8.64204C1.40739 8.78248 1.48078 8.91038 1.58449 9.01124L4.732 12.0772L3.98849 16.4081C3.96423 16.5505 3.98026 16.6967 4.03477 16.8305C4.08927 16.9642 4.18007 17.08 4.29692 17.1649C4.41377 17.2498 4.55202 17.3003 4.69605 17.3106C4.84008 17.321 4.98416 17.291 5.11201 17.2239L9.00096 15.1792L12.8899 17.2239C13.0178 17.2907 13.1619 17.3204 13.3059 17.3098C13.4498 17.2992 13.588 17.2486 13.7048 17.1636C13.8215 17.0788 13.9123 16.9629 13.9668 16.8293C14.0213 16.6956 14.0375 16.5494 14.0134 16.4071L13.2709 12.0782L16.4164 9.01124C16.5198 8.91033 16.5929 8.78251 16.6275 8.64222C16.662 8.50194 16.6567 8.35478 16.612 8.21738C16.5673 8.07998 16.4851 7.95782 16.3746 7.86471C16.2641 7.7716 16.1298 7.71125 15.9868 7.69049L11.6394 7.05851ZM9.00082 4.76136L7.57208 7.65602C7.52364 7.75417 7.46413 7.84509 7.39357 7.92876C7.32301 8.01244 7.24346 8.08644 7.1549 8.15077C7.06634 8.21509 6.97137 8.26787 6.86997 8.30909C6.76858 8.35032 6.66372 8.37879 6.55541 8.39451L3.36191 8.85799L5.67398 11.1101C5.75241 11.1865 5.82054 11.2712 5.87837 11.3642C5.9362 11.4572 5.98204 11.5558 6.01588 11.6599C6.04973 11.764 6.0706 11.8707 6.07849 11.9799C6.08638 12.0891 6.08106 12.1977 6.06253 12.3056L5.51653 15.486L8.3727 13.9843C8.46958 13.9334 8.57115 13.8948 8.67741 13.8686C8.78366 13.8423 8.89151 13.8292 9.00096 13.8292C9.11041 13.8292 9.21826 13.8423 9.32452 13.8686C9.43078 13.8948 9.53234 13.9334 9.62921 13.9843L12.4858 15.4862L11.9404 12.3064C11.9219 12.1985 11.9166 12.09 11.9244 11.9809C11.9323 11.8718 11.9531 11.7652 11.987 11.6611C12.0208 11.557 12.0665 11.4585 12.1243 11.3656C12.1821 11.2726 12.2501 11.188 12.3284 11.1116L14.639 8.85876L11.4452 8.39447C11.3369 8.37873 11.232 8.35023 11.1306 8.30898C11.0293 8.26773 10.9343 8.21494 10.8458 8.1506C10.7572 8.08625 10.6777 8.01224 10.6072 7.92855C10.5366 7.84485 10.4771 7.75393 10.4287 7.65578L9.00082 4.76136Z" fill="currentColor"/>
</svg>
