<svg width="16" height="16" viewBox="0 0 16 16" fill="none" xmlns="http://www.w3.org/2000/svg">
<path fill-rule="evenodd" clip-rule="evenodd" d="M5.4001 1.60001C3.30142 1.60001 1.6001 3.30132 1.6001 5.40001V10C1.6001 10.6627 2.13736 11.2 2.8001 11.2V5.40001C2.8001 3.96407 3.96416 2.80001 5.4001 2.80001H11.2001C11.2001 2.13726 10.6628 1.60001 10.0001 1.60001H5.4001ZM6.2001 4.00001C4.98507 4.00001 4.0001 4.98498 4.0001 6.20001V12.2C4.0001 13.415 4.98507 14.4 6.2001 14.4H12.2001C13.4151 14.4 14.4001 13.415 14.4001 12.2V6.20001C14.4001 4.98498 13.4151 4.00001 12.2001 4.00001H6.2001ZM5.2001 6.20001C5.2001 5.64772 5.64781 5.20001 6.2001 5.20001H12.2001C12.7524 5.20001 13.2001 5.64772 13.2001 6.20001V12.2C13.2001 12.7523 12.7524 13.2 12.2001 13.2H6.2001C5.64781 13.2 5.2001 12.7523 5.2001 12.2V6.20001Z" fill="#707480"/>
</svg>
