<svg width="24" height="22" viewBox="0 0 24 22" fill="none" xmlns="http://www.w3.org/2000/svg">
<path d="M8.25 3.125V5H15.75V3.125C15.75 2.9375 15.5625 2.75 15.375 2.75H8.625C8.39062 2.75 8.25 2.9375 8.25 3.125ZM6 5V3.125C6 1.71875 7.17188 0.5 8.625 0.5H15.375C16.7812 0.5 18 1.71875 18 3.125V5H19.3125C19.875 5 20.4844 5.28125 20.9062 5.70312L23.2969 8.09375C23.7188 8.51562 24 9.125 24 9.6875V13.25H18V12.5C18 11.7031 17.2969 11 16.5 11C15.6562 11 15 11.7031 15 12.5V13.25H9V12.5C9 11.7031 8.29688 11 7.5 11C6.65625 11 6 11.7031 6 12.5V13.25H0V9.6875C0 9.125 0.234375 8.51562 0.65625 8.09375L3.09375 5.70312C3.51562 5.28125 4.07812 5 4.64062 5H6ZM0 18.5V14.75H6V15.5C6 16.3438 6.65625 17 7.5 17C8.29688 17 9 16.3438 9 15.5V14.75H15V15.5C15 16.3438 15.6562 17 16.5 17C17.2969 17 18 16.3438 18 15.5V14.75H24V18.5C24 20.1875 22.6406 21.5 21 21.5H3C1.3125 21.5 0 20.1875 0 18.5Z" fill="#67CDBC"/>
</svg>
