<svg width="28" height="32" viewBox="0 0 28 32" fill="none" xmlns="http://www.w3.org/2000/svg">
<path fill-rule="evenodd" clip-rule="evenodd" d="M5.1665 14.6666C5.1665 10.6165 8.44975 7.33325 12.4998 7.33325C16.5499 7.33325 19.8332 10.6165 19.8332 14.6666C19.8332 18.7167 16.5499 21.9999 12.4998 21.9999C8.44975 21.9999 5.1665 18.7167 5.1665 14.6666ZM12.4998 5.33325C7.34518 5.33325 3.1665 9.51193 3.1665 14.6666C3.1665 19.8212 7.34518 23.9999 12.4998 23.9999C14.7169 23.9999 16.7535 23.2269 18.3546 21.9356L22.7928 26.3738C23.1833 26.7643 23.8165 26.7643 24.207 26.3738C24.5975 25.9832 24.5975 25.3501 24.207 24.9596L19.7688 20.5214C21.0601 18.9203 21.8332 16.8837 21.8332 14.6666C21.8332 9.51193 17.6545 5.33325 12.4998 5.33325Z" fill="white"/>
</svg>
