<svg width="20" height="20" viewBox="0 0 20 20" fill="none" xmlns="http://www.w3.org/2000/svg">
<g id="icon/outlined/transfers">
<path id="Union" fill-rule="evenodd" clip-rule="evenodd" d="M7.78032 8.21967C8.07322 8.51256 8.07322 8.98744 7.78032 9.28033C7.48743 9.57322 7.01255 9.57322 6.71966 9.28033L3.18933 5.75L6.71966 2.21967C7.01255 1.92678 7.48743 1.92678 7.78032 2.21967C8.07321 2.51256 8.07322 2.98744 7.78032 3.28033L6.06065 5L15.75 5C16.1642 5 16.5 5.33579 16.5 5.75C16.5 6.16421 16.1642 6.5 15.75 6.5L6.06065 6.5L7.78032 8.21967ZM3.5 14.25C3.5 13.8358 3.83579 13.5 4.25 13.5H13.9393L12.2197 11.7803C11.9268 11.4874 11.9268 11.0126 12.2197 10.7197C12.5126 10.4268 12.9874 10.4268 13.2803 10.7197L16.8107 14.25L13.2803 17.7803C12.9874 18.0732 12.5126 18.0732 12.2197 17.7803C11.9268 17.4874 11.9268 17.0126 12.2197 16.7197L13.9393 15H4.25C3.83579 15 3.5 14.6642 3.5 14.25Z" fill="#707480"/>
</g>
</svg>
