<svg width="20" height="20" viewBox="0 0 20 20" fill="none" xmlns="http://www.w3.org/2000/svg">
<g id="icon/outlined/trash-3">
<g id="Union">
<path d="M9 10C9 9.58579 8.66421 9.25 8.25 9.25C7.83579 9.25 7.5 9.58579 7.5 10V13.5C7.5 13.9142 7.83579 14.25 8.25 14.25C8.66421 14.25 9 13.9142 9 13.5V10Z" fill="#EA580C"/>
<path d="M12.5 10C12.5 9.58579 12.1642 9.25 11.75 9.25C11.3358 9.25 11 9.58579 11 10V13.5C11 13.9142 11.3358 14.25 11.75 14.25C12.1642 14.25 12.5 13.9142 12.5 13.5V10Z" fill="#EA580C"/>
<path fill-rule="evenodd" clip-rule="evenodd" d="M9.35188 1.50007C8.94344 1.49957 8.58466 1.49914 8.25184 1.60384C7.89402 1.71641 7.57002 1.91665 7.30931 2.18636C7.09457 2.40851 6.94447 2.68574 6.78639 3.00014H4.25C3.2835 3.00014 2.5 3.78364 2.5 4.75014C2.5 5.36107 2.81306 5.89889 3.28751 6.21192L3.98137 14.1912C4.03521 14.8106 4.07939 15.3187 4.14817 15.7312C4.21957 16.1594 4.3258 16.5434 4.53479 16.8985C4.8634 17.4568 5.35137 17.9042 5.93607 18.1832C6.30794 18.3606 6.69966 18.4332 7.13244 18.4672C7.54933 18.5 8.05934 18.5 8.68098 18.5H11.3193C11.9409 18.5 12.451 18.5 12.8679 18.4672C13.3007 18.4332 13.6924 18.3606 14.0643 18.1832C14.649 17.9042 15.137 17.4568 15.4656 16.8985C15.6746 16.5434 15.7808 16.1594 15.8522 15.7312C15.921 15.3187 15.9651 14.8106 16.019 14.1912L16.7129 6.21167C17.1871 5.89861 17.5 5.36091 17.5 4.75014C17.5 3.78364 16.7165 3.00014 15.75 3.00014H13.2136C13.0555 2.68574 12.9054 2.40851 12.6907 2.18636C12.43 1.91665 12.106 1.71641 11.7482 1.60384C11.4153 1.49914 11.0566 1.49957 10.6481 1.50007H9.35188ZM4.81824 6.50014H15.1821L14.5272 14.0315C14.4701 14.6879 14.4305 15.1371 14.3726 15.4845C14.3162 15.8228 14.2509 16.005 14.1728 16.1376C13.9959 16.4383 13.7331 16.6792 13.4183 16.8294C13.2794 16.8957 13.0923 16.945 12.7503 16.9718C12.3992 16.9995 11.9483 17 11.2894 17H8.71092C8.05207 17 7.60119 16.9995 7.25004 16.9718C6.90809 16.945 6.72092 16.8957 6.58205 16.8294C6.26721 16.6792 6.00446 16.4383 5.82752 16.1376C5.74947 16.005 5.68416 15.8228 5.62775 15.4845C5.56981 15.1371 5.53022 14.6879 5.47314 14.0315L4.81824 6.50014ZM15.7583 5C15.8925 4.9956 16 4.88542 16 4.75014C16 4.61207 15.8881 4.50014 15.75 4.50014H12.9896L12.9779 4.50028C12.9258 4.5011 12.7622 4.50368 12.6044 4.45405C12.4454 4.40402 12.3014 4.31502 12.1855 4.19515C12.0706 4.07624 11.9997 3.92875 11.9772 3.88181L11.972 3.87126C11.729 3.38512 11.6731 3.29193 11.6122 3.22888C11.5253 3.13897 11.4173 3.07223 11.298 3.0347C11.2144 3.00839 11.1061 3.00014 10.5625 3.00014H9.43747C8.89395 3.00014 8.78563 3.00839 8.70198 3.0347C8.58271 3.07223 8.47471 3.13897 8.3878 3.22888C8.32686 3.29193 8.27103 3.38512 8.02796 3.87126L8.02285 3.8818C8.0003 3.92874 7.92943 4.07624 7.81449 4.19515C7.69862 4.31502 7.55462 4.40402 7.39558 4.45405C7.23783 4.50368 7.0742 4.5011 7.02214 4.50028L7.01042 4.50014H4.25C4.11193 4.50014 4 4.61207 4 4.75014C4 4.88542 4.10745 4.9956 4.24166 5H15.7583Z" fill="#EA580C"/>
</g>
</g>
</svg>
