<svg width="19" height="18" viewBox="0 0 19 18" fill="none" xmlns="http://www.w3.org/2000/svg">
<path fill-rule="evenodd" clip-rule="evenodd" d="M16.4747 4.5H17.1496V5.17486C17.1496 5.17493 17.1496 5.17501 17.1496 5.17509V9.225C17.1496 9.59779 16.8474 9.9 16.4746 9.9C16.1018 9.9 15.7996 9.59779 15.7996 9.225V6.78975L10.7488 11.7754C10.4859 12.0349 10.0633 12.0349 9.80042 11.7754L7.17461 9.18345L2.9988 13.3054C2.73349 13.5673 2.30611 13.5645 2.04422 13.2992C1.78234 13.0339 1.78511 12.6065 2.05042 12.3446L6.70042 7.75461C6.9633 7.49513 7.38592 7.49513 7.6488 7.75461L10.2746 10.3465L14.8299 5.85H12.4246C12.0518 5.85 11.7496 5.54779 11.7496 5.175C11.7496 4.80221 12.0518 4.5 12.4246 4.5H16.4745C16.4745 4.5 16.4746 4.5 16.4747 4.5Z" fill="currentColor"/>
</svg>
