<svg width="18" height="18" viewBox="0 0 18 18" fill="none" xmlns="http://www.w3.org/2000/svg">
<g id="icon/outlined/upload">
<path id="Union" fill-rule="evenodd" clip-rule="evenodd" d="M9.00005 1.52051L5.65897 4.86159C5.39536 5.12519 5.39537 5.55258 5.65897 5.81618C5.92257 6.07979 6.34996 6.07979 6.61356 5.81618L8.32505 4.1047L8.32505 11.0251C8.32505 11.3979 8.62726 11.7001 9.00005 11.7001C9.37284 11.7001 9.67505 11.3979 9.67505 11.0251L9.67505 4.1047L11.3865 5.81618C11.6501 6.07979 12.0775 6.07979 12.3411 5.81618C12.6047 5.55258 12.6047 5.12519 12.3411 4.86159L9.00005 1.52051ZM3.15005 11.9251C3.15005 11.5523 2.84784 11.2501 2.47505 11.2501C2.10226 11.2501 1.80005 11.5523 1.80005 11.9251V11.9534V11.9534C1.80004 12.5594 1.80003 13.0551 1.83295 13.4579C1.86701 13.8748 1.93967 14.2514 2.11886 14.603C2.39928 15.1534 2.84675 15.6009 3.39713 15.8813C3.74879 16.0605 4.12535 16.1331 4.54229 16.1672C4.9451 16.2001 5.44074 16.2001 6.04678 16.2001H11.9533C12.5594 16.2001 13.055 16.2001 13.4578 16.1672C13.8747 16.1331 14.2513 16.0605 14.603 15.8813C15.1533 15.6009 15.6008 15.1534 15.8812 14.603C16.0604 14.2514 16.1331 13.8748 16.1672 13.4579C16.2001 13.0551 16.2001 12.5595 16.2 11.9535V11.9534V11.9251C16.2 11.5523 15.8978 11.2501 15.5251 11.2501C15.1523 11.2501 14.85 11.5523 14.85 11.9251C14.85 12.5663 14.8495 13.0066 14.8216 13.3479C14.7944 13.6814 14.7444 13.8605 14.6784 13.9901C14.5274 14.2865 14.2864 14.5274 13.9901 14.6784C13.8605 14.7445 13.6813 14.7945 13.3479 14.8217C13.0065 14.8496 12.5662 14.8501 11.925 14.8501H6.07505C5.43385 14.8501 4.99355 14.8496 4.65222 14.8217C4.31877 14.7945 4.13965 14.7445 4.01001 14.6784C3.71366 14.5274 3.47271 14.2865 3.32171 13.9901C3.25566 13.8605 3.20571 13.6814 3.17846 13.3479C3.15057 13.0066 3.15005 12.5663 3.15005 11.9251Z" fill="white"/>
</g>
</svg>
