<svg width="25" height="24" viewBox="0 0 25 24" fill="none" xmlns="http://www.w3.org/2000/svg">
<g filter="url(#filter0_b_1684_75963)">
<g clip-path="url(#clip0_1684_75963)">
<rect x="0.5" width="24" height="24" rx="12" fill="#2DD4BB"/>
<path d="M8.01084 8.146H9.37484L12.3998 16H11.1128L10.3758 13.976H6.99884L6.26184 16H4.98584L8.01084 8.146ZM7.36184 12.986H10.0128L8.71484 9.433H8.67084L7.36184 12.986ZM13.1679 8.146H16.6439C17.4359 8.146 18.0739 8.322 18.5359 8.685C19.0199 9.081 19.2619 9.642 19.2619 10.39C19.2619 10.808 19.1519 11.171 18.9319 11.49C18.6789 11.842 18.3379 12.073 17.9089 12.183V12.205C18.6129 12.359 18.9979 12.821 19.0859 13.591L19.2179 14.845C19.2619 15.329 19.4159 15.714 19.6799 16H18.3819C18.1949 15.758 18.0849 15.406 18.0409 14.966L17.9419 13.987C17.8979 13.547 17.7549 13.239 17.5239 13.041C17.2819 12.843 16.9409 12.755 16.4899 12.755H14.3669V16H13.1679V8.146ZM14.3669 9.169V11.732H16.4899C17.0179 11.732 17.4139 11.611 17.6779 11.391C17.9309 11.171 18.0629 10.852 18.0629 10.434C18.0629 9.994 17.9309 9.675 17.6889 9.477C17.4249 9.268 17.0289 9.169 16.4789 9.169H14.3669Z" fill="#D9D9D9"/>
</g>
</g>
<defs>
<filter id="filter0_b_1684_75963" x="-59.5" y="-60" width="144" height="144" filterUnits="userSpaceOnUse" color-interpolation-filters="sRGB">
<feFlood flood-opacity="0" result="BackgroundImageFix"/>
<feGaussianBlur in="BackgroundImageFix" stdDeviation="30"/>
<feComposite in2="SourceAlpha" operator="in" result="effect1_backgroundBlur_1684_75963"/>
<feBlend mode="normal" in="SourceGraphic" in2="effect1_backgroundBlur_1684_75963" result="shape"/>
</filter>
<clipPath id="clip0_1684_75963">
<rect x="0.5" width="24" height="24" rx="12" fill="white"/>
</clipPath>
</defs>
</svg>
