<svg width="19" height="18" viewBox="0 0 19 18" fill="none" xmlns="http://www.w3.org/2000/svg">
<path fill-rule="evenodd" clip-rule="evenodd" d="M7.25005 3.15005C6.77266 3.15005 6.31482 3.33969 5.97726 3.67726C5.63969 4.01482 5.45005 4.47266 5.45005 4.95005C5.45005 5.42744 5.63969 5.88528 5.97726 6.22284C6.31482 6.56041 6.77266 6.75005 7.25005 6.75005C7.72744 6.75005 8.18528 6.56041 8.52284 6.22284C8.86041 5.88528 9.05005 5.42744 9.05005 4.95005C9.05005 4.47266 8.86041 4.01482 8.52284 3.67726C8.18528 3.33969 7.72744 3.15005 7.25005 3.15005ZM5.02266 2.72266C5.6134 2.13192 6.41462 1.80005 7.25005 1.80005C8.08548 1.80005 8.8867 2.13192 9.47743 2.72266C10.0682 3.3134 10.4 4.11462 10.4 4.95005C10.4 5.78548 10.0682 6.5867 9.47743 7.17743C8.8867 7.76817 8.08548 8.10005 7.25005 8.10005C6.41462 8.10005 5.6134 7.76817 5.02266 7.17743C4.43192 6.5867 4.10005 5.78548 4.10005 4.95005C4.10005 4.11462 4.43192 3.3134 5.02266 2.72266ZM3.71631 11.5837C4.63438 10.5206 5.90262 9.90005 7.25005 9.90005C8.59747 9.90005 9.86571 10.5206 10.7838 11.5837C11.6992 12.6436 12.2 14.0626 12.2 15.525C12.2 15.8978 11.8978 16.2 11.525 16.2H2.97505C2.79603 16.2 2.62434 16.1289 2.49775 16.0023C2.37116 15.8758 2.30005 15.7041 2.30005 15.525C2.30005 14.0626 2.80091 12.6436 3.71631 11.5837ZM7.25005 11.25C6.32987 11.25 5.42339 11.6725 4.73802 12.4661C4.18489 13.1065 3.81795 13.9425 3.69533 14.85H10.8048C10.6821 13.9425 10.3152 13.1065 9.76207 12.4661C9.07671 11.6725 8.17023 11.25 7.25005 11.25ZM11.8073 1.80057C11.4346 1.7938 11.1269 2.09047 11.1202 2.4632C11.1134 2.83593 11.4101 3.14358 11.7828 3.15035C12.2483 3.15881 12.693 3.34742 13.0228 3.67726C13.3604 4.01483 13.55 4.47266 13.55 4.95005C13.55 5.42744 13.3604 5.88528 13.0228 6.22285C12.693 6.55269 12.2483 6.7413 11.7828 6.74976L11.75 6.75005C11.3773 6.75005 11.075 7.05226 11.075 7.42505C11.075 7.79785 11.3773 8.10005 11.75 8.10005C11.7692 8.10005 11.7882 8.09988 11.8073 8.09953C12.622 8.08473 13.4002 7.75467 13.9774 7.17744C14.5682 6.5867 14.9 5.78549 14.9 4.95005C14.9 4.11462 14.5682 3.31341 13.9774 2.72267C13.4002 2.14544 12.622 1.81538 11.8073 1.80057ZM12.8245 10.0338C12.463 9.94269 12.0961 10.1618 12.005 10.5233C11.9138 10.8848 12.133 11.2517 12.4945 11.3429C13.1454 11.507 13.7626 11.8878 14.2621 12.4661C14.8152 13.1065 15.1821 13.9425 15.3048 14.8501H14.225C13.8523 14.8501 13.55 15.1523 13.55 15.5251C13.55 15.8978 13.8523 16.2001 14.225 16.2001H16.025C16.3978 16.2001 16.7 15.8978 16.7 15.5251C16.7 14.0626 16.1992 12.6436 15.2838 11.5837C14.6156 10.81 13.7624 10.2703 12.8245 10.0338Z" fill="#707480"/>
</svg>
