<svg width="16" height="16" viewBox="0 0 16 16" fill="none" xmlns="http://www.w3.org/2000/svg">
<g id="icon/outlined/x">
<g id="Union">
<path fill-rule="evenodd" clip-rule="evenodd" d="M4.1772 4.17769C4.41152 3.94337 4.79141 3.94337 5.02573 4.17769L11.8231 10.975C12.0574 11.2093 12.0574 11.5892 11.8231 11.8236C11.5888 12.0579 11.2089 12.0579 10.9745 11.8236L4.1772 5.02622C3.94289 4.7919 3.94289 4.412 4.1772 4.17769Z" fill="#808080"/>
<path fill-rule="evenodd" clip-rule="evenodd" d="M11.8231 4.17769C12.0574 4.412 12.0574 4.7919 11.8231 5.02622L5.02573 11.8236C4.79141 12.0579 4.41152 12.0579 4.1772 11.8236C3.94289 11.5892 3.94289 11.2093 4.1772 10.975L10.9745 4.17769C11.2089 3.94337 11.5888 3.94337 11.8231 4.17769Z" fill="#808080"/>
</g>
</g>
</svg>
