<svg width="18" height="19" viewBox="0 0 18 19" fill="none" xmlns="http://www.w3.org/2000/svg">
    <path fill-rule="evenodd" clip-rule="evenodd" d="M4.02273 5.01685C4.28608 4.7535 4.71306 4.7535 4.97642 5.01685L8.99957 9.03951L13.0227 5.01685C13.2658 4.77374 13.6483 4.75506 13.9129 4.96078L13.9145 4.96199L13.9765 5.01681C14.2398 5.28016 14.2398 5.70718 13.9764 5.97054L9.95376 9.99369L13.9764 14.0169C14.2195 14.26 14.2382 14.6425 14.0325 14.907L14.0313 14.9086L13.9765 14.9706C13.7131 15.2339 13.2861 15.2339 13.0227 14.9705L8.99957 10.9479L4.97642 14.9705C4.7333 15.2136 4.3508 15.2323 4.08623 15.0266L4.08468 15.0254L4.02269 14.9706C3.75934 14.7072 3.75938 14.2802 4.02273 14.0168L8.04539 9.99369L4.02273 5.97054C3.77962 5.72742 3.76094 5.34492 3.96666 5.08035L3.96787 5.0788L4.02273 5.01685Z" fill="#707480"/>
</svg>
