<svg width="18" height="18" viewBox="0 0 18 18" fill="none" xmlns="http://www.w3.org/2000/svg">
<path fill-rule="evenodd" clip-rule="evenodd" d="M4.69929 4.69917C4.96289 4.43556 5.39028 4.43556 5.65388 4.69917L13.3009 12.3462C13.5645 12.6098 13.5645 13.0372 13.3009 13.3008C13.0373 13.5644 12.6099 13.5644 12.3463 13.3008L4.69929 5.65376C4.43569 5.39016 4.43569 4.96277 4.69929 4.69917Z" fill="#707480"/>
<path fill-rule="evenodd" clip-rule="evenodd" d="M13.3009 4.69917C13.5645 4.96277 13.5645 5.39016 13.3009 5.65376L5.65388 13.3008C5.39028 13.5644 4.96289 13.5644 4.69929 13.3008C4.43569 13.0372 4.43569 12.6098 4.69929 12.3462L12.3463 4.69917C12.6099 4.43556 13.0373 4.43556 13.3009 4.69917Z" fill="#707480"/>
</svg>
