<svg width="16" height="16" viewBox="0 0 16 16" fill="none" xmlns="http://www.w3.org/2000/svg">
<path fill-rule="evenodd" clip-rule="evenodd" d="M5.62436 4.77583C5.39005 4.54152 5.01015 4.54152 4.77583 4.77583C4.54152 5.01015 4.54152 5.39005 4.77583 5.62436L7.15157 8.0001L4.77583 10.3758C4.54152 10.6101 4.54152 10.99 4.77583 11.2244C5.01015 11.4587 5.39005 11.4587 5.62436 11.2244L8.0001 8.84863L10.3758 11.2244C10.6101 11.4587 10.99 11.4587 11.2244 11.2244C11.4587 10.99 11.4587 10.6101 11.2244 10.3758L8.84863 8.0001L11.2244 5.62436C11.4587 5.39005 11.4587 5.01015 11.2244 4.77583C10.99 4.54152 10.6101 4.54152 10.3758 4.77583L8.0001 7.15157L5.62436 4.77583Z" fill="#EF4444"/>
</svg>
